<?xml version="1.0" encoding="utf-8"?>
<!-- Generator: Adobe Illustrator 17.0.0, SVG Export Plug-In . SVG Version: 6.00 Build 0)  -->
<!DOCTYPE svg PUBLIC "-//W3C//DTD SVG 1.1//EN" "http://www.w3.org/Graphics/SVG/1.1/DTD/svg11.dtd">
<svg version="1.1" id="Layer_1" xmlns="http://www.w3.org/2000/svg" xmlns:xlink="http://www.w3.org/1999/xlink" x="0px" y="0px"
	 width="271.063px" height="375.169px" viewBox="0 0 271.063 375.169" enable-background="new 0 0 271.063 375.169"
	 xml:space="preserve">
<g>
	<rect x="47.63" y="22.208" fill="#222944" width="168" height="15.077"/>
	<g>
		<g>
			<path fill="#222944" d="M43.118,280.409h1.2v-7.44h-1.2v-1.215h3.78c2.22,0,3.72,1.035,3.72,2.91c0,1.32-0.84,2.28-2.01,2.7
				l1.83,3.045h1.154v1.215h-2.085l-2.234-3.915c-0.195,0.015-0.391,0.03-0.585,0.03c-0.36,0-0.75-0.016-1.005-0.03v2.7h1.26v1.215
				h-3.825V280.409z M49.222,274.709c0-1.155-0.944-1.74-2.399-1.74h-1.14v3.57c0.255,0.015,0.6,0.03,1.095,0.03
				C48.188,276.569,49.222,275.894,49.222,274.709z"/>
			<path fill="#222944" d="M54.758,278.804c0.181,1.23,1.08,1.83,2.34,1.83c0.825,0,1.53-0.255,2.295-0.69l-0.104,1.186
				c-0.675,0.42-1.5,0.615-2.385,0.615c-2.085,0-3.495-1.351-3.495-3.33c0-1.815,1.245-3.375,3.21-3.375
				c1.995,0,3.045,1.425,3.045,3.075c0,0.239-0.03,0.495-0.061,0.689H54.758z M54.758,277.844h3.615
				c-0.061-1.035-0.69-1.74-1.785-1.74C55.718,276.104,54.923,276.674,54.758,277.844z"/>
			<path fill="#222944" d="M68.333,281.759c0,0.795-0.21,1.439-0.601,1.905c-0.54,0.659-1.425,0.96-2.444,0.96
				c-1.065,0-1.92-0.33-2.34-0.75c-0.24-0.24-0.345-0.495-0.345-0.78c0-0.45,0.329-0.84,0.81-0.84c0.435,0,0.75,0.314,0.75,0.734
				c0,0.12-0.03,0.256-0.09,0.36c0.225,0.09,0.6,0.21,1.14,0.21c0.615,0,1.155-0.18,1.5-0.615c0.21-0.27,0.33-0.659,0.33-1.185
				v-1.125c-0.51,0.525-1.095,0.915-2.025,0.915c-1.665,0-3.015-1.305-3.015-3.21c0-1.785,1.305-3.3,3.12-3.3
				c0.854,0,1.5,0.33,1.979,0.765v-0.645h2.235v1.109h-1.005V281.759z M63.323,278.324c0,1.29,0.825,2.114,1.965,2.114
				c0.705,0,1.29-0.33,1.755-0.81v-2.835c-0.436-0.36-0.99-0.63-1.725-0.63C64.148,276.164,63.323,277.034,63.323,278.324z"/>
			<path fill="#222944" d="M71.438,279.898c0-1.185,1.05-1.949,2.535-1.949c0.675,0,1.425,0.149,1.77,0.255v-0.735
				c0-0.375-0.104-0.675-0.285-0.899c-0.27-0.33-0.72-0.495-1.35-0.495c-0.405,0-0.645,0.09-0.84,0.194
				c0.045,0.105,0.075,0.24,0.075,0.36c0,0.42-0.315,0.735-0.75,0.735c-0.45,0-0.766-0.315-0.766-0.766c0-0.765,0.84-1.56,2.49-1.56
				c1.005,0,1.74,0.3,2.175,0.81c0.33,0.391,0.495,0.9,0.495,1.485v3.21h1.005v1.08h-2.22v-0.78c-0.525,0.495-1.35,0.9-2.22,0.9
				C72.368,281.744,71.438,281.068,71.438,279.898z M75.743,280.004v-1.05c-0.435-0.12-0.99-0.226-1.575-0.226
				c-0.915,0-1.425,0.436-1.425,1.065c0,0.585,0.436,0.975,1.186,0.975C74.618,280.769,75.248,280.438,75.743,280.004z
				 M73.793,273.734l1.74-2.04c0.21-0.24,0.465-0.391,0.72-0.391c0.36,0,0.66,0.285,0.66,0.69c0,0.24-0.165,0.525-0.479,0.735
				l-2.266,1.425L73.793,273.734z"/>
			<path fill="#222944" d="M79.839,280.544h1.05v-8.79h-1.05v-1.109h2.34v9.899h1.034v1.08h-3.374V280.544z"/>
			<path fill="#222944" d="M85.357,279.898c0-1.185,1.051-1.949,2.535-1.949c0.675,0,1.425,0.149,1.771,0.255v-0.735
				c0-0.375-0.105-0.675-0.285-0.899c-0.271-0.33-0.72-0.495-1.351-0.495c-0.404,0-0.645,0.09-0.84,0.194
				c0.045,0.105,0.075,0.24,0.075,0.36c0,0.42-0.314,0.735-0.75,0.735c-0.45,0-0.765-0.315-0.765-0.766
				c0-0.765,0.84-1.56,2.489-1.56c1.006,0,1.74,0.3,2.176,0.81c0.33,0.391,0.494,0.9,0.494,1.485v3.21h1.006v1.08h-2.221v-0.78
				c-0.524,0.495-1.35,0.9-2.22,0.9C86.288,281.744,85.357,281.068,85.357,279.898z M89.663,280.004v-1.05
				c-0.436-0.12-0.99-0.226-1.575-0.226c-0.915,0-1.425,0.436-1.425,1.065c0,0.585,0.435,0.975,1.185,0.975
				C88.538,280.769,89.168,280.438,89.663,280.004z"/>
			<path fill="#222944" d="M93.759,280.544h1.05v-8.79h-1.05v-1.109h2.34v9.899h1.034v1.08h-3.374V280.544z"/>
			<path fill="#222944" d="M100.703,278.804c0.18,1.23,1.08,1.83,2.34,1.83c0.825,0,1.529-0.255,2.295-0.69l-0.105,1.186
				c-0.675,0.42-1.5,0.615-2.385,0.615c-2.085,0-3.495-1.351-3.495-3.33c0-1.815,1.245-3.375,3.21-3.375
				c1.995,0,3.045,1.425,3.045,3.075c0,0.239-0.029,0.495-0.06,0.689H100.703z M100.703,277.844h3.614
				c-0.06-1.035-0.689-1.74-1.784-1.74C101.663,276.104,100.868,276.674,100.703,277.844z"/>
			<path fill="#222944" d="M112.358,280.544h1.05v-8.79h-1.05v-1.109h2.34v9.899h1.034v1.08h-3.374V280.544z"/>
			<path fill="#222944" d="M117.982,278.398c0-1.814,1.32-3.359,3.375-3.359s3.375,1.53,3.375,3.359
				c0,1.801-1.335,3.346-3.375,3.346C119.287,281.744,117.982,280.214,117.982,278.398z M123.397,278.398
				c0-1.319-0.84-2.265-2.04-2.265c-1.215,0-2.055,0.945-2.055,2.265c0,1.32,0.84,2.25,2.055,2.25
				C122.557,280.648,123.397,279.719,123.397,278.398z"/>
			<path fill="#222944" d="M135.562,283.454h1.245v-2.61c-0.525,0.495-1.141,0.9-2.085,0.9c-1.695,0-3.045-1.365-3.045-3.346
				c0-1.859,1.35-3.359,3.18-3.359c0.825,0,1.5,0.315,2.055,0.765l0.33-0.675h0.84v8.325h1.021v1.109h-3.54V283.454z
				 M136.807,279.794v-3.015c-0.466-0.346-1.065-0.615-1.801-0.615c-1.095,0-2.01,0.84-2.01,2.234c0,1.365,0.87,2.221,1.98,2.221
				C135.712,280.619,136.312,280.273,136.807,279.794z"/>
			<path fill="#222944" d="M141.892,280.889c-0.195-0.359-0.3-0.795-0.3-1.319v-3.301h-1.005v-1.109h2.279v4.125
				c0,0.33,0.061,0.585,0.165,0.779c0.181,0.346,0.48,0.495,0.945,0.495c0.705,0,1.365-0.435,1.935-0.975v-3.315h-1.035v-1.109
				h2.325v5.385h1.005v1.08h-2.25v-1.125c-0.614,0.66-1.425,1.245-2.354,1.245C142.777,281.744,142.222,281.414,141.892,280.889z"/>
			<path fill="#222944" d="M151.747,278.804c0.181,1.23,1.08,1.83,2.34,1.83c0.825,0,1.53-0.255,2.295-0.69l-0.104,1.186
				c-0.675,0.42-1.5,0.615-2.385,0.615c-2.085,0-3.495-1.351-3.495-3.33c0-1.815,1.245-3.375,3.21-3.375
				c1.995,0,3.045,1.425,3.045,3.075c0,0.239-0.03,0.495-0.061,0.689H151.747z M151.747,277.844h3.615
				c-0.061-1.035-0.69-1.74-1.785-1.74C152.707,276.104,151.912,276.674,151.747,277.844z"/>
			<path fill="#222944" d="M163.402,280.544h1.05v-8.79h-1.05v-1.109h2.34v9.899h1.035v1.08h-3.375V280.544z"/>
			<path fill="#222944" d="M170.347,278.804c0.18,1.23,1.08,1.83,2.34,1.83c0.825,0,1.529-0.255,2.295-0.69l-0.105,1.186
				c-0.675,0.42-1.5,0.615-2.385,0.615c-2.085,0-3.495-1.351-3.495-3.33c0-1.815,1.245-3.375,3.21-3.375
				c1.995,0,3.045,1.425,3.045,3.075c0,0.239-0.029,0.495-0.06,0.689H170.347z M170.347,277.844h3.614
				c-0.06-1.035-0.689-1.74-1.784-1.74C171.307,276.104,170.512,276.674,170.347,277.844z"/>
			<path fill="#222944" d="M188.481,281.759c0,0.795-0.21,1.439-0.6,1.905c-0.54,0.659-1.425,0.96-2.445,0.96
				c-1.064,0-1.92-0.33-2.34-0.75c-0.239-0.24-0.345-0.495-0.345-0.78c0-0.45,0.33-0.84,0.81-0.84c0.436,0,0.75,0.314,0.75,0.734
				c0,0.12-0.029,0.256-0.09,0.36c0.226,0.09,0.601,0.21,1.141,0.21c0.614,0,1.154-0.18,1.499-0.615
				c0.211-0.27,0.33-0.659,0.33-1.185v-1.125c-0.51,0.525-1.095,0.915-2.024,0.915c-1.665,0-3.015-1.305-3.015-3.21
				c0-1.785,1.305-3.3,3.119-3.3c0.855,0,1.5,0.33,1.98,0.765v-0.645h2.234v1.109h-1.005V281.759z M183.471,278.324
				c0,1.29,0.825,2.114,1.965,2.114c0.705,0,1.29-0.33,1.755-0.81v-2.835c-0.435-0.36-0.989-0.63-1.725-0.63
				C184.297,276.164,183.471,277.034,183.471,278.324z"/>
			<path fill="#222944" d="M192.607,280.889c-0.195-0.359-0.3-0.795-0.3-1.319v-3.301h-1.005v-1.109h2.279v4.125
				c0,0.33,0.061,0.585,0.165,0.779c0.181,0.346,0.48,0.495,0.945,0.495c0.705,0,1.365-0.435,1.935-0.975v-3.315h-1.035v-1.109
				h2.325v5.385h1.005v1.08h-2.25v-1.125c-0.614,0.66-1.425,1.245-2.354,1.245C193.492,281.744,192.937,281.414,192.607,280.889z"/>
			<path fill="#222944" d="M205.672,277.274c-0.45,0-0.78-0.285-0.78-0.721c0-0.104,0.016-0.225,0.061-0.33
				c-0.255-0.12-0.63-0.194-1.035-0.194c-0.825,0-1.274,0.404-1.274,0.824c0,0.48,0.494,0.676,1.529,0.945
				c1.396,0.36,2.415,0.735,2.415,1.95c0,1.29-1.229,2.01-2.64,2.01c-0.976,0-1.965-0.33-2.4-0.765
				c-0.239-0.24-0.359-0.511-0.359-0.84c0-0.421,0.3-0.78,0.734-0.78c0.42,0,0.766,0.285,0.766,0.75c0,0.12-0.016,0.225-0.061,0.33
				c0.24,0.149,0.72,0.3,1.32,0.3c0.78,0,1.41-0.3,1.41-0.87c0-0.465-0.466-0.689-1.426-0.93c-1.649-0.42-2.534-0.825-2.534-1.98
				c0-0.989,0.885-1.935,2.534-1.935c0.841,0,1.681,0.27,2.101,0.69c0.225,0.225,0.33,0.494,0.33,0.779
				C206.362,276.974,206.077,277.274,205.672,277.274z"/>
			<path fill="#222944" d="M210.037,280.934c-0.12-0.255-0.194-0.585-0.194-0.944v-3.721h-1.216v-1.109h1.216v-1.485l1.289-0.524
				v2.01h1.966v1.109h-1.966v3.495c0,0.21,0.03,0.36,0.091,0.495c0.119,0.21,0.359,0.315,0.734,0.315c0.391,0,0.855-0.181,1.23-0.36
				l-0.136,1.155c-0.375,0.194-0.854,0.375-1.454,0.375C210.877,281.744,210.322,281.489,210.037,280.934z"/>
			<path fill="#222944" d="M215.467,279.898c0-1.185,1.051-1.949,2.535-1.949c0.675,0,1.425,0.149,1.771,0.255v-0.735
				c0-0.375-0.105-0.675-0.285-0.899c-0.271-0.33-0.72-0.495-1.351-0.495c-0.404,0-0.645,0.09-0.84,0.194
				c0.045,0.105,0.075,0.24,0.075,0.36c0,0.42-0.314,0.735-0.75,0.735c-0.45,0-0.765-0.315-0.765-0.766
				c0-0.765,0.84-1.56,2.489-1.56c1.006,0,1.74,0.3,2.176,0.81c0.33,0.391,0.494,0.9,0.494,1.485v3.21h1.006v1.08h-2.221v-0.78
				c-0.524,0.495-1.35,0.9-2.22,0.9C216.397,281.744,215.467,281.068,215.467,279.898z M219.772,280.004v-1.05
				c-0.436-0.12-0.99-0.226-1.575-0.226c-0.915,0-1.425,0.436-1.425,1.065c0,0.585,0.435,0.975,1.185,0.975
				C218.647,280.769,219.277,280.438,219.772,280.004z"/>
			<path fill="#222944" d="M223.582,283.528c0.99-0.765,1.41-1.484,1.425-1.904c-0.48-0.12-0.84-0.51-0.84-1.021
				c0-0.524,0.479-0.989,1.035-0.989c0.6,0,1.109,0.449,1.109,1.305c0,0.87-0.6,2.13-2.37,3.104L223.582,283.528z"/>
			<path fill="#222944" d="M74.153,300.943h1.05v-8.789h-1.05v-1.11h2.34v9.899h1.035v1.08h-3.375V300.943z"/>
			<path fill="#222944" d="M79.778,298.799c0-1.815,1.319-3.36,3.374-3.36c2.056,0,3.375,1.53,3.375,3.36
				c0,1.8-1.335,3.345-3.375,3.345C81.083,302.144,79.778,300.613,79.778,298.799z M85.192,298.799c0-1.32-0.84-2.265-2.04-2.265
				c-1.215,0-2.055,0.944-2.055,2.265s0.84,2.25,2.055,2.25C84.352,301.049,85.192,300.119,85.192,298.799z"/>
			<path fill="#222944" d="M97.358,303.854h1.245v-2.609c-0.525,0.494-1.141,0.899-2.085,0.899c-1.695,0-3.045-1.365-3.045-3.345
				c0-1.86,1.35-3.36,3.18-3.36c0.825,0,1.5,0.315,2.055,0.766l0.33-0.675h0.84v8.324h1.021v1.11h-3.54V303.854z M98.603,300.193
				v-3.015c-0.466-0.345-1.065-0.615-1.801-0.615c-1.095,0-2.01,0.841-2.01,2.235c0,1.365,0.87,2.22,1.98,2.22
				C97.508,301.019,98.108,300.674,98.603,300.193z"/>
			<path fill="#222944" d="M103.687,301.289c-0.194-0.36-0.3-0.795-0.3-1.32v-3.3h-1.005v-1.11h2.28v4.125
				c0,0.33,0.06,0.585,0.165,0.78c0.18,0.345,0.479,0.495,0.944,0.495c0.705,0,1.365-0.436,1.936-0.976v-3.314h-1.035v-1.11h2.325
				v5.385h1.005v1.08h-2.25v-1.125c-0.615,0.66-1.425,1.245-2.355,1.245C104.573,302.144,104.017,301.813,103.687,301.289z"/>
			<path fill="#222944" d="M113.543,299.204c0.18,1.229,1.08,1.83,2.34,1.83c0.825,0,1.529-0.256,2.295-0.69l-0.105,1.185
				c-0.675,0.42-1.5,0.615-2.385,0.615c-2.085,0-3.495-1.35-3.495-3.33c0-1.814,1.245-3.375,3.21-3.375
				c1.995,0,3.045,1.426,3.045,3.075c0,0.24-0.029,0.495-0.06,0.69H113.543z M113.543,298.244h3.614
				c-0.06-1.035-0.689-1.74-1.784-1.74C114.503,296.504,113.708,297.074,113.543,298.244z"/>
			<path fill="#222944" d="M129.232,303.854h1.245v-2.609c-0.525,0.494-1.14,0.899-2.085,0.899c-1.695,0-3.045-1.365-3.045-3.345
				c0-1.86,1.35-3.36,3.18-3.36c0.825,0,1.5,0.315,2.056,0.766l0.329-0.675h0.841v8.324h1.02v1.11h-3.54V303.854z M130.477,300.193
				v-3.015c-0.465-0.345-1.064-0.615-1.8-0.615c-1.095,0-2.01,0.841-2.01,2.235c0,1.365,0.87,2.22,1.979,2.22
				C129.383,301.019,129.982,300.674,130.477,300.193z"/>
			<path fill="#222944" d="M135.562,301.289c-0.194-0.36-0.3-0.795-0.3-1.32v-3.3h-1.005v-1.11h2.28v4.125
				c0,0.33,0.06,0.585,0.165,0.78c0.18,0.345,0.479,0.495,0.944,0.495c0.705,0,1.365-0.436,1.936-0.976v-3.314h-1.035v-1.11h2.325
				v5.385h1.005v1.08h-2.25v-1.125c-0.615,0.66-1.425,1.245-2.355,1.245C136.448,302.144,135.892,301.813,135.562,301.289z"/>
			<path fill="#222944" d="M144.067,300.943h1.051v-4.274h-1.051v-1.11h2.34v5.385h1.035v1.08h-3.375V300.943z M144.682,293.249
				c0-0.51,0.436-0.93,0.945-0.93c0.495,0,0.93,0.42,0.93,0.93c0,0.525-0.45,0.945-0.945,0.945
				C145.102,294.194,144.682,293.774,144.682,293.249z"/>
			<path fill="#222944" d="M151.057,299.204c0.181,1.229,1.08,1.83,2.34,1.83c0.825,0,1.53-0.256,2.295-0.69l-0.104,1.185
				c-0.675,0.42-1.5,0.615-2.385,0.615c-2.085,0-3.495-1.35-3.495-3.33c0-1.814,1.245-3.375,3.21-3.375
				c1.995,0,3.045,1.426,3.045,3.075c0,0.24-0.03,0.495-0.061,0.69H151.057z M151.057,298.244h3.615
				c-0.061-1.035-0.69-1.74-1.785-1.74C152.017,296.504,151.222,297.074,151.057,298.244z"/>
			<path fill="#222944" d="M163.567,296.384c0,0.465-0.375,0.87-0.824,0.87c-0.436,0-0.735-0.271-0.855-0.555
				c-0.479,0.149-1.035,0.689-1.35,1.305v2.939h1.185v1.08h-3.465v-1.08h1.005v-4.274h-1.005v-1.11h2.235v1.471
				c0.51-0.886,1.26-1.591,2.01-1.591C163.208,295.438,163.567,295.874,163.567,296.384z"/>
			<path fill="#222944" d="M166.673,299.204c0.18,1.229,1.08,1.83,2.34,1.83c0.825,0,1.529-0.256,2.295-0.69l-0.105,1.185
				c-0.675,0.42-1.5,0.615-2.385,0.615c-2.085,0-3.495-1.35-3.495-3.33c0-1.814,1.245-3.375,3.21-3.375
				c1.995,0,3.045,1.426,3.045,3.075c0,0.24-0.029,0.495-0.06,0.69H166.673z M166.673,298.244h3.614
				c-0.06-1.035-0.689-1.74-1.784-1.74C167.633,296.504,166.838,297.074,166.673,298.244z"/>
			<path fill="#222944" d="M173.182,303.929c0.99-0.765,1.41-1.485,1.425-1.905c-0.479-0.12-0.84-0.51-0.84-1.02
				c0-0.525,0.48-0.99,1.035-0.99c0.601,0,1.11,0.45,1.11,1.305c0,0.87-0.601,2.13-2.37,3.105L173.182,303.929z"/>
			<path fill="#222944" d="M182.753,300.943h1.05v-8.789h-1.05v-1.11h2.34v9.899h1.035v1.08h-3.375V300.943z"/>
			<path fill="#222944" d="M188.378,298.799c0-1.815,1.319-3.36,3.374-3.36c2.056,0,3.375,1.53,3.375,3.36
				c0,1.8-1.335,3.345-3.375,3.345C189.682,302.144,188.378,300.613,188.378,298.799z M193.792,298.799
				c0-1.32-0.84-2.265-2.04-2.265c-1.215,0-2.055,0.944-2.055,2.265s0.84,2.25,2.055,2.25
				C192.952,301.049,193.792,300.119,193.792,298.799z"/>
			<path fill="#222944" d="M40.621,324.254h1.245v-2.61c-0.525,0.495-1.141,0.9-2.085,0.9c-1.695,0-3.045-1.365-3.045-3.346
				c0-1.859,1.35-3.359,3.18-3.359c0.825,0,1.5,0.315,2.055,0.765l0.33-0.675h0.84v8.325h1.021v1.109h-3.54V324.254z
				 M41.866,320.594v-3.015c-0.466-0.346-1.065-0.615-1.801-0.615c-1.095,0-2.01,0.84-2.01,2.234c0,1.365,0.87,2.221,1.98,2.221
				C40.77,321.419,41.371,321.073,41.866,320.594z"/>
			<path fill="#222944" d="M46.951,321.688c-0.195-0.359-0.3-0.795-0.3-1.319v-3.301h-1.005v-1.109h2.279v4.125
				c0,0.33,0.061,0.585,0.165,0.779c0.181,0.346,0.48,0.495,0.945,0.495c0.705,0,1.365-0.435,1.935-0.975v-3.315h-1.035v-1.109
				h2.325v5.385h1.005v1.08h-2.25v-1.125c-0.614,0.66-1.425,1.245-2.354,1.245C47.836,322.544,47.281,322.214,46.951,321.688z"/>
			<path fill="#222944" d="M56.805,319.604c0.181,1.23,1.08,1.83,2.34,1.83c0.825,0,1.53-0.255,2.295-0.69l-0.104,1.186
				c-0.675,0.42-1.5,0.615-2.385,0.615c-2.085,0-3.495-1.351-3.495-3.33c0-1.815,1.245-3.375,3.21-3.375
				c1.995,0,3.045,1.425,3.045,3.075c0,0.239-0.03,0.495-0.061,0.689H56.805z M56.805,318.644h3.615
				c-0.061-1.035-0.69-1.74-1.785-1.74C57.765,316.903,56.97,317.474,56.805,318.644z"/>
			<path fill="#222944" d="M68.461,321.344h1.05v-8.79h-1.05v-1.109h2.34v9.899h1.035v1.08h-3.375V321.344z"/>
			<path fill="#222944" d="M75.405,319.604c0.181,1.23,1.08,1.83,2.34,1.83c0.825,0,1.53-0.255,2.295-0.69l-0.104,1.186
				c-0.675,0.42-1.5,0.615-2.385,0.615c-2.085,0-3.495-1.351-3.495-3.33c0-1.815,1.245-3.375,3.21-3.375
				c1.995,0,3.045,1.425,3.045,3.075c0,0.239-0.03,0.495-0.061,0.689H75.405z M75.405,318.644h3.615
				c-0.061-1.035-0.69-1.74-1.785-1.74C76.365,316.903,75.57,317.474,75.405,318.644z"/>
			<path fill="#222944" d="M91.095,324.254h1.245v-2.61c-0.525,0.495-1.141,0.9-2.085,0.9c-1.695,0-3.045-1.365-3.045-3.346
				c0-1.859,1.35-3.359,3.18-3.359c0.825,0,1.5,0.315,2.055,0.765l0.33-0.675h0.84v8.325h1.021v1.109h-3.54V324.254z
				 M92.341,320.594v-3.015c-0.466-0.346-1.065-0.615-1.801-0.615c-1.095,0-2.01,0.84-2.01,2.234c0,1.365,0.87,2.221,1.98,2.221
				C91.245,321.419,91.845,321.073,92.341,320.594z"/>
			<path fill="#222944" d="M97.426,321.688c-0.195-0.359-0.3-0.795-0.3-1.319v-3.301h-1.005v-1.109H98.4v4.125
				c0,0.33,0.061,0.585,0.165,0.779c0.181,0.346,0.48,0.495,0.945,0.495c0.705,0,1.365-0.435,1.935-0.975v-3.315h-1.035v-1.109
				h2.325v5.385h1.005v1.08h-2.25v-1.125c-0.614,0.66-1.425,1.245-2.354,1.245C98.31,322.544,97.756,322.214,97.426,321.688z"/>
			<path fill="#222944" d="M107.28,319.604c0.181,1.23,1.08,1.83,2.34,1.83c0.825,0,1.53-0.255,2.295-0.69l-0.104,1.186
				c-0.675,0.42-1.5,0.615-2.385,0.615c-2.085,0-3.495-1.351-3.495-3.33c0-1.815,1.245-3.375,3.21-3.375
				c1.995,0,3.045,1.425,3.045,3.075c0,0.239-0.03,0.495-0.061,0.689H107.28z M107.28,318.644h3.615
				c-0.061-1.035-0.69-1.74-1.785-1.74C108.24,316.903,107.445,317.474,107.28,318.644z"/>
			<path fill="#222944" d="M114.525,319.229c0-1.845,1.305-3.39,3.15-3.39c0.81,0,1.484,0.3,1.92,0.705v-3.99h-1.11v-1.109h2.4
				v9.899h1.005v1.08h-2.28v-0.825c-0.51,0.54-1.155,0.945-2.055,0.945C115.845,322.544,114.525,321.193,114.525,319.229z
				 M119.595,320.594v-3c-0.466-0.36-1.021-0.63-1.771-0.63c-1.109,0-1.965,0.885-1.979,2.25c0,1.35,0.854,2.205,1.949,2.205
				C118.53,321.419,119.115,321.073,119.595,320.594z"/>
			<path fill="#222944" d="M123.945,320.698c0-1.185,1.05-1.949,2.535-1.949c0.675,0,1.425,0.149,1.77,0.255v-0.735
				c0-0.375-0.104-0.675-0.285-0.899c-0.27-0.33-0.72-0.495-1.35-0.495c-0.405,0-0.645,0.09-0.84,0.194
				c0.045,0.105,0.075,0.24,0.075,0.36c0,0.42-0.315,0.735-0.75,0.735c-0.45,0-0.766-0.315-0.766-0.766c0-0.765,0.84-1.56,2.49-1.56
				c1.005,0,1.74,0.3,2.175,0.81c0.33,0.391,0.495,0.9,0.495,1.485v3.21h1.005v1.08h-2.22v-0.78c-0.525,0.495-1.35,0.9-2.22,0.9
				C124.875,322.544,123.945,321.868,123.945,320.698z M128.25,320.804v-1.05c-0.435-0.12-0.99-0.226-1.575-0.226
				c-0.915,0-1.425,0.436-1.425,1.065c0,0.585,0.436,0.975,1.186,0.975C127.125,321.568,127.755,321.238,128.25,320.804z"/>
			<path fill="#222944" d="M138.915,321.778l-0.33,0.66h-0.84v-9.885h-1.02v-1.109h2.31v5.31c0.51-0.51,1.125-0.915,2.07-0.915
				c1.694,0,3.06,1.365,3.06,3.345c0,1.86-1.35,3.36-3.194,3.36C140.145,322.544,139.47,322.243,138.915,321.778z M142.83,319.184
				c0-1.365-0.854-2.22-1.979-2.22c-0.735,0-1.335,0.345-1.815,0.825v3.015c0.465,0.345,1.05,0.615,1.785,0.615
				C141.915,321.419,142.83,320.579,142.83,319.184z"/>
			<path fill="#222944" d="M146.535,321.344h1.05v-4.275h-1.05v-1.109h2.34v5.385h1.035v1.08h-3.375V321.344z M147.15,313.649
				c0-0.511,0.435-0.931,0.944-0.931c0.495,0,0.931,0.42,0.931,0.931c0,0.524-0.45,0.944-0.945,0.944
				C147.57,314.594,147.15,314.174,147.15,313.649z"/>
			<path fill="#222944" d="M153.525,319.604c0.18,1.23,1.08,1.83,2.34,1.83c0.825,0,1.529-0.255,2.295-0.69l-0.105,1.186
				c-0.675,0.42-1.5,0.615-2.385,0.615c-2.085,0-3.495-1.351-3.495-3.33c0-1.815,1.245-3.375,3.21-3.375
				c1.995,0,3.045,1.425,3.045,3.075c0,0.239-0.029,0.495-0.06,0.689H153.525z M153.525,318.644h3.614
				c-0.06-1.035-0.689-1.74-1.784-1.74C154.485,316.903,153.69,317.474,153.525,318.644z"/>
			<path fill="#222944" d="M162.96,317.084c0.615-0.66,1.425-1.245,2.355-1.245c0.81,0,1.364,0.315,1.694,0.825
				c0.21,0.359,0.33,0.81,0.33,1.35v3.33h1.005v1.08h-3.255v-1.08h0.96v-3.045c0-0.315-0.045-0.57-0.149-0.765
				c-0.181-0.346-0.495-0.511-0.96-0.511c-0.705,0-1.381,0.42-1.936,0.976v3.345h0.96v1.08h-3.239v-1.08h1.005v-4.275h-1.005v-1.109
				h2.234V317.084z"/>
			<path fill="#222944" d="M176.054,325.408c-0.72,0-1.229-0.404-1.229-0.915c0-0.465,0.315-0.734,0.705-0.734
				c0.375,0,0.615,0.27,0.705,0.54c0.21-0.075,0.42-0.24,0.66-0.585c0.119-0.195,0.255-0.436,0.404-0.735l0.436-0.9l-2.385-5.01
				h-0.841v-1.109h3.15v1.064h-0.99c0,0,1.695,3.84,1.68,3.84l1.71-3.84h-1.034v-1.064h3.119v1.109h-0.84l-3.045,6.495
				c-0.165,0.33-0.33,0.615-0.51,0.87C177.27,325.063,176.715,325.408,176.054,325.408z"/>
			<path fill="#222944" d="M188.445,321.344h1.05v-8.79h-1.05v-1.109h2.34v9.899h1.034v1.08h-3.374V321.344z"/>
			<path fill="#222944" d="M194.069,319.198c0-1.814,1.32-3.359,3.375-3.359s3.375,1.53,3.375,3.359
				c0,1.801-1.335,3.346-3.375,3.346C195.374,322.544,194.069,321.014,194.069,319.198z M199.484,319.198
				c0-1.319-0.84-2.265-2.04-2.265c-1.215,0-2.055,0.945-2.055,2.265c0,1.32,0.84,2.25,2.055,2.25
				C198.644,321.448,199.484,320.519,199.484,319.198z"/>
			<path fill="#222944" d="M211.649,324.254h1.245v-2.61c-0.525,0.495-1.14,0.9-2.085,0.9c-1.695,0-3.045-1.365-3.045-3.346
				c0-1.859,1.35-3.359,3.18-3.359c0.825,0,1.5,0.315,2.056,0.765l0.329-0.675h0.841v8.325h1.02v1.109h-3.54V324.254z
				 M212.894,320.594v-3.015c-0.465-0.346-1.064-0.615-1.8-0.615c-1.095,0-2.01,0.84-2.01,2.234c0,1.365,0.87,2.221,1.979,2.221
				C211.8,321.419,212.399,321.073,212.894,320.594z"/>
			<path fill="#222944" d="M217.979,321.688c-0.195-0.359-0.3-0.795-0.3-1.319v-3.301h-1.005v-1.109h2.279v4.125
				c0,0.33,0.061,0.585,0.165,0.779c0.181,0.346,0.48,0.495,0.945,0.495c0.705,0,1.365-0.435,1.935-0.975v-3.315h-1.035v-1.109
				h2.325v5.385h1.005v1.08h-2.25v-1.125c-0.614,0.66-1.425,1.245-2.354,1.245C218.864,322.544,218.309,322.214,217.979,321.688z"/>
			<path fill="#222944" d="M227.834,319.604c0.181,1.23,1.08,1.83,2.34,1.83c0.825,0,1.53-0.255,2.295-0.69l-0.104,1.186
				c-0.675,0.42-1.5,0.615-2.385,0.615c-2.085,0-3.495-1.351-3.495-3.33c0-1.815,1.245-3.375,3.21-3.375
				c1.995,0,3.045,1.425,3.045,3.075c0,0.239-0.03,0.495-0.061,0.689H227.834z M227.834,318.644h3.615
				c-0.061-1.035-0.69-1.74-1.785-1.74C228.794,316.903,227.999,317.474,227.834,318.644z"/>
			<path fill="#222944" d="M62.033,333.824c0-0.54,0.42-0.975,0.96-0.975s0.976,0.435,0.976,0.975s-0.436,0.99-0.976,0.99
				S62.033,334.364,62.033,333.824z M62.648,335.805h0.705l0.465,7.02h-1.65L62.648,335.805z"/>
			<path fill="#222944" d="M66.623,341.744h1.05v-8.79h-1.05v-1.109h2.34v9.899h1.035v1.08h-3.375V341.744z"/>
			<path fill="#222944" d="M72.142,341.099c0-1.185,1.051-1.949,2.535-1.949c0.675,0,1.425,0.149,1.771,0.255v-0.735
				c0-0.375-0.105-0.675-0.285-0.899c-0.271-0.33-0.72-0.495-1.351-0.495c-0.404,0-0.645,0.09-0.84,0.194
				c0.045,0.105,0.075,0.24,0.075,0.36c0,0.42-0.314,0.735-0.75,0.735c-0.45,0-0.765-0.315-0.765-0.766
				c0-0.765,0.84-1.56,2.489-1.56c1.006,0,1.74,0.3,2.176,0.81c0.33,0.391,0.494,0.9,0.494,1.485v3.21h1.006v1.08h-2.221v-0.78
				c-0.524,0.495-1.35,0.9-2.22,0.9C73.073,342.944,72.142,342.269,72.142,341.099z M76.448,341.204v-1.05
				c-0.436-0.12-0.99-0.226-1.575-0.226c-0.915,0-1.425,0.436-1.425,1.065c0,0.585,0.435,0.975,1.185,0.975
				C75.323,341.969,75.953,341.639,76.448,341.204z"/>
			<path fill="#222944" d="M85.673,337.469h-0.81v-1.109h3.135v1.064h-0.99l1.755,3.885l1.755-3.885h-1.034v-1.064h3.135v1.109
				h-0.811l-2.654,5.535h-0.825L85.673,337.469z"/>
			<path fill="#222944" d="M94.283,341.099c0-1.185,1.05-1.949,2.535-1.949c0.675,0,1.425,0.149,1.77,0.255v-0.735
				c0-0.375-0.104-0.675-0.285-0.899c-0.27-0.33-0.72-0.495-1.35-0.495c-0.405,0-0.645,0.09-0.84,0.194
				c0.045,0.105,0.075,0.24,0.075,0.36c0,0.42-0.315,0.735-0.75,0.735c-0.45,0-0.766-0.315-0.766-0.766c0-0.765,0.84-1.56,2.49-1.56
				c1.005,0,1.74,0.3,2.175,0.81c0.33,0.391,0.495,0.9,0.495,1.485v3.21h1.005v1.08h-2.22v-0.78c-0.525,0.495-1.35,0.9-2.22,0.9
				C95.213,342.944,94.283,342.269,94.283,341.099z M98.588,341.204v-1.05c-0.435-0.12-0.99-0.226-1.575-0.226
				c-0.915,0-1.425,0.436-1.425,1.065c0,0.585,0.436,0.975,1.186,0.975C97.463,341.969,98.093,341.639,98.588,341.204z"/>
			<path fill="#222944" d="M107.527,341.099c0-1.185,1.051-1.949,2.535-1.949c0.675,0,1.425,0.149,1.771,0.255v-0.735
				c0-0.375-0.105-0.675-0.285-0.899c-0.271-0.33-0.72-0.495-1.351-0.495c-0.404,0-0.645,0.09-0.84,0.194
				c0.045,0.105,0.075,0.24,0.075,0.36c0,0.42-0.314,0.735-0.75,0.735c-0.45,0-0.765-0.315-0.765-0.766
				c0-0.765,0.84-1.56,2.489-1.56c1.006,0,1.74,0.3,2.176,0.81c0.33,0.391,0.494,0.9,0.494,1.485v3.21h1.006v1.08h-2.221v-0.78
				c-0.524,0.495-1.35,0.9-2.22,0.9C108.458,342.944,107.527,342.269,107.527,341.099z M111.833,341.204v-1.05
				c-0.436-0.12-0.99-0.226-1.575-0.226c-0.915,0-1.425,0.436-1.425,1.065c0,0.585,0.435,0.975,1.185,0.975
				C110.708,341.969,111.338,341.639,111.833,341.204z"/>
			<path fill="#222944" d="M125.288,338.475c-0.45,0-0.78-0.285-0.78-0.721c0-0.104,0.015-0.225,0.06-0.33
				c-0.255-0.12-0.63-0.194-1.034-0.194c-0.825,0-1.275,0.404-1.275,0.824c0,0.48,0.495,0.676,1.53,0.945
				c1.395,0.36,2.415,0.735,2.415,1.95c0,1.29-1.23,2.01-2.641,2.01c-0.975,0-1.965-0.33-2.399-0.765
				c-0.24-0.24-0.36-0.511-0.36-0.84c0-0.421,0.3-0.78,0.735-0.78c0.42,0,0.765,0.285,0.765,0.75c0,0.12-0.015,0.225-0.06,0.33
				c0.239,0.149,0.72,0.3,1.319,0.3c0.78,0,1.41-0.3,1.41-0.87c0-0.465-0.465-0.689-1.425-0.93c-1.65-0.42-2.535-0.825-2.535-1.98
				c0-0.989,0.885-1.935,2.535-1.935c0.84,0,1.68,0.27,2.1,0.69c0.226,0.225,0.33,0.494,0.33,0.779
				C125.977,338.174,125.692,338.475,125.288,338.475z"/>
			<path fill="#222944" d="M128.588,339.599c0-1.814,1.32-3.359,3.375-3.359s3.375,1.53,3.375,3.359
				c0,1.801-1.335,3.346-3.375,3.346C129.892,342.944,128.588,341.414,128.588,339.599z M134.003,339.599
				c0-1.319-0.84-2.265-2.04-2.265c-1.215,0-2.055,0.945-2.055,2.265c0,1.32,0.84,2.25,2.055,2.25
				C133.163,341.849,134.003,340.919,134.003,339.599z"/>
			<path fill="#222944" d="M142.987,337.185c0,0.465-0.375,0.869-0.824,0.869c-0.436,0-0.735-0.27-0.855-0.555
				c-0.479,0.15-1.035,0.69-1.35,1.305v2.94h1.185v1.08h-3.465v-1.08h1.005v-4.275h-1.005v-1.109h2.235v1.47
				c0.51-0.885,1.26-1.59,2.01-1.59C142.628,336.239,142.987,336.674,142.987,337.185z"/>
			<path fill="#222944" d="M144.802,344.684h1.005v-7.215h-1.005v-1.109h2.235v0.84c0.54-0.555,1.14-0.96,2.069-0.96
				c1.695,0,3.016,1.35,3.016,3.314c0,1.86-1.306,3.391-3.136,3.391c-0.734,0-1.38-0.271-1.89-0.69v2.43h1.155v1.08h-3.45V344.684z
				 M150.788,339.569c0-1.351-0.825-2.205-1.92-2.205c-0.735,0-1.29,0.345-1.771,0.825v3.015c0.45,0.36,1.021,0.615,1.74,0.615
				C149.932,341.819,150.788,340.934,150.788,339.569z"/>
			<path fill="#222944" d="M159.787,337.185c0,0.465-0.375,0.869-0.824,0.869c-0.436,0-0.735-0.27-0.855-0.555
				c-0.479,0.15-1.035,0.69-1.35,1.305v2.94h1.185v1.08h-3.465v-1.08h1.005v-4.275h-1.005v-1.109h2.235v1.47
				c0.51-0.885,1.26-1.59,2.01-1.59C159.427,336.239,159.787,336.674,159.787,337.185z"/>
			<path fill="#222944" d="M162.892,340.004c0.181,1.23,1.08,1.83,2.34,1.83c0.825,0,1.53-0.255,2.295-0.69l-0.104,1.186
				c-0.675,0.42-1.5,0.615-2.385,0.615c-2.085,0-3.495-1.351-3.495-3.33c0-1.815,1.245-3.375,3.21-3.375
				c1.995,0,3.045,1.425,3.045,3.075c0,0.239-0.03,0.495-0.061,0.689H162.892z M162.892,339.044h3.615
				c-0.061-1.035-0.69-1.74-1.785-1.74C163.852,337.304,163.057,337.874,162.892,339.044z"/>
			<path fill="#222944" d="M172.328,337.484c0.614-0.66,1.425-1.245,2.354-1.245c0.81,0,1.365,0.315,1.695,0.825
				c0.21,0.359,0.33,0.81,0.33,1.35v3.33h1.005v1.08h-3.255v-1.08h0.96v-3.045c0-0.315-0.045-0.57-0.15-0.765
				c-0.18-0.346-0.495-0.511-0.96-0.511c-0.705,0-1.38,0.42-1.935,0.976v3.345h0.96v1.08h-3.24v-1.08h1.005v-4.275h-1.005v-1.109
				h2.235V337.484z"/>
			<path fill="#222944" d="M179.708,339.629c0-1.845,1.305-3.39,3.149-3.39c0.811,0,1.485,0.3,1.92,0.705v-3.99h-1.109v-1.109h2.399
				v9.899h1.005v1.08h-2.28v-0.825c-0.51,0.54-1.154,0.945-2.055,0.945C181.027,342.944,179.708,341.594,179.708,339.629z
				 M184.777,340.994v-3c-0.465-0.36-1.02-0.63-1.77-0.63c-1.11,0-1.965,0.885-1.98,2.25c0,1.35,0.855,2.205,1.95,2.205
				C183.713,341.819,184.298,341.474,184.777,340.994z"/>
			<path fill="#222944" d="M190.552,340.004c0.18,1.23,1.08,1.83,2.34,1.83c0.825,0,1.529-0.255,2.295-0.69l-0.105,1.186
				c-0.675,0.42-1.5,0.615-2.385,0.615c-2.085,0-3.495-1.351-3.495-3.33c0-1.815,1.245-3.375,3.21-3.375
				c1.995,0,3.045,1.425,3.045,3.075c0,0.239-0.029,0.495-0.06,0.689H190.552z M190.552,339.044h3.614
				c-0.06-1.035-0.689-1.74-1.784-1.74C191.512,337.304,190.718,337.874,190.552,339.044z"/>
			<path fill="#222944" d="M203.062,337.185c0,0.465-0.375,0.869-0.825,0.869c-0.435,0-0.735-0.27-0.854-0.555
				c-0.48,0.15-1.035,0.69-1.351,1.305v2.94h1.186v1.08h-3.465v-1.08h1.005v-4.275h-1.005v-1.109h2.234v1.47
				c0.51-0.885,1.26-1.59,2.01-1.59C202.702,336.239,203.062,336.674,203.062,337.185z"/>
			<path fill="#222944" d="M205.463,341.969c0-0.54,0.42-0.989,0.96-0.989s0.975,0.449,0.975,0.989s-0.435,0.976-0.975,0.976
				S205.463,342.509,205.463,341.969z M205.597,332.97h1.649l-0.465,7.02h-0.705L205.597,332.97z"/>
		</g>
	</g>
	<rect x="8.991" y="69.883" fill="none" stroke="#222944" stroke-miterlimit="10" width="253.08" height="301.439"/>
	<g>
		<g>
			<path fill="#222944" d="M58.016,160.114c0.385-1.423,0.875-2.896,1.473-4.417c0.596-1.52,1.231-3.031,1.905-4.532
				c0.673-1.501,1.356-2.964,2.05-4.388c0.692-1.424,1.347-2.771,1.963-4.042c-1.81,1.117-3.629,2.464-5.456,4.042
				c-1.829,1.579-3.609,3.33-5.341,5.254c-1.732,1.925-3.369,4.003-4.908,6.236c-1.54,2.232-2.916,4.552-4.128,6.957
				c-1.213,2.406-2.204,4.879-2.974,7.42c-0.771,2.54-1.252,5.1-1.443,7.679c-0.193,0.423-0.425,0.645-0.693,0.664
				c-0.27,0.019-0.577-0.01-0.924-0.087c-0.886-0.23-1.462-0.876-1.732-1.934c-0.269-1.06-0.346-2.29-0.23-3.695
				s0.356-2.858,0.722-4.359s0.722-2.829,1.068-3.984c0.962-3.079,2.011-5.947,3.146-8.603c1.135-2.656,2.318-5.254,3.551-7.795
				c1.231-2.541,2.473-5.081,3.725-7.622c1.25-2.541,2.473-5.254,3.666-8.141c0.231-0.231,0.625-0.26,1.184-0.086
				c0.558,0.173,1.126,0.453,1.703,0.837c0.578,0.385,1.098,0.837,1.56,1.357s0.692,1.011,0.692,1.473c0,0.5-0.23,1.241-0.692,2.223
				s-1.011,2.06-1.646,3.233c-0.636,1.175-1.29,2.387-1.964,3.638c-0.674,1.251-1.222,2.396-1.646,3.436
				c2.348-2.541,4.715-4.966,7.103-7.275c2.386-2.31,4.965-4.33,7.736-6.062c0.654-0.346,1.279-0.423,1.877-0.231
				c0.597,0.193,1.087,0.548,1.473,1.068c0.384,0.52,0.653,1.136,0.808,1.848c0.153,0.712,0.116,1.396-0.115,2.049
				c-0.309,0.732-0.692,1.666-1.154,2.801c-0.462,1.136-0.944,2.319-1.443,3.551c-0.501,1.232-0.982,2.425-1.444,3.58
				s-0.828,2.079-1.097,2.771c1.192-1.539,2.675-3.175,4.446-4.908c1.77-1.732,3.579-3.396,5.427-4.994
				c1.848-1.597,3.618-3.061,5.312-4.388c1.693-1.328,3.098-2.376,4.215-3.147c0.538-0.384,1.126-0.346,1.761,0.116
				c0.636,0.462,1.184,1.068,1.646,1.818c0.462,0.751,0.76,1.511,0.896,2.281c0.134,0.771,0.009,1.271-0.376,1.501
				c-1.848,3.157-3.474,6.083-4.879,8.776c-1.405,2.694-2.598,5.389-3.579,8.083c-0.981,2.695-1.714,5.466-2.194,8.314
				c-0.481,2.85-0.722,5.986-0.722,9.412c0,0.192-0.097,0.317-0.289,0.375s-0.347,0.087-0.462,0.087
				c-0.654-0.039-1.203-0.136-1.646-0.289c-0.442-0.154-0.837-0.366-1.184-0.635c-1.154-0.924-1.818-2.31-1.992-4.157
				c-0.173-1.848-0.02-3.906,0.462-6.179c0.481-2.271,1.184-4.656,2.107-7.159c0.924-2.501,1.915-4.879,2.974-7.13
				c1.059-2.252,2.088-4.263,3.089-6.034c1.001-1.77,1.79-3.079,2.368-3.926c-1.732,1.039-3.571,2.435-5.515,4.186
				c-1.944,1.752-3.868,3.628-5.773,5.629c-1.905,2.002-3.716,4.042-5.428,6.12c-1.713,2.079-3.167,3.946-4.359,5.601
				c-0.385,0.154-0.857,0.164-1.414,0.028c-0.559-0.135-1.098-0.395-1.617-0.779s-0.943-0.866-1.271-1.443
				C58.064,161.558,57.939,160.884,58.016,160.114z"/>
			<path fill="#222944" d="M100.858,164.732l0.693-0.692h0.058v0.115c0.076,0.886,0,1.55-0.231,1.992
				c-0.23,0.443-0.346,0.684-0.346,0.722c-0.386,0.577-0.905,1.319-1.56,2.223c-0.655,0.905-1.338,1.829-2.05,2.771
				c-0.713,0.944-1.396,1.811-2.05,2.599c-0.654,0.789-1.174,1.356-1.559,1.703c-0.462,0.54-0.963,1.039-1.501,1.501
				c-0.193,0.153-0.453,0.289-0.779,0.404c-0.328,0.115-0.664,0.202-1.011,0.26s-0.684,0.067-1.011,0.029
				c-0.327-0.039-0.587-0.136-0.779-0.289c-0.655-0.424-1.164-0.934-1.53-1.53c-0.365-0.596-0.548-1.241-0.548-1.934
				c-0.116-2.117,0.067-4.282,0.548-6.496c0.482-2.213,1.049-4.224,1.703-6.033c0.192-0.539,0.462-1.097,0.809-1.674
				c0.347-0.347,0.751-0.442,1.213-0.289c0.462,0.154,0.875,0.472,1.241,0.953c0.365,0.481,0.635,1.068,0.809,1.761
				c0.173,0.693,0.144,1.385-0.087,2.079c-0.193,0.655-0.366,1.28-0.52,1.876c-0.154,0.598-0.328,1.223-0.52,1.877
				c-0.078,0.309-0.202,0.751-0.376,1.328c-0.173,0.577-0.355,1.184-0.548,1.818c-0.193,0.636-0.366,1.241-0.52,1.819
				c-0.154,0.577-0.251,1.02-0.289,1.328c-0.077,0.577,0.077,0.731,0.462,0.462s0.904-0.731,1.559-1.386
				c1.578-1.617,3.079-3.186,4.504-4.706C98.067,167.803,99.472,166.272,100.858,164.732z M92.775,157.805
				c-0.271,0.27-0.462,0.27-0.578,0c-0.5-0.77-0.828-1.578-0.981-2.425c-0.154-0.846-0.077-1.693,0.231-2.541
				c0.153-0.5,0.49-0.914,1.011-1.241c0.52-0.327,0.99-0.433,1.414-0.318c0.231,0.078,0.48,0.202,0.751,0.375
				c0.269,0.173,0.441,0.375,0.52,0.606c0.269,1.039,0.124,2.041-0.434,3.002C94.151,156.227,93.506,157.074,92.775,157.805z"/>
			<path fill="#222944" d="M121.181,164.56c-1.616,1.81-3.128,3.638-4.532,5.485c-1.405,1.848-2.781,3.695-4.128,5.543
				c-0.309,0.27-0.578,0.385-0.809,0.347c-0.231-0.038-0.434-0.153-0.606-0.347c-0.173-0.192-0.308-0.434-0.404-0.722
				c-0.096-0.289-0.163-0.549-0.202-0.779c-0.076-0.693-0.076-1.453,0-2.281c0.078-0.827,0.154-1.356,0.231-1.588
				c0.154-0.653,0.356-1.404,0.606-2.252c0.25-0.846,0.51-1.703,0.779-2.569c0.269-0.865,0.528-1.712,0.779-2.54
				c0.25-0.827,0.49-1.568,0.722-2.223c0.153-0.462,0.423-0.741,0.809-0.837c0.384-0.096,0.76-0.038,1.126,0.173
				c0.365,0.212,0.653,0.568,0.866,1.068c0.211,0.501,0.239,1.136,0.086,1.906c-0.154,0.771-0.327,1.54-0.52,2.31
				c-0.193,0.771-0.366,1.521-0.52,2.251c1.116-1.231,2.223-2.511,3.32-3.839c1.097-1.328,2.165-2.646,3.204-3.955
				c0.5-0.347,1.02-0.423,1.559-0.231c0.539,0.193,0.943,0.616,1.213,1.27c0.308,0.693,0.442,1.406,0.404,2.136
				c-0.039,0.732-0.136,1.424-0.289,2.079c1.116-1.155,2.426-2.29,3.927-3.406c1.501-1.116,2.964-1.963,4.388-2.541
				c0.693-0.269,1.328-0.308,1.905-0.116c0.578,0.193,1.077,0.549,1.502,1.068c0.423,0.52,0.74,1.155,0.952,1.905
				c0.211,0.75,0.298,1.53,0.26,2.338c-0.462,0.963-0.904,1.896-1.328,2.801s-0.808,1.8-1.154,2.685
				c-0.347,0.886-0.626,1.771-0.837,2.656c-0.213,0.886-0.299,1.79-0.261,2.714c0.27,0.192,0.723,0.077,1.357-0.347
				c0.635-0.423,1.356-0.981,2.165-1.675c0.809-0.692,1.646-1.423,2.512-2.193c0.866-0.77,1.626-1.424,2.28-1.964
				c1.886-1.501,2.925-2.136,3.118-1.905c0.192,0.231-0.347,1.098-1.616,2.599c-1.232,1.463-2.532,2.906-3.897,4.33
				c-1.367,1.425-2.82,2.656-4.359,3.695c-0.501,0.347-1.078,0.529-1.732,0.549c-0.655,0.019-1.299-0.097-1.935-0.347
				c-0.635-0.251-1.184-0.635-1.646-1.154s-0.731-1.164-0.808-1.935c-0.116-1.001-0.049-2.059,0.202-3.176
				c0.249-1.116,0.586-2.223,1.01-3.32c0.424-1.097,0.904-2.165,1.443-3.204s1.04-2.001,1.502-2.887
				c-0.116-0.308-0.549-0.202-1.3,0.318c-0.75,0.52-1.665,1.241-2.742,2.165c-1.078,0.924-2.214,1.963-3.406,3.118
				c-1.194,1.154-2.291,2.214-3.292,3.176c-0.424,0.385-0.741,0.626-0.952,0.722c-0.212,0.097-0.396,0.145-0.549,0.145
				c-0.385,0-0.635-0.318-0.75-0.953c-0.116-0.635-0.165-1.366-0.145-2.194c0.019-0.827,0.086-1.636,0.202-2.425
				C121.009,165.417,121.104,164.868,121.181,164.56z"/>
			<path fill="#222944" d="M150.686,173.394c-0.347,0.27-0.731,0.568-1.155,0.896s-0.886,0.616-1.386,0.865
				c-0.5,0.251-1.03,0.443-1.588,0.578s-1.146,0.145-1.761,0.028c-0.462-0.076-0.886-0.239-1.271-0.49
				c-0.384-0.25-0.75-0.549-1.097-0.896c-0.347-0.346-0.558-0.846-0.635-1.501c-0.077-0.654-0.096-1.174-0.058-1.559
				c0.192-1.001,0.462-2.059,0.808-3.176c0.347-1.116,0.771-2.213,1.271-3.291c0.847-1.771,1.925-3.349,3.233-4.735
				s2.887-2.271,4.734-2.656c0.615-0.153,1.261-0.182,1.935-0.086c0.673,0.096,1.26,0.317,1.761,0.664
				c0.5,0.346,0.885,0.779,1.155,1.299c0.269,0.52,0.326,1.088,0.173,1.703c-0.077,0.231-0.164,0.462-0.26,0.693
				c-0.097,0.231-0.212,0.424-0.347,0.578c-0.135,0.154-0.26,0.241-0.375,0.26c-0.115,0.02-0.231-0.086-0.347-0.317
				c-0.039-0.116-0.087-0.279-0.145-0.491c-0.058-0.211-0.144-0.423-0.26-0.635c-0.115-0.211-0.279-0.404-0.49-0.578
				c-0.212-0.173-0.491-0.26-0.838-0.26c-0.731,0-1.559,0.453-2.482,1.357c-0.924,0.905-1.81,1.963-2.656,3.175
				c-0.847,1.213-1.578,2.425-2.193,3.638c-0.616,1.213-1.002,2.127-1.155,2.742c-0.23,1.002-0.212,1.53,0.058,1.588
				s0.693-0.153,1.271-0.635c0.577-0.48,1.231-1.145,1.963-1.992c0.731-0.846,1.424-1.684,2.079-2.512
				c0.653-0.827,1.222-1.559,1.703-2.193c0.48-0.636,0.74-0.972,0.779-1.011c0.5-0.385,1.001-0.558,1.501-0.52
				s0.934,0.222,1.3,0.548c0.365,0.328,0.615,0.732,0.75,1.213c0.135,0.481,0.087,0.973-0.145,1.473
				c-0.27,0.616-0.626,1.348-1.067,2.193c-0.443,0.848-0.722,1.599-0.838,2.252c-0.115,1.002,0,1.655,0.347,1.964
				c0.347,0.308,0.981,0.288,1.905-0.059c0.73-0.308,1.501-0.855,2.31-1.646c0.809-0.788,1.606-1.625,2.396-2.512
				c0.788-0.885,1.53-1.731,2.223-2.54c0.693-0.809,1.271-1.404,1.732-1.79c0.115-0.115,0.26-0.24,0.433-0.375
				c0.174-0.135,0.317-0.163,0.434-0.087c0.191,0.078,0.298,0.184,0.317,0.317c0.019,0.136,0.028,0.28,0.028,0.434
				c-0.5,1.232-1.097,2.444-1.789,3.638c-0.693,1.193-1.473,2.3-2.339,3.319c-0.866,1.021-1.829,1.926-2.887,2.714
				c-1.06,0.789-2.204,1.415-3.436,1.877c-0.771,0.269-1.464,0.355-2.079,0.26c-0.616-0.097-1.174-0.317-1.674-0.664
				c-0.501-0.347-0.905-0.789-1.213-1.328C151.012,174.587,150.802,174.01,150.686,173.394z"/>
			<path fill="#222944" d="M174.416,164.56c-1.616,1.81-3.128,3.638-4.532,5.485c-1.405,1.848-2.781,3.695-4.128,5.543
				c-0.309,0.27-0.578,0.385-0.809,0.347c-0.231-0.038-0.434-0.153-0.606-0.347c-0.173-0.192-0.308-0.434-0.404-0.722
				c-0.096-0.289-0.163-0.549-0.202-0.779c-0.076-0.693-0.076-1.453,0-2.281c0.078-0.827,0.154-1.356,0.231-1.588
				c0.154-0.653,0.356-1.404,0.606-2.252c0.25-0.846,0.51-1.703,0.779-2.569c0.269-0.865,0.528-1.712,0.779-2.54
				c0.25-0.827,0.49-1.568,0.722-2.223c0.153-0.462,0.423-0.741,0.809-0.837c0.384-0.096,0.76-0.038,1.126,0.173
				c0.365,0.212,0.653,0.568,0.866,1.068c0.211,0.501,0.239,1.136,0.086,1.906c-0.154,0.771-0.327,1.54-0.52,2.31
				c-0.193,0.771-0.366,1.521-0.52,2.251c1.116-1.231,2.223-2.511,3.32-3.839c1.097-1.328,2.165-2.646,3.204-3.955
				c0.5-0.347,1.02-0.423,1.559-0.231c0.539,0.193,0.943,0.616,1.213,1.27c0.308,0.693,0.442,1.406,0.404,2.136
				c-0.039,0.732-0.136,1.424-0.289,2.079c1.116-1.155,2.426-2.29,3.927-3.406c1.501-1.116,2.964-1.963,4.388-2.541
				c0.693-0.269,1.328-0.308,1.905-0.116c0.578,0.193,1.077,0.549,1.502,1.068c0.423,0.52,0.74,1.155,0.952,1.905
				c0.211,0.75,0.298,1.53,0.26,2.338c-0.462,0.963-0.904,1.896-1.328,2.801s-0.808,1.8-1.154,2.685
				c-0.347,0.886-0.626,1.771-0.837,2.656c-0.213,0.886-0.299,1.79-0.261,2.714c0.27,0.192,0.723,0.077,1.357-0.347
				c0.635-0.423,1.356-0.981,2.165-1.675c0.809-0.692,1.646-1.423,2.512-2.193c0.866-0.77,1.626-1.424,2.28-1.964
				c1.886-1.501,2.925-2.136,3.118-1.905c0.192,0.231-0.347,1.098-1.616,2.599c-1.232,1.463-2.532,2.906-3.897,4.33
				c-1.367,1.425-2.82,2.656-4.359,3.695c-0.501,0.347-1.078,0.529-1.732,0.549c-0.655,0.019-1.299-0.097-1.935-0.347
				c-0.635-0.251-1.184-0.635-1.646-1.154s-0.731-1.164-0.808-1.935c-0.116-1.001-0.049-2.059,0.202-3.176
				c0.249-1.116,0.586-2.223,1.01-3.32c0.424-1.097,0.904-2.165,1.443-3.204s1.04-2.001,1.502-2.887
				c-0.116-0.308-0.549-0.202-1.3,0.318c-0.75,0.52-1.665,1.241-2.742,2.165c-1.078,0.924-2.214,1.963-3.406,3.118
				c-1.194,1.154-2.291,2.214-3.292,3.176c-0.424,0.385-0.741,0.626-0.952,0.722c-0.212,0.097-0.396,0.145-0.549,0.145
				c-0.385,0-0.635-0.318-0.75-0.953c-0.116-0.635-0.165-1.366-0.145-2.194c0.019-0.827,0.086-1.636,0.202-2.425
				C174.243,165.417,174.339,164.868,174.416,164.56z"/>
			<path fill="#222944" d="M203.921,173.394c-0.347,0.27-0.731,0.568-1.155,0.896s-0.886,0.616-1.386,0.865
				c-0.5,0.251-1.03,0.443-1.588,0.578s-1.146,0.145-1.761,0.028c-0.462-0.076-0.886-0.239-1.271-0.49
				c-0.384-0.25-0.75-0.549-1.097-0.896c-0.347-0.346-0.558-0.846-0.635-1.501c-0.077-0.654-0.096-1.174-0.058-1.559
				c0.192-1.001,0.462-2.059,0.808-3.176c0.347-1.116,0.771-2.213,1.271-3.291c0.847-1.771,1.925-3.349,3.233-4.735
				s2.887-2.271,4.734-2.656c0.615-0.153,1.261-0.182,1.935-0.086c0.673,0.096,1.26,0.317,1.761,0.664
				c0.5,0.346,0.885,0.779,1.155,1.299c0.269,0.52,0.326,1.088,0.173,1.703c-0.077,0.231-0.164,0.462-0.26,0.693
				c-0.097,0.231-0.212,0.424-0.347,0.578c-0.135,0.154-0.26,0.241-0.375,0.26c-0.115,0.02-0.231-0.086-0.347-0.317
				c-0.039-0.116-0.087-0.279-0.145-0.491c-0.058-0.211-0.144-0.423-0.26-0.635c-0.115-0.211-0.279-0.404-0.49-0.578
				c-0.212-0.173-0.491-0.26-0.838-0.26c-0.731,0-1.559,0.453-2.482,1.357c-0.924,0.905-1.81,1.963-2.656,3.175
				c-0.847,1.213-1.578,2.425-2.193,3.638c-0.616,1.213-1.002,2.127-1.155,2.742c-0.23,1.002-0.212,1.53,0.058,1.588
				s0.693-0.153,1.271-0.635c0.577-0.48,1.231-1.145,1.963-1.992c0.731-0.846,1.424-1.684,2.079-2.512
				c0.653-0.827,1.222-1.559,1.703-2.193c0.48-0.636,0.74-0.972,0.779-1.011c0.5-0.385,1.001-0.558,1.501-0.52
				s0.934,0.222,1.3,0.548c0.365,0.328,0.615,0.732,0.75,1.213c0.135,0.481,0.087,0.973-0.145,1.473
				c-0.27,0.616-0.626,1.348-1.067,2.193c-0.443,0.848-0.722,1.599-0.838,2.252c-0.115,1.002,0,1.655,0.347,1.964
				c0.347,0.308,0.981,0.288,1.905-0.059c0.73-0.308,1.501-0.855,2.31-1.646c0.809-0.788,1.606-1.625,2.396-2.512
				c0.788-0.885,1.53-1.731,2.223-2.54c0.693-0.809,1.271-1.404,1.732-1.79c0.115-0.115,0.26-0.24,0.433-0.375
				c0.174-0.135,0.317-0.163,0.434-0.087c0.191,0.078,0.298,0.184,0.317,0.317c0.019,0.136,0.028,0.28,0.028,0.434
				c-0.5,1.232-1.097,2.444-1.789,3.638c-0.693,1.193-1.473,2.3-2.339,3.319c-0.866,1.021-1.829,1.926-2.887,2.714
				c-1.06,0.789-2.204,1.415-3.436,1.877c-0.771,0.269-1.464,0.355-2.079,0.26c-0.616-0.097-1.174-0.317-1.674-0.664
				c-0.501-0.347-0.905-0.789-1.213-1.328C204.247,174.587,204.036,174.01,203.921,173.394z M206.807,140.887
				c-0.27,0.154-0.598,0.347-0.981,0.578c-0.386,0.231-0.713,0.395-0.981,0.491c-0.27,0.097-0.424,0.068-0.462-0.086
				c-0.039-0.153,0.173-0.578,0.635-1.271c0.423-0.5,0.847-0.99,1.271-1.472c0.423-0.481,0.846-0.933,1.271-1.357
				c0.961-1,2.021-1.943,3.176-2.829c0.308-0.269,0.615-0.308,0.924-0.116c0.308,0.193,0.462,0.462,0.462,0.809
				c0,0.424-0.202,0.895-0.606,1.415s-0.896,1.03-1.473,1.53c-0.577,0.5-1.165,0.953-1.761,1.356
				C207.682,140.338,207.192,140.656,206.807,140.887z"/>
			<path fill="#222944" d="M224.244,178.994c0.115-0.424,0.24-0.847,0.375-1.271s0.26-0.846,0.376-1.27
				c0.115-0.424,0.037-0.731-0.231-0.924c-0.539-0.424-0.847-0.943-0.924-1.56c-0.077-0.615,0.009-1.184,0.26-1.703
				c0.25-0.52,0.625-0.933,1.126-1.241c0.5-0.308,1.077-0.365,1.732-0.173c0.538,0.192,0.99,0.568,1.356,1.126
				c0.365,0.558,0.395,1.434,0.087,2.627c-0.193,0.962-0.549,1.81-1.068,2.54c-0.52,0.731-1.106,1.424-1.761,2.079
				c-0.54,0.538-0.934,0.77-1.184,0.692C224.137,179.841,224.09,179.533,224.244,178.994z"/>
			<path fill="#222944" d="M66.879,221.778c0.192,0.384,0.452,0.586,0.779,0.606c0.327,0.019,0.645-0.068,0.953-0.261
				c1.154-1.001,2.252-2.078,3.291-3.232c1.039-1.155,2.03-2.31,2.974-3.465c0.942-1.154,1.866-2.28,2.771-3.378
				c0.904-1.097,1.78-2.087,2.627-2.974c0.308-0.308,0.549-0.375,0.722-0.202c0.174,0.174,0.202,0.434,0.087,0.78
				c-0.54,0.886-1.078,1.741-1.617,2.569s-1.097,1.665-1.674,2.512c-1.193,1.693-2.416,3.503-3.667,5.427
				c-1.251,1.925-2.627,3.561-4.128,4.908c-0.924,0.846-1.925,1.328-3.003,1.443c-1.001-0.039-1.943-0.356-2.829-0.953
				c-0.885-0.597-1.404-1.396-1.559-2.396c-0.23-2.349-0.192-4.715,0.115-7.103c0.347-2.771,0.905-5.638,1.675-8.603
				c0.77-2.964,1.703-5.908,2.8-8.834c1.098-2.925,2.3-5.774,3.609-8.546c1.308-2.771,2.675-5.35,4.1-7.736
				c0.653-1.04,1.308-2.03,1.963-2.974c0.654-0.943,1.347-1.819,2.078-2.627c0.27-0.347,0.606-0.597,1.011-0.751
				c0.404-0.153,0.817-0.135,1.241,0.058c0.847,0.386,1.213,1.097,1.098,2.137c-0.271,2.271-0.742,4.484-1.415,6.64
				c-0.674,2.156-1.492,4.234-2.454,6.235c-0.963,2.002-2.041,3.927-3.233,5.774c-1.193,1.848-2.464,3.6-3.811,5.254
				c-0.115,0.115-0.202,0.251-0.26,0.404c-0.058,0.154-0.126,0.309-0.202,0.462c-0.577,1.54-1.146,3.233-1.703,5.081
				c-0.559,1.848-1.039,3.647-1.443,5.398c-0.404,1.752-0.693,3.378-0.866,4.879C66.734,219.815,66.724,220.97,66.879,221.778z
				 M81.083,180.899c-1.655,2.771-3.138,5.62-4.446,8.545c-1.309,2.926-2.618,5.852-3.926,8.776
				c0.347-0.347,0.779-0.933,1.299-1.761s1.068-1.771,1.646-2.83c0.577-1.058,1.155-2.202,1.732-3.435
				c0.577-1.231,1.116-2.426,1.616-3.58c0.5-1.155,0.943-2.242,1.328-3.263C80.717,182.333,80.968,181.515,81.083,180.899z"/>
			<path fill="#222944" d="M86.394,216.87c-0.347,0.27-0.731,0.568-1.155,0.896s-0.886,0.616-1.386,0.865
				c-0.5,0.251-1.03,0.443-1.588,0.578s-1.146,0.145-1.761,0.028c-0.462-0.076-0.886-0.239-1.271-0.49
				c-0.384-0.25-0.75-0.549-1.097-0.896c-0.347-0.346-0.558-0.846-0.635-1.501c-0.077-0.654-0.096-1.174-0.058-1.559
				c0.192-1.001,0.462-2.059,0.808-3.176c0.347-1.116,0.771-2.213,1.271-3.291c0.847-1.771,1.925-3.35,3.233-4.735
				s2.887-2.271,4.734-2.655c0.615-0.153,1.261-0.183,1.935-0.087c0.673,0.097,1.26,0.317,1.761,0.664
				c0.5,0.347,0.885,0.779,1.155,1.299c0.269,0.52,0.326,1.088,0.173,1.703c-0.077,0.231-0.164,0.462-0.26,0.693
				c-0.097,0.23-0.212,0.424-0.347,0.577c-0.135,0.154-0.26,0.241-0.375,0.26c-0.115,0.021-0.231-0.086-0.347-0.317
				c-0.039-0.115-0.087-0.278-0.145-0.49s-0.144-0.424-0.26-0.636c-0.115-0.211-0.279-0.404-0.49-0.577
				c-0.212-0.173-0.491-0.26-0.838-0.26c-0.731,0-1.559,0.453-2.482,1.356c-0.924,0.905-1.81,1.964-2.656,3.176
				c-0.847,1.213-1.578,2.425-2.193,3.638c-0.616,1.213-1.002,2.127-1.155,2.742c-0.23,1.002-0.212,1.53,0.058,1.588
				s0.693-0.153,1.271-0.635c0.577-0.48,1.231-1.145,1.963-1.992c0.731-0.846,1.424-1.684,2.079-2.512
				c0.653-0.827,1.222-1.559,1.703-2.193c0.48-0.636,0.74-0.972,0.779-1.011c0.5-0.385,1.001-0.558,1.501-0.52
				s0.934,0.222,1.3,0.548c0.365,0.328,0.615,0.732,0.75,1.213c0.135,0.481,0.087,0.973-0.145,1.473
				c-0.27,0.616-0.626,1.348-1.067,2.193c-0.443,0.848-0.722,1.599-0.838,2.252c-0.115,1.002,0,1.655,0.347,1.964
				c0.347,0.308,0.981,0.288,1.905-0.059c0.73-0.308,1.501-0.855,2.31-1.646c0.809-0.788,1.606-1.625,2.396-2.512
				c0.788-0.885,1.53-1.731,2.223-2.54c0.693-0.809,1.271-1.404,1.732-1.79c0.115-0.115,0.26-0.24,0.433-0.375
				c0.174-0.135,0.317-0.163,0.434-0.087c0.191,0.078,0.298,0.184,0.317,0.317c0.019,0.136,0.028,0.28,0.028,0.434
				c-0.5,1.232-1.097,2.444-1.789,3.638c-0.693,1.193-1.473,2.3-2.339,3.319c-0.866,1.021-1.829,1.926-2.887,2.714
				c-1.06,0.789-2.204,1.415-3.436,1.877c-0.771,0.269-1.464,0.355-2.079,0.26c-0.616-0.097-1.174-0.317-1.674-0.664
				c-0.501-0.347-0.905-0.789-1.213-1.328C86.72,218.063,86.51,217.486,86.394,216.87z"/>
			<path fill="#222944" d="M121.672,208.036c-1.616,1.81-3.128,3.638-4.532,5.485c-1.405,1.848-2.781,3.695-4.128,5.543
				c-0.309,0.27-0.578,0.385-0.809,0.347c-0.231-0.038-0.434-0.153-0.606-0.347c-0.173-0.192-0.308-0.434-0.404-0.722
				c-0.096-0.289-0.163-0.549-0.202-0.779c-0.076-0.693-0.076-1.453,0-2.281c0.078-0.827,0.154-1.356,0.231-1.588
				c0.154-0.653,0.356-1.404,0.606-2.252c0.25-0.846,0.51-1.703,0.779-2.569c0.269-0.865,0.528-1.712,0.779-2.54
				c0.25-0.827,0.49-1.568,0.722-2.223c0.153-0.462,0.423-0.741,0.809-0.838c0.384-0.096,0.76-0.037,1.126,0.174
				c0.365,0.212,0.653,0.568,0.866,1.067c0.211,0.501,0.239,1.137,0.086,1.906c-0.154,0.771-0.327,1.54-0.52,2.31
				c-0.193,0.771-0.366,1.521-0.52,2.251c1.116-1.231,2.223-2.511,3.32-3.839c1.097-1.328,2.165-2.646,3.204-3.955
				c0.5-0.347,1.02-0.424,1.559-0.231c0.539,0.193,0.943,0.616,1.213,1.271c0.308,0.692,0.442,1.405,0.404,2.136
				c-0.039,0.732-0.136,1.425-0.289,2.079c1.116-1.155,2.426-2.29,3.927-3.406c1.501-1.116,2.964-1.964,4.388-2.541
				c0.693-0.269,1.328-0.308,1.905-0.115c0.578,0.193,1.077,0.549,1.502,1.068c0.423,0.52,0.74,1.154,0.952,1.905
				c0.211,0.75,0.298,1.53,0.26,2.338c-0.462,0.963-0.904,1.896-1.328,2.801s-0.808,1.8-1.154,2.685
				c-0.347,0.886-0.626,1.771-0.837,2.656c-0.213,0.886-0.299,1.79-0.261,2.714c0.27,0.192,0.723,0.077,1.357-0.347
				c0.635-0.423,1.356-0.981,2.165-1.675c0.809-0.692,1.646-1.423,2.512-2.193c0.866-0.77,1.626-1.424,2.28-1.964
				c1.886-1.501,2.925-2.136,3.118-1.905c0.192,0.231-0.347,1.098-1.616,2.599c-1.232,1.463-2.532,2.906-3.897,4.33
				c-1.367,1.425-2.82,2.656-4.359,3.695c-0.501,0.347-1.078,0.529-1.732,0.549c-0.655,0.019-1.299-0.097-1.935-0.347
				c-0.635-0.251-1.184-0.635-1.646-1.154s-0.731-1.164-0.808-1.935c-0.116-1.001-0.049-2.059,0.202-3.176
				c0.249-1.116,0.586-2.223,1.01-3.32c0.424-1.097,0.904-2.165,1.443-3.204s1.04-2.001,1.502-2.887
				c-0.116-0.308-0.549-0.202-1.3,0.317c-0.75,0.52-1.665,1.241-2.742,2.165c-1.078,0.924-2.214,1.963-3.406,3.118
				c-1.194,1.154-2.291,2.214-3.292,3.176c-0.424,0.385-0.741,0.626-0.952,0.722c-0.212,0.097-0.396,0.145-0.549,0.145
				c-0.385,0-0.635-0.318-0.75-0.953c-0.116-0.635-0.165-1.366-0.145-2.194c0.019-0.827,0.086-1.636,0.202-2.425
				C121.499,208.894,121.594,208.345,121.672,208.036z"/>
			<path fill="#222944" d="M142.746,215.254c-0.077-1.463,0.077-2.982,0.462-4.562c0.385-1.578,0.962-3.031,1.731-4.359
				s1.741-2.415,2.916-3.263c1.174-0.846,2.55-1.289,4.129-1.327c0.808,0.192,1.434,0.597,1.876,1.212
				c0.442,0.616,0.567,1.367,0.375,2.252c-0.154,0.847-0.375,1.569-0.663,2.165c-0.289,0.598-0.78,1.223-1.473,1.877
				c-0.347,0.309-0.828,0.713-1.443,1.212c-0.616,0.501-1.213,1.021-1.79,1.56s-1.078,1.088-1.501,1.646
				c-0.425,0.559-0.636,1.03-0.636,1.414c-0.115,1.002,0.038,1.646,0.462,1.935s0.972,0.404,1.646,0.347
				c0.673-0.058,1.357-0.24,2.05-0.549c0.693-0.308,1.251-0.577,1.675-0.809c0.5-0.346,1.058-0.779,1.674-1.299
				c0.615-0.52,1.231-1.068,1.848-1.646c0.615-0.577,1.213-1.135,1.79-1.675c0.578-0.538,1.059-0.981,1.443-1.328
				c0.308-0.308,0.587-0.596,0.838-0.865c0.25-0.27,0.548-0.5,0.895-0.693c0.308-0.076,0.549-0.096,0.722-0.058
				c0.174,0.039,0.145,0.327-0.086,0.866c-0.309,0.655-0.685,1.271-1.126,1.848c-0.443,0.577-0.915,1.154-1.415,1.732
				c-0.692,0.77-1.435,1.578-2.223,2.425c-0.79,0.847-1.617,1.626-2.483,2.338c-0.865,0.713-1.771,1.328-2.713,1.848
				c-0.944,0.52-1.916,0.857-2.916,1.011c-1.771,0.115-3.225-0.25-4.359-1.097S142.746,217.179,142.746,215.254z M151.984,204.398
				c-1.04,0.386-1.858,0.886-2.454,1.501c-0.598,0.616-1.03,1.521-1.3,2.714c0.847-0.615,1.607-1.241,2.281-1.876
				C151.184,206.102,151.676,205.322,151.984,204.398z"/>
			<path fill="#222944" d="M172.077,207.459c-1.232,1.579-2.579,2.993-4.042,4.243c-1.463,1.252-2.887,2.57-4.272,3.956
				c-0.154,0.192-0.299,0.385-0.434,0.577s-0.202,0.424-0.202,0.692c-0.462,4.504-1.27,8.901-2.425,13.193
				c-1.154,4.292-2.79,8.401-4.907,12.327c-0.654,1.271-1.405,2.463-2.252,3.58c-0.847,1.116-1.828,2.079-2.945,2.887
				c-0.961,0.654-1.942,1.135-2.944,1.443c-1,0.308-2.059,0.404-3.176,0.289c-0.77-0.115-1.501-0.424-2.194-0.924
				c-0.692-0.501-1.231-1.06-1.616-1.675c-0.77-1.463-1.039-3.099-0.809-4.907c0.231-1.81,0.771-3.657,1.617-5.543
				c0.847-1.887,1.905-3.763,3.176-5.63c1.27-1.867,2.569-3.618,3.897-5.254c1.327-1.637,2.589-3.089,3.781-4.359
				c1.193-1.271,2.117-2.252,2.771-2.944c0.655-0.654,1.299-1.318,1.935-1.992c0.635-0.673,1.241-1.337,1.818-1.992
				c0.231-0.308,0.396-0.933,0.491-1.877c0.097-0.942,0.164-1.963,0.202-3.06s0.049-2.146,0.028-3.146
				c-0.019-1.001-0.028-1.732-0.028-2.194c0.192-0.539,0.538-0.837,1.039-0.896c0.5-0.058,1.02,0.059,1.559,0.347
				c0.539,0.289,1.029,0.693,1.473,1.213c0.442,0.52,0.702,1.068,0.779,1.646c0.038,0.424,0.048,0.761,0.029,1.011
				c-0.021,0.25-0.068,0.49-0.145,0.722c-0.077,0.23-0.145,0.472-0.202,0.722s-0.087,0.568-0.087,0.952
				c0.308-0.192,0.567-0.375,0.78-0.548c0.211-0.174,0.433-0.337,0.663-0.491c0.847-0.539,1.713-1.116,2.599-1.732
				c0.885-0.615,1.751-1.174,2.599-1.674c0.308-0.153,0.644-0.289,1.01-0.404c0.366-0.116,0.654-0.153,0.866-0.116
				c0.211,0.039,0.308,0.174,0.289,0.404C172.779,206.535,172.539,206.92,172.077,207.459z M156.199,222.24
				c0,0.076-0.038,0.115-0.116,0.115c-1.192,1.616-2.415,3.185-3.666,4.706c-1.251,1.52-2.454,3.068-3.608,4.647
				c-1.155,1.578-2.214,3.214-3.176,4.908c-0.962,1.693-1.732,3.502-2.31,5.427c-0.308,0.924-0.424,1.693-0.347,2.31
				s0.289,1.049,0.635,1.3c0.347,0.25,0.809,0.288,1.386,0.115c0.578-0.173,1.213-0.606,1.905-1.299
				c1.579-1.425,2.868-3.041,3.869-4.851s1.828-3.705,2.482-5.688c0.655-1.982,1.193-3.975,1.617-5.976
				C155.295,225.954,155.737,224.049,156.199,222.24z M162.665,202.378c-0.153,0.154-0.317,0.222-0.49,0.202
				s-0.299-0.125-0.375-0.317c-0.347-0.615-0.646-1.193-0.896-1.732c-0.251-0.539-0.375-1.059-0.375-1.559
				c0.076-0.539,0.278-1.02,0.606-1.444c0.326-0.423,0.74-0.77,1.241-1.039c0.615-0.269,1.212-0.25,1.79,0.058
				c0.577,0.309,0.903,0.751,0.981,1.328c0.076,0.577,0.038,1.088-0.115,1.53c-0.154,0.443-0.356,0.857-0.606,1.241
				c-0.251,0.386-0.54,0.713-0.866,0.981C163.233,201.896,162.934,202.146,162.665,202.378z"/>
			<path fill="#222944" d="M182.238,209.018c0.462-0.038,0.962-0.153,1.501-0.347c0.539-0.191,1.04-0.346,1.502-0.462
				c0.538-0.153,1.105-0.336,1.703-0.548c0.596-0.211,1.164-0.376,1.703-0.491c0.385,0,0.539,0.106,0.462,0.317
				c-0.077,0.212-0.26,0.462-0.549,0.751c-0.288,0.289-0.616,0.568-0.981,0.837c-0.366,0.271-0.645,0.462-0.837,0.578
				c-0.924,0.424-1.839,0.75-2.743,0.981c-0.904,0.23-1.761,0.559-2.569,0.981c-0.346,0.616-0.828,1.435-1.443,2.454
				c-0.616,1.02-1.299,2.012-2.05,2.974c-0.75,0.962-1.54,1.789-2.367,2.482c-0.828,0.692-1.626,1.039-2.396,1.039
				c-1.078,0-2.002-0.308-2.771-0.924c-0.578-0.384-1.011-0.981-1.3-1.79c-0.288-0.808-0.462-1.684-0.52-2.627
				c-0.058-0.942-0.028-1.866,0.087-2.771c0.115-0.904,0.251-1.646,0.404-2.223c0.038-0.269,0.097-0.452,0.173-0.549
				c0.078-0.096,0.154-0.163,0.231-0.202c0.077-0.038,0.164-0.076,0.26-0.115c0.097-0.038,0.183-0.115,0.26-0.231
				c0.115-0.423,0.23-0.865,0.346-1.327c0.116-0.462,0.289-0.886,0.521-1.271c0.653-1.155,1.491-2.223,2.512-3.205
				c1.019-0.981,2.203-1.549,3.551-1.703c0.846-0.153,1.625-0.115,2.338,0.116c0.712,0.23,1.337,0.674,1.877,1.327
				c0.462,0.501,0.788,1.05,0.981,1.646c0.192,0.598,0.308,1.175,0.347,1.732c0.037,0.559,0.019,1.068-0.058,1.53
				C182.334,208.44,182.276,208.787,182.238,209.018z M173.808,218.487c0.385-0.077,0.817-0.355,1.299-0.838
				c0.481-0.48,0.943-1.029,1.386-1.646c0.442-0.615,0.827-1.241,1.155-1.876c0.326-0.636,0.548-1.164,0.664-1.588
				c-0.771,0.077-1.598,0.115-2.483,0.115s-1.713-0.076-2.482-0.23c-0.115,0.346-0.193,0.799-0.231,1.356
				c-0.038,0.559-0.038,1.136,0,1.732s0.116,1.164,0.231,1.703S173.615,218.18,173.808,218.487z M178.947,209.595
				c0.077,0,0.153-0.037,0.231-0.115c0.076-0.076,0.115-0.153,0.115-0.23c0.308-0.731,0.452-1.539,0.433-2.426
				c-0.02-0.885-0.299-1.597-0.837-2.136c-0.27-0.308-0.616-0.481-1.039-0.52c-0.424-0.038-0.828,0.038-1.213,0.23
				c-0.771,0.462-1.386,1.002-1.848,1.617c-0.462,0.616-0.904,1.251-1.328,1.905c0,0.193,0.038,0.327,0.115,0.404
				c0.385,0.346,0.558,0.731,0.521,1.154c0,0.193,0.221,0.309,0.664,0.347c0.441,0.039,0.942,0.049,1.501,0.029
				c0.558-0.02,1.097-0.067,1.616-0.145S178.754,209.595,178.947,209.595z"/>
			<path fill="#222944" d="M201.177,203.821c-1.463,0.655-2.811,1.627-4.042,2.916c-1.232,1.29-2.396,2.724-3.493,4.302
				c-1.097,1.578-2.165,3.214-3.204,4.907c-1.039,1.694-2.079,3.272-3.118,4.734c-0.308,0.347-0.673,0.442-1.097,0.289
				c-0.424-0.154-0.693-0.453-0.809-0.895c-0.115-0.442-0.077-0.914,0.115-1.415c0.27-0.924,0.53-1.963,0.779-3.118
				c0.251-1.154,0.491-2.367,0.723-3.638c0.23-1.27,0.471-2.54,0.722-3.811c0.249-1.271,0.51-2.482,0.779-3.638
				c0.076-0.308,0.26-0.548,0.548-0.722c0.289-0.173,0.606-0.269,0.953-0.288s0.654,0.049,0.924,0.202
				c0.269,0.154,0.442,0.385,0.52,0.692c0.153,0.771,0.105,1.694-0.145,2.771c-0.251,1.078-0.529,2.137-0.837,3.176
				c0.692-0.847,1.452-1.838,2.28-2.974c0.828-1.135,1.732-2.194,2.714-3.176s2.021-1.79,3.118-2.425s2.242-0.895,3.436-0.779
				c0.615,0.192,1.106,0.511,1.473,0.952c0.365,0.443,0.644,0.944,0.837,1.502c0.192,0.558,0.298,1.106,0.317,1.646
				c0.019,0.539-0.028,1.001-0.145,1.386c-0.27,0.539-0.587,1.126-0.952,1.761c-0.366,0.635-0.655,1.28-0.866,1.935
				c-0.212,0.654-0.299,1.299-0.26,1.934c0.038,0.636,0.347,1.204,0.924,1.703c0.23,0.309,0.211,0.54-0.058,0.693
				c-0.271,0.154-0.636,0.241-1.098,0.26c-0.462,0.02-0.924-0.029-1.386-0.145s-0.789-0.288-0.981-0.52
				c-0.616-0.847-0.991-1.703-1.126-2.569s-0.106-1.741,0.087-2.627c0.192-0.885,0.5-1.751,0.924-2.599
				C200.156,205.4,200.637,204.592,201.177,203.821z"/>
		</g>
		<g>
			<path fill="#ED7AA9" d="M118.176,117.598c2.196-3.572,6.164-6.839,11.904-9.798l1.077,2.019c-2.871,2.033-4.994,3.736-6.368,5.11
				c-2.421,2.482-3.632,4.858-3.632,7.131c0,0.777,0.224,1.285,0.673,1.525c0.448,0.269,0.836,0.403,1.166,0.403
				c1.136-0.149,1.884-0.224,2.241-0.224c1.913,0,3.483,0.695,4.709,2.084c1.225,1.391,1.839,3.073,1.839,5.045
				c0,2.213-0.673,4.058-2.019,5.538c-1.344,1.48-3.199,2.219-5.559,2.219c-2.781,0-5.029-0.993-6.748-2.981
				c-1.719-1.988-2.578-4.641-2.578-7.959C114.879,124.541,115.978,121.171,118.176,117.598z M143.129,117.351
				c2.331-3.556,6.232-6.741,11.702-9.551l1.077,2.019c-2.69,1.882-4.753,3.542-6.187,4.977c-2.541,2.541-3.812,4.902-3.812,7.084
				c0,0.628,0.165,1.136,0.494,1.525c0.328,0.389,0.777,0.583,1.344,0.583c1.136-0.149,1.884-0.224,2.243-0.224
				c1.882,0,3.444,0.689,4.684,2.062c1.24,1.375,1.862,3.065,1.862,5.067c0,2.331-0.689,4.207-2.062,5.628
				c-1.375,1.419-3.245,2.129-5.606,2.129c-2.69,0-4.902-0.993-6.635-2.981c-1.735-1.988-2.602-4.641-2.602-7.959
				C139.63,124.362,140.796,120.909,143.129,117.351z"/>
		</g>
	</g>
	<g>
		<path fill="#222944" d="M75.941,16.011V5.759h2.08l4.101,6.438h0.03V5.759h2.005v10.251h-2.065l-4.101-6.211h-0.03v6.211H75.941z"
			/>
		<path fill="#222944" d="M97.47,12.393V5.759h2.065v6.633c0,2.684-1.599,3.769-4.025,3.769s-4.04-1.085-4.04-3.769V5.759h2.08
			v6.633c0,1.101,0.332,2.035,1.975,2.035C97.108,14.428,97.47,13.493,97.47,12.393z"/>
		<path fill="#222944" d="M113.783,7.614h-4.854v2.186h4.176v1.839h-4.176v2.533h4.93v1.839h-7.01V5.759h6.935V7.614z"/>
		<path fill="#222944" d="M120.87,15.604l0.362-1.733c1.598,0.377,2.729,0.452,3.527,0.452c1.056,0,1.688-0.482,1.688-1.161
			c0-0.95-1.176-1.146-2.366-1.478c-1.779-0.498-3.061-1.478-3.061-3.211c0-2.065,1.703-2.865,3.738-2.865
			c1.161,0,2.217,0.151,3.618,0.573l-0.467,1.734c-1.613-0.377-2.367-0.452-3.151-0.452c-1.055,0-1.553,0.452-1.553,1.07
			c0,0.844,1.101,1.116,2.337,1.417c1.779,0.407,3.091,1.251,3.091,3.045c0,2.186-1.688,3.166-3.875,3.166
			C123.584,16.162,122.272,16.011,120.87,15.604z"/>
		<path fill="#222944" d="M139.957,7.614v8.397h-2.081V7.614h-2.698V5.759h7.463v1.854H139.957z"/>
		<path fill="#222944" d="M155.366,16.011l-2.156-3.648h-1.478v3.648h-2.08V5.759h4.372c2.155,0,3.392,1.296,3.392,3.302
			c0,1.387-0.648,2.548-2.035,2.955l2.397,3.995H155.366z M151.732,10.508h2.035c0.859,0,1.522-0.377,1.522-1.447
			c0-1.041-0.618-1.447-1.492-1.447h-2.065V10.508z"/>
		<path fill="#222944" d="M164.246,10.81c0-2.895,0.965-5.201,4.568-5.201c3.603,0,4.553,2.307,4.553,5.201
			c0,2.925-0.95,5.352-4.553,5.352C165.211,16.162,164.246,13.734,164.246,10.81z M166.432,10.81c0,2.035,0.361,3.618,2.382,3.618
			s2.367-1.583,2.367-3.618s-0.347-3.467-2.367-3.467S166.432,8.774,166.432,10.81z"/>
		<path fill="#222944" d="M179.97,15.604l0.362-1.733c1.598,0.377,2.729,0.452,3.527,0.452c1.056,0,1.688-0.482,1.688-1.161
			c0-0.95-1.176-1.146-2.366-1.478c-1.779-0.498-3.061-1.478-3.061-3.211c0-2.065,1.703-2.865,3.738-2.865
			c1.161,0,2.217,0.151,3.618,0.573l-0.467,1.734c-1.613-0.377-2.367-0.452-3.151-0.452c-1.055,0-1.553,0.452-1.553,1.07
			c0,0.844,1.101,1.116,2.337,1.417c1.779,0.407,3.091,1.251,3.091,3.045c0,2.186-1.688,3.166-3.875,3.166
			C182.684,16.162,181.373,16.011,179.97,15.604z"/>
		<path fill="#FFFFFF" d="M55.248,28.786l-0.498-1.628c1.191-0.452,2.428-1.04,3.182-1.658h1.432v10.327h-1.96v-8.02L55.248,28.786z
			"/>
		<path fill="#FFFFFF" d="M66.585,30.625c0-2.895,0.739-5.201,3.814-5.201s3.799,2.307,3.799,5.201c0,2.925-0.724,5.352-3.799,5.352
			S66.585,33.55,66.585,30.625z M68.666,30.625c0,2.035,0.361,3.739,1.733,3.739s1.733-1.704,1.733-3.739s-0.361-3.573-1.733-3.573
			S68.666,28.59,68.666,30.625z"/>
		<path fill="#FFFFFF" d="M96.588,27.429h-4.704v2.487h4.025v1.839h-4.025v4.07h-2.08V25.575h6.784V27.429z"/>
		<path fill="#FFFFFF" d="M107.956,33.504h-3.241l-0.694,2.322h-2.2l3.316-10.327h2.532l3.271,10.327h-2.291L107.956,33.504z
			 M106.327,28.092l-1.19,3.679h2.396l-1.176-3.679H106.327z"/>
		<path fill="#FFFFFF" d="M120.348,33.309l2.292-7.734h2.186l-3.271,10.327h-2.532l-3.316-10.327h2.307l2.321,7.734H120.348z"/>
		<path fill="#FFFFFF" d="M130.767,30.625c0-2.895,0.965-5.201,4.568-5.201c3.603,0,4.553,2.307,4.553,5.201
			c0,2.925-0.95,5.352-4.553,5.352C131.732,35.977,130.767,33.55,130.767,30.625z M132.954,30.625c0,2.035,0.361,3.618,2.382,3.618
			s2.367-1.583,2.367-3.618s-0.347-3.467-2.367-3.467S132.954,28.59,132.954,30.625z"/>
		<path fill="#FFFFFF" d="M152.584,35.826l-2.156-3.648h-1.478v3.648h-2.08V25.575h4.372c2.155,0,3.392,1.296,3.392,3.302
			c0,1.387-0.648,2.548-2.035,2.955l2.397,3.995H152.584z M148.95,30.324h2.035c0.859,0,1.522-0.377,1.522-1.447
			c0-1.041-0.618-1.447-1.492-1.447h-2.065V30.324z"/>
		<path fill="#FFFFFF" d="M161.871,35.826V25.575h2.08v10.251H161.871z"/>
		<path fill="#FFFFFF" d="M175.726,27.429v8.397h-2.081v-8.397h-2.698v-1.854h7.463v1.854H175.726z"/>
		<path fill="#FFFFFF" d="M184.908,30.625c0-2.895,0.965-5.201,4.568-5.201c3.603,0,4.553,2.307,4.553,5.201
			c0,2.925-0.95,5.352-4.553,5.352C185.873,35.977,184.908,33.55,184.908,30.625z M187.094,30.625c0,2.035,0.361,3.618,2.382,3.618
			s2.367-1.583,2.367-3.618s-0.347-3.467-2.367-3.467S187.094,28.59,187.094,30.625z"/>
		<path fill="#FFFFFF" d="M200.634,35.419l0.362-1.733c1.598,0.377,2.729,0.452,3.527,0.452c1.056,0,1.688-0.482,1.688-1.161
			c0-0.95-1.176-1.146-2.366-1.478c-1.779-0.498-3.061-1.478-3.061-3.211c0-2.065,1.703-2.865,3.738-2.865
			c1.161,0,2.217,0.151,3.618,0.573l-0.467,1.734c-1.613-0.377-2.367-0.452-3.151-0.452c-1.055,0-1.553,0.452-1.553,1.07
			c0,0.844,1.101,1.116,2.337,1.417c1.779,0.407,3.091,1.251,3.091,3.045c0,2.186-1.688,3.166-3.875,3.166
			C203.347,35.977,202.036,35.826,200.634,35.419z"/>
		<path fill="#222944" d="M70.558,52.023v3.618h-2.08V45.39h4.372c2.155,0,3.392,1.327,3.392,3.316c0,2.036-1.236,3.317-3.392,3.317
			H70.558z M70.558,50.184h2.065c0.874,0,1.492-0.407,1.492-1.478c0-1.04-0.618-1.462-1.492-1.462h-2.065V50.184z"/>
		<path fill="#222944" d="M87.746,53.32h-3.241l-0.693,2.322H81.61l3.316-10.327h2.532l3.271,10.327h-2.291L87.746,53.32z
			 M86.117,47.908l-1.19,3.679h2.396l-1.176-3.679H86.117z"/>
		<path fill="#222944" d="M103.094,55.642l-2.156-3.648h-1.478v3.648h-2.08V45.39h4.372c2.155,0,3.392,1.296,3.392,3.302
			c0,1.387-0.648,2.548-2.035,2.955l2.397,3.995H103.094z M99.461,50.139h2.035c0.859,0,1.522-0.377,1.522-1.447
			c0-1.041-0.618-1.447-1.492-1.447h-2.065V50.139z"/>
		<path fill="#222944" d="M118.065,53.32h-3.241l-0.694,2.322h-2.2l3.316-10.327h2.532l3.271,10.327h-2.291L118.065,53.32z
			 M116.436,47.908l-1.19,3.679h2.396l-1.176-3.679H116.436z"/>
		<path fill="#222944" d="M141.645,52.189h0.03l2.412-6.799h2.744v10.251h-2.065v-6.513h-0.03l-2.442,6.513h-1.508l-2.382-6.513
			h-0.03v6.513h-2.02V45.39h2.759L141.645,52.189z"/>
		<path fill="#222944" d="M159.617,53.32h-3.241l-0.693,2.322h-2.201l3.316-10.327h2.532l3.271,10.327h-2.291L159.617,53.32z
			 M157.988,47.908l-1.19,3.679h2.396l-1.176-3.679H157.988z"/>
		<path fill="#222944" d="M174.543,52.189h0.03l2.412-6.799h2.744v10.251h-2.065v-6.513h-0.03l-2.442,6.513h-1.508l-2.382-6.513
			h-0.03v6.513h-2.02V45.39h2.759L174.543,52.189z"/>
		<path fill="#222944" d="M192.515,53.32h-3.241l-0.693,2.322h-2.201l3.316-10.327h2.532l3.271,10.327h-2.291L192.515,53.32z
			 M190.886,47.908l-1.19,3.679h2.396l-1.176-3.679H190.886z M191.581,44.772h-1.056l0.829-1.809h1.613L191.581,44.772z"/>
	</g>
</g>
<g>
</g>
<g>
</g>
<g>
</g>
<g>
</g>
<g>
</g>
<g>
</g>
<g>
</g>
<g>
</g>
<g>
</g>
<g>
</g>
<g>
</g>
<g>
</g>
<g>
</g>
<g>
</g>
<g>
</g>
</svg>
