<?xml version="1.0" encoding="utf-8"?>
<!-- Generator: Adobe Illustrator 17.0.0, SVG Export Plug-In . SVG Version: 6.00 Build 0)  -->
<!DOCTYPE svg PUBLIC "-//W3C//DTD SVG 1.1//EN" "http://www.w3.org/Graphics/SVG/1.1/DTD/svg11.dtd">
<svg version="1.1" id="Layer_1" xmlns="http://www.w3.org/2000/svg" xmlns:xlink="http://www.w3.org/1999/xlink" x="0px" y="0px"
	 width="216.733px" height="200.071px" viewBox="0 0 216.733 200.071" enable-background="new 0 0 216.733 200.071"
	 xml:space="preserve">
<g>
	<rect x="4.963" y="6.667" fill="none" stroke="#222944" stroke-miterlimit="10" width="206.807" height="186.736"/>
	<g>
		<g>
			<path fill="#222944" d="M63.694,88.363c-0.572-0.399-1.172-0.606-1.801-0.621s-1.271,0.05-1.928,0.192
				c-0.086,0.029-0.229,0.043-0.428,0.043c-0.258,0-0.473-0.078-0.643-0.235c-0.172-0.157-0.295-0.343-0.365-0.558
				c-0.072-0.214-0.078-0.435-0.021-0.664c0.057-0.228,0.186-0.413,0.387-0.557c0.371-0.485,0.777-1.028,1.221-1.628
				c0.441-0.601,0.893-1.207,1.35-1.821s0.879-1.228,1.264-1.843c0.385-0.613,0.707-1.191,0.965-1.734
				c-0.658-0.2-1.314-0.086-1.973,0.343c-0.656,0.428-1.27,0.992-1.842,1.692s-1.064,1.442-1.479,2.228
				c-0.414,0.786-0.721,1.436-0.92,1.949c-0.172,0.458-0.4,0.629-0.686,0.515c-0.287-0.114-0.5-0.3-0.643-0.558
				c-0.229-0.37-0.314-0.813-0.258-1.328c0.057-0.514,0.18-1.028,0.363-1.542c0.186-0.515,0.414-1,0.686-1.457
				c0.271-0.456,0.521-0.842,0.75-1.156c0.658-0.886,1.422-1.535,2.293-1.95c0.871-0.413,1.836-0.692,2.893-0.835
				c0.428-0.058,0.807-0.015,1.135,0.128c0.328,0.144,0.607,0.364,0.836,0.664s0.406,0.658,0.535,1.071
				c0.129,0.415,0.207,0.851,0.236,1.307c-0.059,0.915-0.293,1.821-0.707,2.721c-0.414,0.9-0.994,1.765-1.736,2.593
				c0.486,0.028,0.979,0.122,1.479,0.278c0.5,0.157,0.949,0.45,1.35,0.878c0.857-0.656,1.828-1.313,2.914-1.971
				c1.086-0.656,2.084-1.171,3-1.542c0.17-0.086,0.42-0.114,0.748-0.086s0.623,0.086,0.879,0.171
				c0.258,0.086,0.43,0.193,0.514,0.322c0.086,0.128-0.027,0.25-0.342,0.363c-0.371,0.144-0.857,0.364-1.457,0.665
				c-0.6,0.3-1.215,0.643-1.842,1.028c-0.629,0.385-1.236,0.785-1.822,1.199s-1.035,0.821-1.35,1.221
				c0.543,0.943,0.936,1.836,1.18,2.679c0.242,0.842,0.307,1.777,0.191,2.806c-0.17,1.656-0.635,3.442-1.393,5.356
				c-0.756,1.913-1.713,3.749-2.869,5.506c-1.158,1.756-2.451,3.342-3.879,4.756c-1.428,1.413-2.871,2.435-4.326,3.063
				c-0.285,0.113-0.594,0.164-0.922,0.149s-0.65-0.086-0.965-0.214c-0.312-0.129-0.6-0.3-0.855-0.515
				c-0.258-0.214-0.473-0.464-0.643-0.749c-0.314-0.686-0.465-1.265-0.451-1.735c0.016-0.472,0.137-1.079,0.365-1.821
				c0.4-1.4,0.979-2.985,1.734-4.756c0.758-1.771,1.629-3.542,2.613-5.313c0.986-1.771,2.051-3.427,3.193-4.969
				C61.364,90.549,62.522,89.306,63.694,88.363z M64.636,89.648c-1.086,1.258-2.135,2.642-3.148,4.156
				c-1.014,1.513-1.971,3.07-2.871,4.669s-1.721,3.192-2.463,4.777c-0.744,1.586-1.371,3.078-1.887,4.478
				c-0.084,0.229-0.049,0.386,0.107,0.472c0.158,0.086,0.408,0.07,0.75-0.043c0.543-0.172,1.186-0.621,1.928-1.35
				s1.514-1.636,2.314-2.721c0.799-1.086,1.578-2.278,2.334-3.578c0.758-1.3,1.393-2.606,1.908-3.92
				c0.514-1.314,0.885-2.578,1.113-3.792C64.95,91.583,64.921,90.534,64.636,89.648z"/>
			<path fill="#222944" d="M77.018,88.449c-0.256,0.2-0.543,0.422-0.855,0.664c-0.316,0.243-0.658,0.457-1.029,0.643
				s-0.764,0.328-1.178,0.429c-0.414,0.1-0.852,0.106-1.307,0.021c-0.344-0.058-0.658-0.179-0.943-0.364s-0.557-0.407-0.814-0.664
				c-0.256-0.258-0.414-0.629-0.471-1.114s-0.07-0.871-0.043-1.157c0.143-0.742,0.344-1.527,0.6-2.356
				c0.258-0.828,0.572-1.643,0.943-2.442c0.627-1.313,1.428-2.484,2.398-3.513s2.143-1.686,3.514-1.972
				c0.457-0.113,0.936-0.135,1.436-0.064c0.5,0.072,0.936,0.236,1.307,0.493s0.656,0.578,0.857,0.964
				c0.199,0.386,0.242,0.808,0.129,1.265c-0.059,0.171-0.123,0.343-0.193,0.514c-0.072,0.172-0.158,0.314-0.258,0.429
				s-0.191,0.179-0.277,0.192c-0.086,0.015-0.172-0.064-0.258-0.235c-0.029-0.086-0.064-0.207-0.107-0.364
				c-0.043-0.156-0.107-0.314-0.191-0.472c-0.086-0.156-0.209-0.3-0.365-0.428c-0.158-0.129-0.363-0.193-0.621-0.193
				c-0.543,0-1.156,0.336-1.842,1.007c-0.686,0.672-1.344,1.457-1.971,2.356c-0.629,0.9-1.172,1.8-1.629,2.699
				c-0.457,0.9-0.744,1.579-0.857,2.035c-0.172,0.743-0.156,1.136,0.043,1.179s0.514-0.114,0.943-0.472
				c0.428-0.356,0.914-0.85,1.457-1.478c0.541-0.628,1.055-1.25,1.541-1.864c0.486-0.613,0.906-1.156,1.264-1.628
				s0.551-0.721,0.58-0.75c0.371-0.285,0.742-0.414,1.113-0.386c0.371,0.029,0.691,0.165,0.965,0.407
				c0.27,0.243,0.455,0.543,0.557,0.899c0.1,0.357,0.064,0.722-0.107,1.093c-0.201,0.457-0.465,1-0.793,1.628
				c-0.328,0.629-0.535,1.187-0.621,1.672c-0.086,0.742,0,1.229,0.258,1.456c0.256,0.229,0.729,0.215,1.414-0.043
				c0.541-0.228,1.113-0.635,1.713-1.221c0.6-0.585,1.193-1.206,1.777-1.864c0.586-0.656,1.137-1.285,1.65-1.885
				s0.943-1.042,1.285-1.328c0.086-0.086,0.193-0.178,0.322-0.278c0.127-0.1,0.234-0.121,0.32-0.064
				c0.143,0.058,0.221,0.136,0.236,0.235c0.014,0.101,0.021,0.208,0.021,0.321c-0.371,0.915-0.814,1.814-1.328,2.699
				c-0.514,0.886-1.094,1.707-1.736,2.464s-1.355,1.429-2.143,2.014c-0.785,0.586-1.635,1.05-2.549,1.393
				c-0.572,0.199-1.086,0.264-1.543,0.193c-0.457-0.072-0.871-0.236-1.242-0.493s-0.672-0.585-0.898-0.985
				C77.261,89.335,77.104,88.906,77.018,88.449z"/>
			<path fill="#222944" d="M90.472,85.321c-0.828,1.857-1.578,3.649-2.25,5.377c-0.67,1.728-1.307,3.427-1.906,5.098
				s-1.191,3.342-1.777,5.013c-0.586,1.672-1.221,3.392-1.906,5.163c-0.029,0.086-0.064,0.2-0.107,0.343s-0.121,0.285-0.236,0.429
				c-0.172,0.229-0.307,0.343-0.406,0.343s-0.178-0.043-0.236-0.129c-0.342-0.457-0.564-1.07-0.664-1.842s-0.078-1.528,0.064-2.271
				c0.258-1.371,0.607-2.813,1.049-4.327c0.443-1.515,0.93-3.049,1.457-4.605c0.529-1.558,1.094-3.128,1.693-4.714
				c0.6-1.585,1.199-3.134,1.799-4.648c0.715-1.714,1.385-3.299,2.014-4.756s1.258-2.885,1.885-4.284
				c0.229-0.343,0.529-0.479,0.9-0.407s0.713,0.265,1.029,0.578c0.312,0.314,0.557,0.7,0.729,1.157
				c0.17,0.457,0.199,0.886,0.084,1.285c-0.342,0.914-0.721,1.757-1.135,2.528c-0.414,0.771-0.779,1.57-1.092,2.398
				c0.998-0.971,1.998-1.898,2.998-2.784s2.143-1.485,3.428-1.8c0.572-0.086,1.035-0.057,1.393,0.086s0.643,0.357,0.857,0.643
				c0.215,0.286,0.371,0.628,0.471,1.028s0.178,0.8,0.236,1.199c0.027-0.057,0.078-0.078,0.15-0.064
				c0.07,0.016,0.135-0.006,0.191-0.063c0.914-0.258,1.844-0.443,2.785-0.558c0.943-0.113,1.871-0.171,2.785-0.171
				c0.457-0.058,0.785,0.015,0.986,0.214c0.199,0.2,0.07,0.372-0.387,0.515c-0.514,0.143-1.057,0.278-1.627,0.406
				c-0.572,0.129-1.143,0.272-1.715,0.429c-0.57,0.157-1.121,0.321-1.648,0.493c-0.529,0.171-0.994,0.386-1.393,0.643
				c-0.373,0.229-0.701,0.657-0.986,1.285c-0.342,0.829-0.842,1.636-1.5,2.421c-0.656,0.786-1.393,1.479-2.205,2.078
				c-0.814,0.6-1.672,1.057-2.572,1.371c-0.898,0.314-1.777,0.4-2.635,0.257c-0.514-0.143-0.857-0.45-1.027-0.921
				c-0.172-0.472-0.287-0.949-0.344-1.436c0-0.514,0.215-0.771,0.643-0.771c0.143-0.085,0.258-0.149,0.344-0.192
				s0.172-0.136,0.256-0.278c0.285-0.515,0.658-0.985,1.115-1.414c0.914-0.771,1.877-1.428,2.893-1.971
				c1.012-0.543,2.02-1,3.02-1.371c0.4-0.114,0.629-0.215,0.686-0.301c0.057-0.085,0.113-0.327,0.172-0.728
				c-0.059-0.571-0.307-0.957-0.75-1.157c-0.443-0.199-1.121-0.057-2.035,0.429c-0.428,0.257-0.893,0.586-1.393,0.985
				c-0.5,0.4-1,0.821-1.5,1.264c-0.5,0.443-0.979,0.886-1.436,1.328C91.257,84.586,90.843,84.978,90.472,85.321z M91.757,87.421
				c0.285,0.143,0.699,0.143,1.242,0s1.1-0.371,1.672-0.686c0.57-0.314,1.107-0.686,1.607-1.114
				c0.498-0.429,0.877-0.857,1.135-1.285c-1,0.4-1.965,0.85-2.893,1.35S92.671,86.764,91.757,87.421z"/>
			<path fill="#222944" d="M110.608,88.449c-0.256,0.2-0.543,0.422-0.855,0.664c-0.316,0.243-0.658,0.457-1.029,0.643
				s-0.764,0.328-1.178,0.429c-0.414,0.1-0.852,0.106-1.307,0.021c-0.344-0.058-0.658-0.179-0.943-0.364s-0.557-0.407-0.814-0.664
				c-0.256-0.258-0.414-0.629-0.471-1.114s-0.07-0.871-0.043-1.157c0.143-0.742,0.344-1.527,0.6-2.356
				c0.258-0.828,0.572-1.643,0.943-2.442c0.627-1.313,1.428-2.484,2.398-3.513s2.143-1.686,3.514-1.972
				c0.457-0.113,0.936-0.135,1.436-0.064c0.5,0.072,0.936,0.236,1.307,0.493s0.656,0.578,0.857,0.964
				c0.199,0.386,0.242,0.808,0.129,1.265c-0.059,0.171-0.123,0.343-0.193,0.514c-0.072,0.172-0.158,0.314-0.258,0.429
				s-0.191,0.179-0.277,0.192c-0.086,0.015-0.172-0.064-0.258-0.235c-0.029-0.086-0.064-0.207-0.107-0.364
				c-0.043-0.156-0.107-0.314-0.191-0.472c-0.086-0.156-0.209-0.3-0.365-0.428c-0.158-0.129-0.363-0.193-0.621-0.193
				c-0.543,0-1.156,0.336-1.842,1.007c-0.686,0.672-1.344,1.457-1.971,2.356c-0.629,0.9-1.172,1.8-1.629,2.699
				c-0.457,0.9-0.744,1.579-0.857,2.035c-0.172,0.743-0.156,1.136,0.043,1.179s0.514-0.114,0.943-0.472
				c0.428-0.356,0.914-0.85,1.457-1.478c0.541-0.628,1.055-1.25,1.541-1.864c0.486-0.613,0.906-1.156,1.264-1.628
				s0.551-0.721,0.58-0.75c0.371-0.285,0.742-0.414,1.113-0.386c0.371,0.029,0.691,0.165,0.965,0.407
				c0.27,0.243,0.455,0.543,0.557,0.899c0.1,0.357,0.064,0.722-0.107,1.093c-0.201,0.457-0.465,1-0.793,1.628
				c-0.328,0.629-0.535,1.187-0.621,1.672c-0.086,0.742,0,1.229,0.258,1.456c0.256,0.229,0.729,0.215,1.414-0.043
				c0.541-0.228,1.113-0.635,1.713-1.221c0.6-0.585,1.193-1.206,1.777-1.864c0.586-0.656,1.137-1.285,1.65-1.885
				s0.943-1.042,1.285-1.328c0.086-0.086,0.193-0.178,0.322-0.278c0.127-0.1,0.234-0.121,0.32-0.064
				c0.143,0.058,0.221,0.136,0.236,0.235c0.014,0.101,0.021,0.208,0.021,0.321c-0.371,0.915-0.814,1.814-1.328,2.699
				c-0.514,0.886-1.094,1.707-1.736,2.464s-1.355,1.429-2.143,2.014c-0.785,0.586-1.635,1.05-2.549,1.393
				c-0.572,0.199-1.086,0.264-1.543,0.193c-0.457-0.072-0.871-0.236-1.242-0.493s-0.672-0.585-0.898-0.985
				C110.85,89.335,110.694,88.906,110.608,88.449z"/>
			<path fill="#222944" d="M122.349,94.318c0.172,0.543,0.521,0.714,1.051,0.515c0.527-0.2,1.141-0.629,1.842-1.285
				c0.699-0.657,1.436-1.457,2.207-2.399c0.771-0.942,1.506-1.871,2.205-2.785c0.701-0.914,1.309-1.742,1.822-2.485
				c0.514-0.742,0.855-1.228,1.027-1.457c0.143-0.228,0.307-0.442,0.494-0.643c0.184-0.199,0.42-0.413,0.705-0.643
				c0.115-0.086,0.25-0.178,0.408-0.278c0.156-0.1,0.293-0.143,0.406-0.129c0.115,0.016,0.164,0.107,0.15,0.279
				c-0.014,0.171-0.121,0.457-0.32,0.856c-0.172,0.343-0.443,0.864-0.814,1.564c-0.373,0.7-0.83,1.485-1.371,2.356
				c-0.543,0.871-1.143,1.771-1.801,2.699c-0.656,0.928-1.363,1.792-2.121,2.592c-0.756,0.8-1.527,1.5-2.312,2.099
				c-0.787,0.6-1.578,0.985-2.379,1.157c-0.713,0.171-1.371,0.264-1.971,0.278c-0.6,0.014-1.127-0.208-1.584-0.664
				c-0.43-0.429-0.672-1.043-0.729-1.843c-0.057-0.799-0.021-1.649,0.105-2.548c0.129-0.9,0.309-1.771,0.537-2.614
				c0.229-0.842,0.414-1.492,0.557-1.949c0.457-1.485,0.893-2.949,1.307-4.392s0.82-2.893,1.221-4.349
				c0.43-1.286,0.82-2.606,1.178-3.964c0.357-1.356,0.723-2.577,1.094-3.663c-0.572-0.028-1.156-0.05-1.758-0.064
				c-0.6-0.014-1.199-0.028-1.799-0.043c-0.6-0.014-1.191-0.05-1.777-0.106c-0.586-0.058-1.137-0.157-1.65-0.301
				c-0.457-0.113-0.793-0.3-1.006-0.557c-0.215-0.257-0.314-0.514-0.301-0.771c0.016-0.257,0.158-0.478,0.428-0.664
				c0.273-0.186,0.664-0.278,1.18-0.278c0.314,0,0.828,0.029,1.541,0.086c0.715,0.058,1.465,0.101,2.25,0.128
				c0.785,0.029,1.514,0.036,2.186,0.021c0.67-0.014,1.105-0.063,1.307-0.149c0.086-0.028,0.129-0.071,0.129-0.129
				c0.172-0.514,0.355-1.057,0.557-1.628c0.199-0.571,0.4-1.128,0.6-1.671c0.199-0.542,0.393-1.057,0.578-1.543
				c0.186-0.485,0.35-0.899,0.494-1.242c0.113-0.257,0.348-0.364,0.705-0.321s0.729,0.165,1.115,0.364
				c0.385,0.2,0.721,0.45,1.006,0.75s0.414,0.578,0.387,0.835c-0.086,0.743-0.287,1.472-0.6,2.186
				c-0.314,0.714-0.586,1.528-0.814,2.442c1.799-0.028,3.348-0.05,4.648-0.064c1.299-0.015,2.564-0.021,3.793-0.021
				c0.398,0,0.799,0.007,1.199,0.021c0.398,0.015,0.707,0.05,0.92,0.107c0.215,0.057,0.264,0.136,0.15,0.235
				c-0.113,0.101-0.486,0.235-1.113,0.407c-1.801,0.571-3.543,1.007-5.229,1.307s-3.342,0.521-4.969,0.664
				c-0.145,0.028-0.207,0.058-0.193,0.086s-0.021,0.114-0.107,0.257c0,0.028-0.014,0.058-0.043,0.086
				c-0.027,0.028-0.043,0.058-0.043,0.085c-0.457,1.258-0.957,2.672-1.498,4.242c-0.543,1.571-1.086,3.186-1.629,4.842
				s-1.057,3.285-1.543,4.884c-0.486,1.601-0.9,3.05-1.242,4.35c-0.344,1.3-0.594,2.385-0.75,3.256S122.206,94.118,122.349,94.318z"
				/>
			<path fill="#222944" d="M141.886,82.622c0.344-0.028,0.713-0.114,1.113-0.258c0.4-0.143,0.771-0.257,1.115-0.343
				c0.398-0.113,0.82-0.249,1.264-0.406s0.863-0.279,1.264-0.364c0.285,0,0.4,0.079,0.344,0.235
				c-0.059,0.157-0.193,0.343-0.408,0.557c-0.213,0.215-0.457,0.422-0.729,0.622s-0.479,0.343-0.621,0.428
				c-0.686,0.315-1.363,0.558-2.035,0.729c-0.672,0.172-1.307,0.415-1.906,0.729c-0.258,0.457-0.615,1.064-1.07,1.821
				c-0.459,0.757-0.965,1.492-1.521,2.206c-0.557,0.715-1.143,1.328-1.758,1.843c-0.613,0.514-1.207,0.771-1.777,0.771
				c-0.801,0-1.486-0.229-2.057-0.686c-0.428-0.285-0.75-0.729-0.965-1.328c-0.213-0.601-0.342-1.25-0.385-1.95
				c-0.043-0.699-0.021-1.385,0.064-2.057c0.086-0.671,0.186-1.221,0.299-1.649c0.029-0.199,0.072-0.335,0.129-0.407
				c0.059-0.07,0.115-0.121,0.172-0.149s0.121-0.058,0.193-0.086c0.07-0.028,0.135-0.086,0.191-0.172
				c0.086-0.313,0.172-0.643,0.258-0.985s0.215-0.656,0.385-0.942c0.486-0.856,1.107-1.649,1.865-2.378
				c0.756-0.729,1.635-1.149,2.635-1.264c0.627-0.114,1.207-0.086,1.734,0.086c0.529,0.171,0.992,0.5,1.393,0.985
				c0.344,0.371,0.586,0.778,0.729,1.221c0.143,0.443,0.229,0.872,0.258,1.285c0.027,0.415,0.014,0.793-0.043,1.136
				C141.956,82.193,141.913,82.45,141.886,82.622z M135.63,89.648c0.285-0.057,0.607-0.264,0.965-0.621
				c0.357-0.356,0.699-0.764,1.027-1.221s0.615-0.922,0.857-1.393c0.242-0.472,0.406-0.864,0.492-1.179
				c-0.57,0.058-1.186,0.086-1.842,0.086c-0.658,0-1.271-0.057-1.842-0.172c-0.086,0.258-0.145,0.594-0.172,1.007
				c-0.029,0.415-0.029,0.843,0,1.286c0.027,0.442,0.086,0.864,0.172,1.264C135.374,89.106,135.487,89.42,135.63,89.648z
				 M139.444,83.05c0.057,0,0.113-0.027,0.17-0.085c0.059-0.058,0.086-0.114,0.086-0.172c0.229-0.542,0.336-1.142,0.322-1.799
				c-0.016-0.657-0.223-1.186-0.621-1.586c-0.201-0.229-0.457-0.356-0.771-0.386c-0.314-0.028-0.615,0.029-0.9,0.172
				c-0.572,0.343-1.027,0.743-1.371,1.199c-0.342,0.457-0.672,0.929-0.984,1.414c0,0.144,0.027,0.243,0.084,0.3
				c0.287,0.257,0.414,0.543,0.387,0.857c0,0.143,0.164,0.229,0.492,0.257s0.699,0.036,1.115,0.021
				c0.412-0.014,0.812-0.05,1.199-0.107C139.036,83.079,139.3,83.05,139.444,83.05z"/>
			<path fill="#222944" d="M148.056,86.093c-0.572-0.8-1.135-1.614-1.691-2.442c-0.559-0.828-0.836-1.742-0.836-2.742
				c0-1.114,0.32-2.164,0.963-3.149c0.645-0.985,1.379-1.778,2.207-2.378c0.344-0.229,0.693-0.414,1.051-0.557
				c0.355-0.143,0.734-0.129,1.135,0.042c0.172,0.086,0.35,0.15,0.535,0.193s0.35,0.093,0.494,0.149
				c0.143,0.058,0.299,0.144,0.471,0.258s0.256,0.271,0.256,0.471c0,0.801,0.021,1.45,0.064,1.95s0.107,0.928,0.193,1.285
				s0.172,0.671,0.258,0.942s0.17,0.564,0.256,0.879c0.057,0.285,0.043,0.528-0.043,0.728c-0.084,0.2-0.299,0.229-0.643,0.086
				c-0.629-0.229-1.092-0.686-1.393-1.371c-0.299-0.686-0.521-1.313-0.664-1.885c-0.027-0.114-0.1-0.314-0.213-0.601
				c-0.115-0.285-0.188-0.485-0.215-0.6c-0.229-0.057-0.5,0.021-0.814,0.235c-0.314,0.215-0.594,0.508-0.836,0.879
				s-0.4,0.8-0.471,1.285c-0.072,0.486,0.021,0.972,0.279,1.457c0.113,0.171,0.277,0.379,0.492,0.621
				c0.215,0.243,0.428,0.493,0.643,0.75s0.428,0.507,0.643,0.75s0.393,0.436,0.535,0.578c0.172,0.171,0.285,0.265,0.344,0.278
				c0.057,0.015,0.199-0.021,0.428-0.107c0.285-0.143,0.721-0.327,1.307-0.557c0.586-0.229,1.199-0.456,1.844-0.686
				c0.643-0.229,1.256-0.421,1.842-0.578c0.584-0.157,1.035-0.236,1.35-0.236c0.199,0,0.342,0.072,0.428,0.215
				c0.086,0.086,0.072,0.2-0.043,0.343c-0.113,0.144-0.264,0.286-0.449,0.429s-0.379,0.271-0.578,0.385
				c-0.201,0.115-0.328,0.187-0.387,0.215c-0.484,0.286-1.1,0.607-1.842,0.964c-0.742,0.357-1.385,0.707-1.928,1.05
				c-0.059,0.058-0.164,0.114-0.322,0.171c-0.156,0.058-0.277,0.115-0.363,0.172c0.342,0.771,0.584,1.436,0.729,1.992
				c0.143,0.557,0.193,1.093,0.15,1.606c-0.043,0.515-0.15,1.036-0.322,1.564s-0.4,1.135-0.686,1.82
				c-0.4,0.657-0.807,1.286-1.221,1.885s-0.879,1.142-1.393,1.628c-0.514,0.485-1.072,0.871-1.672,1.157
				c-0.6,0.285-1.256,0.429-1.971,0.429c-0.398,0-0.785-0.051-1.156-0.15c-0.371-0.101-0.686-0.308-0.943-0.621
				c-0.656-0.715-1.027-1.493-1.113-2.335c-0.086-0.843-0.014-1.678,0.215-2.506c0.17-0.515,0.385-0.985,0.643-1.414
				c0.629-1.085,1.32-2.006,2.078-2.764C146.434,87.5,147.227,86.778,148.056,86.093z M149.513,88.02
				c-0.314,0.314-0.742,0.765-1.285,1.35c-0.543,0.586-1.051,1.221-1.521,1.906s-0.857,1.364-1.156,2.035
				c-0.301,0.671-0.379,1.25-0.236,1.735c0.572-0.257,1.156-0.679,1.758-1.263c0.6-0.586,1.127-1.229,1.584-1.928
				c0.457-0.7,0.779-1.393,0.965-2.078S149.77,88.507,149.513,88.02z"/>
			<path fill="#222944" d="M39.015,125.026c-0.828,1.857-1.578,3.649-2.25,5.377c-0.67,1.728-1.307,3.428-1.906,5.099
				s-1.191,3.342-1.777,5.013c-0.586,1.672-1.221,3.392-1.906,5.163c-0.029,0.086-0.064,0.2-0.107,0.343s-0.121,0.285-0.236,0.429
				c-0.172,0.229-0.307,0.343-0.406,0.343s-0.178-0.043-0.236-0.129c-0.342-0.457-0.564-1.07-0.664-1.842s-0.078-1.528,0.064-2.271
				c0.258-1.371,0.607-2.813,1.049-4.327c0.443-1.515,0.93-3.049,1.457-4.605c0.529-1.558,1.094-3.128,1.693-4.714
				c0.6-1.585,1.199-3.134,1.799-4.648c0.715-1.714,1.385-3.299,2.014-4.756s1.258-2.885,1.885-4.284
				c0.229-0.343,0.529-0.479,0.9-0.407s0.713,0.265,1.029,0.578c0.312,0.314,0.557,0.7,0.729,1.157
				c0.17,0.457,0.199,0.886,0.084,1.285c-0.342,0.914-0.721,1.757-1.135,2.528c-0.414,0.771-0.779,1.57-1.092,2.398
				c0.998-0.971,1.998-1.898,2.998-2.784s2.143-1.485,3.428-1.8c0.572-0.086,1.035-0.057,1.393,0.086s0.643,0.357,0.857,0.643
				c0.215,0.286,0.371,0.628,0.471,1.028s0.178,0.8,0.236,1.199c0.027-0.057,0.078-0.078,0.15-0.064
				c0.07,0.016,0.135-0.006,0.191-0.063c0.914-0.258,1.844-0.443,2.785-0.558c0.943-0.113,1.871-0.171,2.785-0.171
				c0.457-0.058,0.785,0.015,0.986,0.214c0.199,0.2,0.07,0.372-0.387,0.515c-0.514,0.143-1.057,0.278-1.627,0.406
				c-0.572,0.129-1.143,0.272-1.715,0.429c-0.57,0.157-1.121,0.321-1.648,0.493c-0.529,0.171-0.994,0.386-1.393,0.643
				c-0.373,0.229-0.701,0.657-0.986,1.285c-0.342,0.829-0.842,1.636-1.5,2.421c-0.656,0.786-1.393,1.479-2.205,2.078
				c-0.814,0.6-1.672,1.057-2.572,1.371c-0.898,0.314-1.777,0.4-2.635,0.257c-0.514-0.143-0.857-0.45-1.027-0.921
				c-0.172-0.472-0.287-0.949-0.344-1.436c0-0.514,0.215-0.771,0.643-0.771c0.143-0.085,0.258-0.149,0.344-0.192
				s0.172-0.136,0.256-0.278c0.285-0.515,0.658-0.985,1.115-1.414c0.914-0.771,1.877-1.428,2.893-1.971
				c1.012-0.543,2.02-1,3.02-1.371c0.4-0.114,0.629-0.215,0.686-0.301c0.057-0.085,0.113-0.327,0.172-0.728
				c-0.059-0.571-0.307-0.957-0.75-1.157c-0.443-0.199-1.121-0.057-2.035,0.429c-0.428,0.257-0.893,0.586-1.393,0.985
				c-0.5,0.4-1,0.821-1.5,1.264c-0.5,0.443-0.979,0.886-1.436,1.328C39.8,124.29,39.386,124.683,39.015,125.026z M40.3,127.125
				c0.285,0.143,0.699,0.143,1.242,0s1.1-0.371,1.672-0.686c0.57-0.314,1.107-0.686,1.607-1.114
				c0.498-0.429,0.877-0.857,1.135-1.285c-1,0.4-1.965,0.85-2.893,1.35S41.214,126.468,40.3,127.125z"/>
			<path fill="#222944" d="M59.151,128.154c-0.256,0.2-0.543,0.422-0.855,0.664c-0.316,0.243-0.658,0.457-1.029,0.643
				s-0.764,0.328-1.178,0.429c-0.414,0.1-0.852,0.106-1.307,0.021c-0.344-0.058-0.658-0.179-0.943-0.364s-0.557-0.407-0.814-0.664
				c-0.256-0.258-0.414-0.629-0.471-1.114c-0.057-0.485-0.07-0.871-0.043-1.157c0.143-0.742,0.344-1.527,0.6-2.356
				c0.258-0.828,0.572-1.643,0.943-2.442c0.627-1.313,1.428-2.484,2.398-3.513s2.143-1.686,3.514-1.972
				c0.457-0.113,0.936-0.135,1.436-0.064c0.5,0.072,0.936,0.236,1.307,0.493s0.656,0.578,0.857,0.964
				c0.199,0.386,0.242,0.808,0.129,1.265c-0.059,0.171-0.123,0.343-0.193,0.514c-0.072,0.172-0.158,0.314-0.258,0.429
				s-0.191,0.179-0.277,0.192c-0.086,0.015-0.172-0.064-0.258-0.235c-0.029-0.086-0.064-0.207-0.107-0.364
				c-0.043-0.156-0.107-0.314-0.191-0.472c-0.086-0.156-0.209-0.3-0.365-0.428c-0.158-0.129-0.363-0.193-0.621-0.193
				c-0.543,0-1.156,0.336-1.842,1.007c-0.686,0.672-1.344,1.457-1.971,2.356c-0.629,0.9-1.172,1.8-1.629,2.699
				c-0.457,0.9-0.744,1.579-0.857,2.035c-0.172,0.743-0.156,1.136,0.043,1.179s0.514-0.114,0.943-0.472
				c0.428-0.356,0.914-0.85,1.457-1.478c0.541-0.628,1.055-1.25,1.541-1.864c0.486-0.613,0.906-1.156,1.264-1.628
				s0.551-0.721,0.58-0.75c0.371-0.285,0.742-0.414,1.113-0.386c0.371,0.029,0.691,0.165,0.965,0.407
				c0.27,0.243,0.455,0.543,0.557,0.899c0.1,0.357,0.064,0.722-0.107,1.093c-0.201,0.457-0.465,1-0.793,1.628
				c-0.328,0.629-0.535,1.187-0.621,1.672c-0.086,0.742,0,1.229,0.258,1.456c0.256,0.229,0.729,0.215,1.414-0.043
				c0.541-0.228,1.113-0.635,1.713-1.221c0.6-0.585,1.193-1.206,1.777-1.864c0.586-0.656,1.137-1.285,1.65-1.885
				s0.943-1.042,1.285-1.328c0.086-0.086,0.193-0.178,0.322-0.278c0.127-0.1,0.234-0.121,0.32-0.064
				c0.143,0.058,0.221,0.136,0.236,0.235c0.014,0.101,0.021,0.208,0.021,0.321c-0.371,0.915-0.814,1.814-1.328,2.699
				c-0.514,0.886-1.094,1.707-1.736,2.464c-0.643,0.757-1.355,1.429-2.143,2.014c-0.785,0.586-1.635,1.05-2.549,1.393
				c-0.572,0.199-1.086,0.264-1.543,0.193c-0.457-0.072-0.871-0.236-1.242-0.493s-0.672-0.585-0.898-0.985
				C59.393,129.04,59.237,128.611,59.151,128.154z"/>
			<path fill="#222944" d="M80.104,118.47c-1.086,0.486-2.086,1.207-3,2.164s-1.777,2.021-2.592,3.191
				c-0.814,1.172-1.607,2.386-2.379,3.643c-0.771,1.257-1.541,2.428-2.312,3.513c-0.229,0.258-0.5,0.328-0.814,0.215
				c-0.314-0.114-0.514-0.336-0.6-0.664s-0.057-0.679,0.086-1.05c0.199-0.686,0.393-1.457,0.578-2.313
				c0.186-0.857,0.363-1.757,0.535-2.7c0.172-0.942,0.35-1.885,0.535-2.827s0.379-1.843,0.578-2.699
				c0.059-0.229,0.193-0.407,0.408-0.536c0.213-0.128,0.449-0.199,0.707-0.214c0.256-0.015,0.484,0.036,0.686,0.149
				c0.199,0.115,0.328,0.286,0.385,0.515c0.113,0.571,0.078,1.257-0.107,2.057s-0.393,1.585-0.621,2.356
				c0.514-0.628,1.078-1.363,1.693-2.207c0.613-0.842,1.285-1.628,2.014-2.356s1.5-1.328,2.312-1.799
				c0.814-0.472,1.664-0.664,2.551-0.579c0.455,0.144,0.82,0.379,1.092,0.707c0.271,0.329,0.479,0.7,0.621,1.114
				s0.221,0.821,0.236,1.221c0.014,0.4-0.021,0.743-0.107,1.028c-0.201,0.4-0.436,0.836-0.707,1.308
				c-0.271,0.471-0.486,0.949-0.643,1.435c-0.158,0.486-0.221,0.965-0.193,1.436c0.029,0.472,0.258,0.894,0.686,1.264
				c0.172,0.229,0.156,0.4-0.043,0.515s-0.471,0.179-0.814,0.192c-0.342,0.015-0.686-0.021-1.027-0.106
				c-0.342-0.086-0.586-0.215-0.729-0.386c-0.457-0.628-0.736-1.264-0.836-1.907c-0.1-0.643-0.078-1.292,0.064-1.949
				c0.143-0.656,0.371-1.3,0.686-1.928S79.704,119.041,80.104,118.47z"/>
			<path fill="#222944" d="M89.915,128.154c-0.256,0.2-0.543,0.422-0.855,0.664c-0.316,0.243-0.658,0.457-1.029,0.643
				s-0.764,0.328-1.178,0.429c-0.414,0.1-0.852,0.106-1.307,0.021c-0.344-0.058-0.658-0.179-0.943-0.364s-0.557-0.407-0.814-0.664
				c-0.256-0.258-0.414-0.629-0.471-1.114c-0.057-0.485-0.07-0.871-0.043-1.157c0.143-0.742,0.344-1.527,0.6-2.356
				c0.258-0.828,0.572-1.643,0.943-2.442c0.627-1.313,1.428-2.484,2.398-3.513s2.143-1.686,3.514-1.972
				c0.457-0.113,0.936-0.135,1.436-0.064c0.5,0.072,0.936,0.236,1.307,0.493s0.656,0.578,0.857,0.964
				c0.199,0.386,0.242,0.808,0.129,1.265c-0.059,0.171-0.123,0.343-0.193,0.514c-0.072,0.172-0.158,0.314-0.258,0.429
				s-0.191,0.179-0.277,0.192c-0.086,0.015-0.172-0.064-0.258-0.235c-0.029-0.086-0.064-0.207-0.107-0.364
				c-0.043-0.156-0.107-0.314-0.191-0.472c-0.086-0.156-0.209-0.3-0.365-0.428c-0.158-0.129-0.363-0.193-0.621-0.193
				c-0.543,0-1.156,0.336-1.842,1.007c-0.686,0.672-1.344,1.457-1.971,2.356c-0.629,0.9-1.172,1.8-1.629,2.699
				c-0.457,0.9-0.744,1.579-0.857,2.035c-0.172,0.743-0.156,1.136,0.043,1.179s0.514-0.114,0.943-0.472
				c0.428-0.356,0.914-0.85,1.457-1.478c0.541-0.628,1.055-1.25,1.541-1.864c0.486-0.613,0.906-1.156,1.264-1.628
				s0.551-0.721,0.58-0.75c0.371-0.285,0.742-0.414,1.113-0.386c0.371,0.029,0.691,0.165,0.965,0.407
				c0.27,0.243,0.455,0.543,0.557,0.899c0.1,0.357,0.064,0.722-0.107,1.093c-0.201,0.457-0.465,1-0.793,1.628
				c-0.328,0.629-0.535,1.187-0.621,1.672c-0.086,0.742,0,1.229,0.258,1.456c0.256,0.229,0.729,0.215,1.414-0.043
				c0.541-0.228,1.113-0.635,1.713-1.221c0.6-0.585,1.193-1.206,1.777-1.864c0.586-0.656,1.137-1.285,1.65-1.885
				s0.943-1.042,1.285-1.328c0.086-0.086,0.193-0.178,0.322-0.278c0.127-0.1,0.234-0.121,0.32-0.064
				c0.143,0.058,0.221,0.136,0.236,0.235c0.014,0.101,0.021,0.208,0.021,0.321c-0.371,0.915-0.814,1.814-1.328,2.699
				c-0.514,0.886-1.094,1.707-1.736,2.464c-0.643,0.757-1.355,1.429-2.143,2.014c-0.785,0.586-1.635,1.05-2.549,1.393
				c-0.572,0.199-1.086,0.264-1.543,0.193c-0.457-0.072-0.871-0.236-1.242-0.493s-0.672-0.585-0.898-0.985
				C90.157,129.04,90.001,128.611,89.915,128.154z"/>
			<path fill="#222944" d="M110.224,134.023c0.172,0.543,0.521,0.714,1.051,0.515c0.527-0.2,1.141-0.629,1.842-1.285
				c0.699-0.657,1.436-1.457,2.207-2.399s1.506-1.871,2.205-2.785c0.701-0.914,1.309-1.742,1.822-2.485
				c0.514-0.742,0.855-1.228,1.027-1.457c0.143-0.228,0.307-0.442,0.494-0.643c0.184-0.199,0.42-0.413,0.705-0.643
				c0.115-0.086,0.25-0.178,0.408-0.278c0.156-0.1,0.293-0.143,0.406-0.129c0.115,0.016,0.164,0.107,0.15,0.279
				c-0.014,0.171-0.121,0.457-0.32,0.856c-0.172,0.343-0.443,0.864-0.814,1.564c-0.373,0.7-0.83,1.485-1.371,2.356
				c-0.543,0.871-1.143,1.771-1.801,2.699c-0.656,0.928-1.363,1.792-2.121,2.592c-0.756,0.8-1.527,1.5-2.312,2.1
				c-0.787,0.6-1.578,0.985-2.379,1.157c-0.713,0.171-1.371,0.264-1.971,0.278c-0.6,0.014-1.127-0.208-1.584-0.664
				c-0.43-0.429-0.672-1.043-0.729-1.843s-0.021-1.649,0.105-2.549c0.129-0.9,0.309-1.771,0.537-2.614
				c0.229-0.842,0.414-1.492,0.557-1.949c0.457-1.485,0.893-2.949,1.307-4.392s0.82-2.893,1.221-4.349
				c0.43-1.286,0.82-2.606,1.178-3.964c0.357-1.356,0.723-2.577,1.094-3.663c-0.572-0.028-1.156-0.05-1.758-0.064
				c-0.6-0.014-1.199-0.028-1.799-0.043c-0.6-0.014-1.191-0.05-1.777-0.106c-0.586-0.058-1.137-0.157-1.65-0.301
				c-0.457-0.113-0.793-0.3-1.006-0.557c-0.215-0.257-0.314-0.514-0.301-0.771c0.016-0.257,0.158-0.478,0.428-0.664
				c0.273-0.186,0.664-0.278,1.18-0.278c0.314,0,0.828,0.029,1.541,0.086c0.715,0.058,1.465,0.101,2.25,0.128
				c0.785,0.029,1.514,0.036,2.186,0.021c0.67-0.014,1.105-0.063,1.307-0.149c0.086-0.028,0.129-0.071,0.129-0.129
				c0.172-0.514,0.355-1.057,0.557-1.628c0.199-0.571,0.4-1.128,0.6-1.671c0.199-0.542,0.393-1.057,0.578-1.543
				c0.186-0.485,0.35-0.899,0.494-1.242c0.113-0.257,0.348-0.364,0.705-0.321s0.729,0.165,1.115,0.364
				c0.385,0.2,0.721,0.45,1.006,0.75s0.414,0.578,0.387,0.835c-0.086,0.743-0.287,1.472-0.6,2.186
				c-0.314,0.714-0.586,1.528-0.814,2.442c1.799-0.028,3.348-0.05,4.648-0.064c1.299-0.015,2.564-0.021,3.793-0.021
				c0.398,0,0.799,0.007,1.199,0.021c0.398,0.015,0.707,0.05,0.92,0.107c0.215,0.057,0.264,0.136,0.15,0.235
				c-0.113,0.101-0.486,0.235-1.113,0.407c-1.801,0.571-3.543,1.007-5.229,1.307s-3.342,0.521-4.969,0.664
				c-0.145,0.028-0.207,0.058-0.193,0.086s-0.021,0.114-0.107,0.257c0,0.028-0.014,0.058-0.043,0.086
				c-0.027,0.028-0.043,0.058-0.043,0.085c-0.457,1.258-0.957,2.672-1.498,4.242c-0.543,1.571-1.086,3.186-1.629,4.842
				s-1.057,3.285-1.543,4.884c-0.486,1.601-0.9,3.05-1.242,4.35c-0.344,1.3-0.594,2.385-0.75,3.256S110.081,133.823,110.224,134.023
				z"/>
			<path fill="#222944" d="M129.761,122.327c0.344-0.028,0.713-0.114,1.113-0.258c0.4-0.143,0.771-0.257,1.115-0.343
				c0.398-0.113,0.82-0.249,1.264-0.406s0.863-0.279,1.264-0.364c0.285,0,0.4,0.079,0.344,0.235
				c-0.059,0.157-0.193,0.343-0.408,0.557c-0.213,0.215-0.457,0.422-0.729,0.622s-0.479,0.343-0.621,0.428
				c-0.686,0.315-1.363,0.558-2.035,0.729c-0.672,0.172-1.307,0.415-1.906,0.729c-0.258,0.457-0.615,1.064-1.07,1.821
				c-0.459,0.757-0.965,1.492-1.521,2.206c-0.557,0.715-1.143,1.328-1.758,1.843c-0.613,0.514-1.207,0.771-1.777,0.771
				c-0.801,0-1.486-0.229-2.057-0.686c-0.428-0.285-0.75-0.729-0.965-1.328c-0.213-0.601-0.342-1.25-0.385-1.95
				c-0.043-0.699-0.021-1.385,0.064-2.057c0.086-0.671,0.186-1.221,0.299-1.649c0.029-0.199,0.072-0.335,0.129-0.407
				c0.059-0.07,0.115-0.121,0.172-0.149s0.121-0.058,0.193-0.086c0.07-0.028,0.135-0.086,0.191-0.172
				c0.086-0.313,0.172-0.643,0.258-0.985s0.215-0.656,0.385-0.942c0.486-0.856,1.107-1.649,1.865-2.378
				c0.756-0.729,1.635-1.149,2.635-1.264c0.627-0.114,1.207-0.086,1.734,0.086c0.529,0.171,0.992,0.5,1.393,0.985
				c0.344,0.371,0.586,0.778,0.729,1.221c0.143,0.443,0.229,0.872,0.258,1.285c0.027,0.415,0.014,0.793-0.043,1.136
				C129.831,121.898,129.788,122.155,129.761,122.327z M123.505,129.353c0.285-0.057,0.607-0.264,0.965-0.621
				c0.357-0.356,0.699-0.764,1.027-1.221s0.615-0.922,0.857-1.393c0.242-0.472,0.406-0.864,0.492-1.179
				c-0.57,0.058-1.186,0.086-1.842,0.086c-0.658,0-1.271-0.057-1.842-0.172c-0.086,0.258-0.145,0.594-0.172,1.007
				c-0.029,0.415-0.029,0.843,0,1.286c0.027,0.442,0.086,0.864,0.172,1.264C123.249,128.811,123.362,129.124,123.505,129.353z
				 M127.319,122.754c0.057,0,0.113-0.027,0.17-0.085c0.059-0.058,0.086-0.114,0.086-0.172c0.229-0.542,0.336-1.142,0.322-1.799
				c-0.016-0.657-0.223-1.186-0.621-1.586c-0.201-0.229-0.457-0.356-0.771-0.386c-0.314-0.028-0.615,0.029-0.9,0.172
				c-0.572,0.343-1.027,0.743-1.371,1.199c-0.342,0.457-0.672,0.929-0.984,1.414c0,0.144,0.027,0.243,0.084,0.3
				c0.287,0.257,0.414,0.543,0.387,0.857c0,0.143,0.164,0.229,0.492,0.257s0.699,0.036,1.115,0.021
				c0.412-0.014,0.812-0.05,1.199-0.107C126.911,122.784,127.175,122.754,127.319,122.754z"/>
			<path fill="#222944" d="M142.229,118.899c0-0.057,0.014-0.1,0.043-0.129c0-0.028,0.014-0.043,0.043-0.043
				c0.885-1.885,1.764-3.706,2.635-5.463s1.756-3.449,2.656-5.077s1.842-3.198,2.828-4.713c0.984-1.514,2.035-2.984,3.148-4.413
				c0.629-0.714,1.137-1.028,1.521-0.942c0.387,0.085,0.672,0.379,0.857,0.878c0.186,0.5,0.293,1.093,0.32,1.778
				c0.029,0.686,0.016,1.242-0.043,1.671c-0.428,1.771-1.006,3.542-1.734,5.312c-0.729,1.771-1.551,3.535-2.463,5.292
				c-0.916,1.757-1.9,3.507-2.957,5.249s-2.129,3.484-3.213,5.227c-0.145,0.172-0.252,0.351-0.322,0.536
				c-0.072,0.186-0.137,0.393-0.193,0.621c-0.057,0.257-0.121,0.621-0.191,1.093c-0.072,0.471-0.115,0.964-0.129,1.478
				c-0.016,0.515,0.021,0.985,0.107,1.414s0.242,0.7,0.471,0.814c0.342,0.171,0.842,0.136,1.5-0.107
				c0.656-0.242,1.355-0.606,2.1-1.093c0.742-0.485,1.492-1.042,2.248-1.671c0.758-0.628,1.408-1.228,1.951-1.8
				c0.057-0.057,0.143-0.049,0.256,0.021c0.113,0.072,0.207,0.179,0.279,0.321c0.07,0.144,0.1,0.308,0.086,0.493
				c-0.016,0.187-0.123,0.364-0.322,0.535c-0.656,0.572-1.465,1.293-2.42,2.164c-0.957,0.872-1.957,1.679-3,2.421
				s-2.064,1.307-3.062,1.692c-1.002,0.386-1.857,0.393-2.572,0.021c-0.656-0.343-1.121-0.894-1.393-1.649
				c-0.271-0.757-0.422-1.586-0.449-2.485c-0.029-0.899,0.006-1.785,0.107-2.656c0.1-0.871,0.193-1.564,0.277-2.078
				c-0.057,0.058-0.105,0.136-0.148,0.235c-0.043,0.101-0.094,0.193-0.15,0.278c-0.4,0.458-0.857,1.008-1.371,1.65
				s-1.078,1.235-1.693,1.777c-0.613,0.543-1.264,0.958-1.949,1.243s-1.385,0.3-2.1,0.043c-0.398-0.229-0.75-0.507-1.049-0.836
				c-0.301-0.328-0.449-0.764-0.449-1.307c0-1.057,0.207-2.128,0.621-3.214c0.414-1.085,0.977-2.049,1.691-2.892
				s1.557-1.514,2.527-2.014s2.014-0.707,3.129-0.621c0.314,0.057,0.635,0.136,0.963,0.235c0.328,0.101,0.607,0.278,0.836,0.535
				L142.229,118.899z M135.503,125.369l0.086,0.128c0.971-0.771,1.949-1.534,2.934-2.292c0.986-0.756,2.008-1.506,3.064-2.249
				c-0.6-0.285-1.25-0.321-1.949-0.107c-0.701,0.214-1.357,0.572-1.971,1.071c-0.615,0.5-1.129,1.071-1.543,1.714
				S135.503,124.854,135.503,125.369z M154.741,103.988c-1.801,2.771-3.4,5.613-4.799,8.526c-1.4,2.914-2.629,5.928-3.686,9.041
				c0.656-1.199,1.436-2.57,2.336-4.113c0.898-1.542,1.777-3.12,2.635-4.734c0.857-1.613,1.613-3.185,2.27-4.713
				C154.155,106.466,154.569,105.131,154.741,103.988z"/>
			<path fill="#222944" d="M162.11,122.327c0.342-0.028,0.713-0.114,1.113-0.258c0.4-0.143,0.771-0.257,1.113-0.343
				c0.4-0.113,0.822-0.249,1.264-0.406c0.443-0.157,0.865-0.279,1.266-0.364c0.285,0,0.398,0.079,0.342,0.235
				c-0.057,0.157-0.193,0.343-0.406,0.557c-0.215,0.215-0.457,0.422-0.729,0.622s-0.479,0.343-0.621,0.428
				c-0.686,0.315-1.365,0.558-2.035,0.729c-0.672,0.172-1.307,0.415-1.908,0.729c-0.256,0.457-0.613,1.064-1.07,1.821
				s-0.965,1.492-1.521,2.206c-0.557,0.715-1.143,1.328-1.756,1.843c-0.615,0.514-1.207,0.771-1.779,0.771
				c-0.799,0-1.484-0.229-2.057-0.686c-0.428-0.285-0.748-0.729-0.963-1.328c-0.215-0.601-0.344-1.25-0.387-1.95
				c-0.043-0.699-0.021-1.385,0.064-2.057c0.086-0.671,0.188-1.221,0.301-1.649c0.029-0.199,0.072-0.335,0.129-0.407
				c0.057-0.07,0.113-0.121,0.17-0.149c0.059-0.028,0.123-0.058,0.193-0.086c0.072-0.028,0.137-0.086,0.193-0.172
				c0.086-0.313,0.172-0.643,0.256-0.985c0.086-0.343,0.215-0.656,0.387-0.942c0.484-0.856,1.107-1.649,1.863-2.378
				c0.758-0.729,1.635-1.149,2.635-1.264c0.629-0.114,1.207-0.086,1.736,0.086c0.527,0.171,0.992,0.5,1.393,0.985
				c0.342,0.371,0.584,0.778,0.729,1.221c0.143,0.443,0.229,0.872,0.256,1.285c0.029,0.415,0.016,0.793-0.043,1.136
				C162.181,121.898,162.138,122.155,162.11,122.327z M155.854,129.353c0.285-0.057,0.605-0.264,0.963-0.621
				c0.357-0.356,0.701-0.764,1.029-1.221s0.613-0.922,0.857-1.393c0.242-0.472,0.406-0.864,0.492-1.179
				c-0.572,0.058-1.186,0.086-1.842,0.086c-0.658,0-1.271-0.057-1.844-0.172c-0.086,0.258-0.143,0.594-0.172,1.007
				c-0.027,0.415-0.027,0.843,0,1.286c0.029,0.442,0.086,0.864,0.172,1.264C155.597,128.811,155.71,129.124,155.854,129.353z
				 M159.667,122.754c0.057,0,0.113-0.027,0.172-0.085c0.057-0.058,0.086-0.114,0.086-0.172c0.229-0.542,0.334-1.142,0.32-1.799
				s-0.221-1.186-0.621-1.586c-0.199-0.229-0.457-0.356-0.771-0.386c-0.314-0.028-0.613,0.029-0.898,0.172
				c-0.572,0.343-1.029,0.743-1.371,1.199c-0.344,0.457-0.672,0.929-0.986,1.414c0,0.144,0.029,0.243,0.086,0.3
				c0.285,0.257,0.414,0.543,0.385,0.857c0,0.143,0.164,0.229,0.494,0.257c0.328,0.028,0.699,0.036,1.113,0.021
				c0.414-0.014,0.814-0.05,1.199-0.107C159.261,122.784,159.524,122.754,159.667,122.754z"/>
			<path fill="#222944" d="M168.278,125.797c-0.572-0.8-1.135-1.614-1.691-2.442c-0.559-0.828-0.836-1.742-0.836-2.742
				c0-1.114,0.32-2.164,0.963-3.149c0.645-0.985,1.379-1.778,2.207-2.378c0.344-0.229,0.693-0.414,1.051-0.557
				c0.355-0.143,0.734-0.129,1.135,0.042c0.172,0.086,0.35,0.15,0.535,0.193s0.35,0.093,0.494,0.149
				c0.143,0.058,0.299,0.144,0.471,0.258s0.256,0.271,0.256,0.471c0,0.801,0.021,1.45,0.064,1.95s0.107,0.928,0.193,1.285
				s0.172,0.671,0.258,0.942s0.17,0.564,0.256,0.879c0.057,0.285,0.043,0.528-0.043,0.728c-0.084,0.2-0.299,0.229-0.643,0.086
				c-0.629-0.229-1.092-0.686-1.393-1.371c-0.299-0.686-0.521-1.313-0.664-1.885c-0.027-0.114-0.1-0.314-0.213-0.601
				c-0.115-0.285-0.188-0.485-0.215-0.6c-0.229-0.057-0.5,0.021-0.814,0.235c-0.314,0.215-0.594,0.508-0.836,0.879
				s-0.4,0.8-0.471,1.285c-0.072,0.486,0.021,0.972,0.279,1.457c0.113,0.171,0.277,0.379,0.492,0.621
				c0.215,0.243,0.428,0.493,0.643,0.75s0.428,0.507,0.643,0.75s0.393,0.436,0.535,0.578c0.172,0.171,0.285,0.265,0.344,0.278
				c0.057,0.015,0.199-0.021,0.428-0.107c0.285-0.143,0.721-0.327,1.307-0.557c0.586-0.229,1.199-0.456,1.844-0.686
				c0.643-0.229,1.256-0.421,1.842-0.578c0.584-0.157,1.035-0.236,1.35-0.236c0.199,0,0.342,0.072,0.428,0.215
				c0.086,0.086,0.072,0.2-0.043,0.343c-0.113,0.144-0.264,0.286-0.449,0.429s-0.379,0.271-0.578,0.385
				c-0.201,0.115-0.328,0.187-0.387,0.215c-0.484,0.286-1.1,0.607-1.842,0.964c-0.742,0.357-1.385,0.707-1.928,1.05
				c-0.059,0.058-0.164,0.114-0.322,0.171c-0.156,0.058-0.277,0.115-0.363,0.172c0.342,0.771,0.584,1.436,0.729,1.992
				c0.143,0.557,0.193,1.093,0.15,1.606c-0.043,0.515-0.15,1.036-0.322,1.564s-0.4,1.135-0.686,1.82
				c-0.4,0.657-0.807,1.286-1.221,1.886s-0.879,1.142-1.393,1.628c-0.514,0.485-1.072,0.871-1.672,1.157
				c-0.6,0.285-1.256,0.429-1.971,0.429c-0.398,0-0.785-0.051-1.156-0.15c-0.371-0.101-0.686-0.308-0.943-0.621
				c-0.656-0.715-1.027-1.493-1.113-2.335c-0.086-0.843-0.014-1.679,0.215-2.507c0.17-0.515,0.385-0.985,0.643-1.414
				c0.629-1.085,1.32-2.006,2.078-2.764C166.657,127.205,167.45,126.483,168.278,125.797z M169.735,127.725
				c-0.314,0.314-0.742,0.765-1.285,1.35c-0.543,0.586-1.051,1.221-1.521,1.906s-0.857,1.364-1.156,2.035
				c-0.301,0.671-0.379,1.25-0.236,1.735c0.572-0.257,1.156-0.679,1.758-1.264c0.6-0.586,1.127-1.229,1.584-1.928
				c0.457-0.7,0.779-1.393,0.965-2.078S169.993,128.211,169.735,127.725z"/>
			<path fill="#222944" d="M58.425,171.499c0.143,0.285,0.334,0.436,0.578,0.45c0.242,0.014,0.479-0.051,0.707-0.193
				c0.855-0.743,1.67-1.542,2.441-2.399c0.771-0.856,1.506-1.714,2.207-2.57c0.699-0.857,1.385-1.692,2.057-2.507
				c0.67-0.813,1.32-1.549,1.949-2.206c0.229-0.229,0.406-0.279,0.535-0.15s0.15,0.321,0.064,0.578
				c-0.4,0.658-0.799,1.293-1.199,1.907s-0.814,1.235-1.242,1.863c-0.887,1.258-1.793,2.6-2.721,4.028
				c-0.93,1.428-1.949,2.642-3.064,3.642c-0.686,0.628-1.428,0.985-2.229,1.071c-0.742-0.029-1.441-0.265-2.098-0.707
				c-0.658-0.443-1.043-1.036-1.158-1.778c-0.17-1.742-0.143-3.499,0.086-5.271c0.258-2.057,0.672-4.184,1.242-6.384
				c0.572-2.199,1.264-4.384,2.078-6.556c0.814-2.17,1.707-4.284,2.678-6.341s1.986-3.97,3.043-5.741
				c0.484-0.771,0.971-1.507,1.457-2.207c0.484-0.699,1-1.35,1.541-1.949c0.201-0.257,0.451-0.442,0.75-0.557
				c0.301-0.114,0.607-0.101,0.922,0.042c0.629,0.286,0.9,0.814,0.814,1.586c-0.201,1.686-0.551,3.328-1.051,4.927
				c-0.5,1.601-1.107,3.143-1.82,4.628c-0.715,1.485-1.514,2.913-2.398,4.284c-0.887,1.371-1.83,2.672-2.828,3.899
				c-0.086,0.086-0.15,0.186-0.193,0.3s-0.094,0.229-0.15,0.343c-0.428,1.143-0.85,2.399-1.264,3.771s-0.771,2.706-1.07,4.006
				c-0.301,1.3-0.516,2.507-0.643,3.621C58.317,170.042,58.309,170.9,58.425,171.499z M68.964,141.165
				c-1.229,2.057-2.328,4.171-3.299,6.341c-0.971,2.171-1.943,4.343-2.914,6.513c0.258-0.257,0.578-0.692,0.965-1.307
				c0.385-0.614,0.793-1.313,1.221-2.1c0.428-0.785,0.857-1.635,1.285-2.549c0.43-0.914,0.828-1.8,1.199-2.657
				c0.371-0.856,0.701-1.663,0.986-2.42S68.878,141.622,68.964,141.165z"/>
			<path fill="#222944" d="M76.806,162.031c0.342-0.028,0.713-0.114,1.113-0.258c0.4-0.143,0.771-0.257,1.113-0.343
				c0.4-0.113,0.822-0.249,1.264-0.406c0.443-0.157,0.865-0.279,1.266-0.364c0.285,0,0.398,0.079,0.342,0.235
				c-0.057,0.157-0.193,0.343-0.406,0.557c-0.215,0.215-0.457,0.422-0.729,0.622s-0.479,0.343-0.621,0.428
				c-0.686,0.315-1.365,0.558-2.035,0.729c-0.672,0.172-1.307,0.415-1.908,0.729c-0.256,0.457-0.613,1.064-1.07,1.821
				s-0.965,1.492-1.521,2.206c-0.557,0.715-1.143,1.328-1.756,1.843c-0.615,0.514-1.207,0.771-1.779,0.771
				c-0.799,0-1.484-0.229-2.057-0.686c-0.428-0.285-0.748-0.729-0.963-1.328c-0.215-0.601-0.344-1.25-0.387-1.95
				c-0.043-0.699-0.021-1.385,0.064-2.057c0.086-0.671,0.188-1.221,0.301-1.649c0.029-0.199,0.072-0.335,0.129-0.407
				c0.057-0.07,0.113-0.121,0.17-0.149c0.059-0.028,0.123-0.058,0.193-0.086c0.072-0.028,0.137-0.086,0.193-0.172
				c0.086-0.313,0.172-0.643,0.256-0.985c0.086-0.343,0.215-0.656,0.387-0.942c0.484-0.856,1.107-1.649,1.863-2.378
				c0.758-0.729,1.635-1.149,2.635-1.264c0.629-0.114,1.207-0.086,1.736,0.086c0.527,0.171,0.992,0.5,1.393,0.985
				c0.342,0.371,0.584,0.778,0.729,1.221c0.143,0.443,0.229,0.872,0.256,1.285c0.029,0.415,0.016,0.793-0.043,1.136
				C76.876,161.602,76.833,161.859,76.806,162.031z M70.55,169.057c0.285-0.057,0.605-0.264,0.963-0.621
				c0.357-0.356,0.701-0.764,1.029-1.221s0.613-0.922,0.857-1.393c0.242-0.472,0.406-0.864,0.492-1.179
				c-0.572,0.058-1.186,0.086-1.842,0.086c-0.658,0-1.271-0.057-1.844-0.172c-0.086,0.258-0.143,0.594-0.172,1.007
				c-0.027,0.415-0.027,0.843,0,1.286c0.029,0.442,0.086,0.864,0.172,1.264C70.292,168.515,70.405,168.829,70.55,169.057z
				 M74.362,162.458c0.057,0,0.113-0.027,0.172-0.085c0.057-0.058,0.086-0.114,0.086-0.172c0.229-0.542,0.334-1.142,0.32-1.799
				s-0.221-1.186-0.621-1.586c-0.199-0.229-0.457-0.356-0.771-0.386c-0.314-0.028-0.613,0.029-0.898,0.172
				c-0.572,0.343-1.029,0.743-1.371,1.199c-0.344,0.457-0.672,0.929-0.986,1.414c0,0.144,0.029,0.243,0.086,0.3
				c0.285,0.257,0.414,0.543,0.385,0.857c0,0.143,0.164,0.229,0.494,0.257c0.328,0.028,0.699,0.036,1.113,0.021
				c0.414-0.014,0.814-0.05,1.199-0.107C73.956,162.488,74.22,162.458,74.362,162.458z"/>
			<path fill="#222944" d="M82.974,165.501c-0.572-0.8-1.135-1.614-1.691-2.442c-0.559-0.828-0.836-1.742-0.836-2.742
				c0-1.114,0.32-2.164,0.963-3.149c0.645-0.985,1.379-1.778,2.207-2.378c0.344-0.229,0.693-0.414,1.051-0.557
				c0.355-0.143,0.734-0.129,1.135,0.042c0.172,0.086,0.35,0.15,0.535,0.193s0.35,0.093,0.494,0.149
				c0.143,0.058,0.299,0.144,0.471,0.258s0.256,0.271,0.256,0.471c0,0.801,0.021,1.45,0.064,1.95s0.107,0.928,0.193,1.285
				s0.172,0.671,0.258,0.942s0.17,0.564,0.256,0.879c0.057,0.285,0.043,0.528-0.043,0.728c-0.084,0.2-0.299,0.229-0.643,0.086
				c-0.629-0.229-1.092-0.686-1.393-1.371c-0.299-0.686-0.521-1.313-0.664-1.885c-0.027-0.114-0.1-0.314-0.213-0.601
				c-0.115-0.285-0.188-0.485-0.215-0.6c-0.229-0.057-0.5,0.021-0.814,0.235c-0.314,0.215-0.594,0.508-0.836,0.879
				s-0.4,0.8-0.471,1.285c-0.072,0.486,0.021,0.972,0.279,1.457c0.113,0.171,0.277,0.379,0.492,0.621
				c0.215,0.243,0.428,0.493,0.643,0.75s0.428,0.507,0.643,0.75s0.393,0.436,0.535,0.578c0.172,0.171,0.285,0.265,0.344,0.278
				c0.057,0.015,0.199-0.021,0.428-0.107c0.285-0.143,0.721-0.327,1.307-0.557c0.586-0.229,1.199-0.456,1.844-0.686
				c0.643-0.229,1.256-0.421,1.842-0.578c0.584-0.157,1.035-0.236,1.35-0.236c0.199,0,0.342,0.072,0.428,0.215
				c0.086,0.086,0.072,0.2-0.043,0.343c-0.113,0.144-0.264,0.286-0.449,0.429s-0.379,0.271-0.578,0.385
				c-0.201,0.115-0.328,0.187-0.387,0.215c-0.484,0.286-1.1,0.607-1.842,0.964c-0.742,0.357-1.385,0.707-1.928,1.05
				c-0.059,0.058-0.164,0.114-0.322,0.171c-0.156,0.058-0.277,0.115-0.363,0.172c0.342,0.771,0.584,1.436,0.729,1.992
				c0.143,0.557,0.193,1.093,0.15,1.606c-0.043,0.515-0.15,1.036-0.322,1.564s-0.4,1.135-0.686,1.82
				c-0.4,0.657-0.807,1.286-1.221,1.886s-0.879,1.142-1.393,1.628c-0.514,0.485-1.072,0.871-1.672,1.157
				c-0.6,0.285-1.256,0.429-1.971,0.429c-0.398,0-0.785-0.051-1.156-0.15c-0.371-0.101-0.686-0.308-0.943-0.621
				c-0.656-0.715-1.027-1.493-1.113-2.335c-0.086-0.843-0.014-1.679,0.215-2.507c0.17-0.515,0.385-0.985,0.643-1.414
				c0.629-1.085,1.32-2.006,2.078-2.764C81.352,166.909,82.145,166.187,82.974,165.501z M84.431,167.429
				c-0.314,0.314-0.742,0.765-1.285,1.35c-0.543,0.586-1.051,1.221-1.521,1.906s-0.857,1.364-1.156,2.035
				c-0.301,0.671-0.379,1.25-0.236,1.735c0.572-0.257,1.156-0.679,1.758-1.264c0.6-0.586,1.127-1.229,1.584-1.928
				c0.457-0.7,0.779-1.393,0.965-2.078S84.688,167.915,84.431,167.429z"/>
			<path fill="#222944" d="M109.581,158.603c0-0.057,0.014-0.1,0.043-0.129c0-0.028,0.014-0.043,0.043-0.043
				c0.885-1.885,1.764-3.706,2.635-5.463s1.756-3.449,2.656-5.077s1.842-3.198,2.828-4.713c0.984-1.514,2.035-2.984,3.148-4.413
				c0.629-0.714,1.137-1.028,1.521-0.942c0.387,0.085,0.672,0.379,0.857,0.878c0.186,0.5,0.293,1.093,0.32,1.778
				c0.029,0.686,0.016,1.242-0.043,1.671c-0.428,1.771-1.006,3.542-1.734,5.312c-0.729,1.771-1.551,3.535-2.463,5.292
				c-0.916,1.757-1.9,3.507-2.957,5.249s-2.129,3.484-3.213,5.227c-0.145,0.172-0.252,0.351-0.322,0.536
				c-0.072,0.186-0.137,0.393-0.193,0.621c-0.057,0.257-0.121,0.621-0.191,1.093c-0.072,0.471-0.115,0.964-0.129,1.478
				c-0.016,0.515,0.021,0.985,0.107,1.414s0.242,0.7,0.471,0.814c0.342,0.171,0.842,0.136,1.5-0.107
				c0.656-0.242,1.355-0.606,2.1-1.093c0.742-0.485,1.492-1.042,2.248-1.671c0.758-0.628,1.408-1.228,1.951-1.8
				c0.057-0.057,0.143-0.049,0.256,0.021c0.113,0.072,0.207,0.179,0.279,0.321c0.07,0.144,0.1,0.308,0.086,0.493
				c-0.016,0.187-0.123,0.364-0.322,0.535c-0.656,0.572-1.465,1.293-2.42,2.164c-0.957,0.872-1.957,1.679-3,2.421
				s-2.064,1.307-3.062,1.692c-1.002,0.386-1.857,0.393-2.572,0.021c-0.656-0.343-1.121-0.894-1.393-1.649
				c-0.271-0.757-0.422-1.586-0.449-2.485c-0.029-0.899,0.006-1.785,0.107-2.656c0.1-0.871,0.193-1.564,0.277-2.078
				c-0.057,0.058-0.105,0.136-0.148,0.235c-0.043,0.101-0.094,0.193-0.15,0.278c-0.4,0.458-0.857,1.008-1.371,1.65
				s-1.078,1.235-1.693,1.777c-0.613,0.543-1.264,0.958-1.949,1.243s-1.385,0.3-2.1,0.043c-0.398-0.229-0.75-0.507-1.049-0.836
				c-0.301-0.328-0.449-0.764-0.449-1.307c0-1.057,0.207-2.128,0.621-3.214c0.414-1.085,0.977-2.049,1.691-2.892
				s1.557-1.514,2.527-2.014s2.014-0.707,3.129-0.621c0.314,0.057,0.635,0.136,0.963,0.235c0.328,0.101,0.607,0.278,0.836,0.535
				L109.581,158.603z M102.854,165.073l0.086,0.128c0.971-0.771,1.949-1.534,2.934-2.292c0.986-0.756,2.008-1.506,3.064-2.249
				c-0.6-0.285-1.25-0.321-1.949-0.107c-0.701,0.214-1.357,0.572-1.971,1.071c-0.615,0.5-1.129,1.071-1.543,1.714
				S102.854,164.558,102.854,165.073z M122.093,143.692c-1.801,2.771-3.4,5.613-4.799,8.526c-1.4,2.914-2.629,5.928-3.686,9.041
				c0.656-1.199,1.436-2.57,2.336-4.113c0.898-1.542,1.777-3.12,2.635-4.734c0.857-1.613,1.613-3.185,2.27-4.713
				C121.507,146.17,121.921,144.835,122.093,143.692z"/>
			<path fill="#222944" d="M130.147,161.43l0.514-0.514h0.043v0.086c0.057,0.657,0,1.15-0.172,1.478
				c-0.172,0.329-0.258,0.508-0.258,0.536c-0.285,0.429-0.67,0.979-1.156,1.649c-0.486,0.672-0.992,1.357-1.521,2.057
				c-0.527,0.7-1.035,1.343-1.52,1.928c-0.486,0.586-0.873,1.007-1.158,1.265c-0.342,0.4-0.715,0.771-1.113,1.113
				c-0.143,0.114-0.336,0.215-0.578,0.3c-0.244,0.086-0.494,0.15-0.75,0.193c-0.258,0.043-0.508,0.05-0.75,0.021
				c-0.244-0.029-0.436-0.101-0.578-0.215c-0.486-0.314-0.863-0.692-1.137-1.135c-0.27-0.442-0.406-0.921-0.406-1.436
				c-0.086-1.57,0.051-3.178,0.406-4.82c0.357-1.642,0.779-3.135,1.266-4.478c0.143-0.399,0.342-0.813,0.6-1.242
				c0.256-0.257,0.557-0.328,0.898-0.214c0.344,0.114,0.65,0.35,0.922,0.706c0.271,0.358,0.471,0.793,0.6,1.308
				c0.129,0.514,0.107,1.028-0.064,1.542c-0.143,0.486-0.271,0.95-0.385,1.393c-0.115,0.443-0.244,0.907-0.387,1.393
				c-0.057,0.229-0.148,0.557-0.277,0.985s-0.266,0.878-0.408,1.35s-0.271,0.921-0.385,1.35c-0.115,0.429-0.186,0.757-0.215,0.985
				c-0.057,0.429,0.057,0.543,0.344,0.343c0.285-0.199,0.67-0.542,1.156-1.028c1.172-1.199,2.285-2.363,3.342-3.491
				C128.075,163.708,129.118,162.574,130.147,161.43z M124.448,143.735c-0.201,0.115-0.443,0.258-0.729,0.429
				c-0.285,0.172-0.529,0.293-0.729,0.364s-0.314,0.05-0.342-0.064c-0.029-0.113,0.127-0.429,0.471-0.942
				c0.314-0.371,0.627-0.735,0.941-1.093c0.314-0.356,0.629-0.692,0.943-1.007c0.713-0.742,1.5-1.442,2.357-2.1
				c0.229-0.199,0.455-0.228,0.686-0.085c0.229,0.143,0.342,0.343,0.342,0.6c0,0.314-0.15,0.664-0.449,1.05
				c-0.301,0.386-0.664,0.765-1.094,1.135c-0.428,0.372-0.863,0.707-1.307,1.007C125.097,143.329,124.733,143.564,124.448,143.735z"
				/>
			<path fill="#222944" d="M134.774,167.858c-0.258,0.2-0.543,0.422-0.857,0.664c-0.314,0.243-0.658,0.457-1.027,0.643
				c-0.373,0.186-0.766,0.328-1.18,0.429c-0.414,0.1-0.85,0.106-1.307,0.021c-0.342-0.058-0.656-0.179-0.941-0.364
				s-0.559-0.407-0.814-0.664c-0.258-0.258-0.414-0.629-0.473-1.114c-0.057-0.485-0.07-0.871-0.041-1.157
				c0.143-0.742,0.342-1.527,0.6-2.356c0.256-0.828,0.57-1.643,0.941-2.442c0.629-1.313,1.428-2.484,2.4-3.513
				c0.971-1.028,2.143-1.686,3.514-1.972c0.455-0.113,0.934-0.135,1.434-0.064c0.5,0.072,0.936,0.236,1.309,0.493
				c0.369,0.257,0.656,0.578,0.855,0.964s0.242,0.808,0.129,1.265c-0.057,0.171-0.121,0.343-0.193,0.514
				c-0.07,0.172-0.156,0.314-0.256,0.429c-0.102,0.114-0.193,0.179-0.279,0.192c-0.086,0.015-0.172-0.064-0.256-0.235
				c-0.029-0.086-0.064-0.207-0.107-0.364c-0.043-0.156-0.107-0.314-0.193-0.472c-0.086-0.156-0.207-0.3-0.363-0.428
				c-0.158-0.129-0.365-0.193-0.623-0.193c-0.543,0-1.156,0.336-1.842,1.007c-0.686,0.672-1.342,1.457-1.971,2.356
				c-0.629,0.9-1.172,1.8-1.629,2.699c-0.457,0.9-0.742,1.579-0.855,2.035c-0.172,0.743-0.158,1.136,0.043,1.179
				c0.199,0.043,0.514-0.114,0.941-0.472c0.43-0.356,0.914-0.85,1.457-1.478s1.057-1.25,1.543-1.864
				c0.484-0.613,0.906-1.156,1.264-1.628s0.549-0.721,0.578-0.75c0.371-0.285,0.742-0.414,1.115-0.386
				c0.369,0.029,0.691,0.165,0.963,0.407c0.271,0.243,0.457,0.543,0.557,0.899c0.1,0.357,0.064,0.722-0.107,1.093
				c-0.199,0.457-0.463,1-0.791,1.628c-0.33,0.629-0.537,1.187-0.621,1.672c-0.086,0.742,0,1.229,0.256,1.456
				c0.258,0.229,0.729,0.215,1.414-0.043c0.543-0.228,1.113-0.635,1.715-1.221c0.6-0.585,1.191-1.206,1.777-1.864
				c0.586-0.656,1.135-1.285,1.65-1.885c0.514-0.6,0.941-1.042,1.285-1.328c0.086-0.086,0.191-0.178,0.32-0.278
				c0.129-0.1,0.236-0.121,0.322-0.064c0.143,0.058,0.221,0.136,0.234,0.235c0.016,0.101,0.021,0.208,0.021,0.321
				c-0.371,0.915-0.812,1.814-1.328,2.699c-0.514,0.886-1.092,1.707-1.734,2.464s-1.357,1.429-2.143,2.014
				c-0.785,0.586-1.635,1.05-2.549,1.393c-0.572,0.199-1.086,0.264-1.543,0.193c-0.457-0.072-0.871-0.236-1.242-0.493
				s-0.672-0.585-0.9-0.985C135.016,168.744,134.86,168.315,134.774,167.858z"/>
			<path fill="#222944" d="M147.841,165.501c-0.572-0.8-1.135-1.614-1.691-2.442c-0.559-0.828-0.836-1.742-0.836-2.742
				c0-1.114,0.32-2.164,0.963-3.149c0.645-0.985,1.379-1.778,2.207-2.378c0.344-0.229,0.693-0.414,1.051-0.557
				c0.355-0.143,0.734-0.129,1.135,0.042c0.172,0.086,0.35,0.15,0.535,0.193s0.35,0.093,0.494,0.149
				c0.143,0.058,0.299,0.144,0.471,0.258s0.256,0.271,0.256,0.471c0,0.801,0.021,1.45,0.064,1.95s0.107,0.928,0.193,1.285
				s0.172,0.671,0.258,0.942s0.17,0.564,0.256,0.879c0.057,0.285,0.043,0.528-0.043,0.728c-0.084,0.2-0.299,0.229-0.643,0.086
				c-0.629-0.229-1.092-0.686-1.393-1.371c-0.299-0.686-0.521-1.313-0.664-1.885c-0.027-0.114-0.1-0.314-0.213-0.601
				c-0.115-0.285-0.188-0.485-0.215-0.6c-0.229-0.057-0.5,0.021-0.814,0.235c-0.314,0.215-0.594,0.508-0.836,0.879
				s-0.4,0.8-0.471,1.285c-0.072,0.486,0.021,0.972,0.279,1.457c0.113,0.171,0.277,0.379,0.492,0.621
				c0.215,0.243,0.428,0.493,0.643,0.75s0.428,0.507,0.643,0.75s0.393,0.436,0.535,0.578c0.172,0.171,0.285,0.265,0.344,0.278
				c0.057,0.015,0.199-0.021,0.428-0.107c0.285-0.143,0.721-0.327,1.307-0.557c0.586-0.229,1.199-0.456,1.844-0.686
				c0.643-0.229,1.256-0.421,1.842-0.578c0.584-0.157,1.035-0.236,1.35-0.236c0.199,0,0.342,0.072,0.428,0.215
				c0.086,0.086,0.072,0.2-0.043,0.343c-0.113,0.144-0.264,0.286-0.449,0.429s-0.379,0.271-0.578,0.385
				c-0.201,0.115-0.328,0.187-0.387,0.215c-0.484,0.286-1.1,0.607-1.842,0.964c-0.742,0.357-1.385,0.707-1.928,1.05
				c-0.059,0.058-0.164,0.114-0.322,0.171c-0.156,0.058-0.277,0.115-0.363,0.172c0.342,0.771,0.584,1.436,0.729,1.992
				c0.143,0.557,0.193,1.093,0.15,1.606c-0.043,0.515-0.15,1.036-0.322,1.564s-0.4,1.135-0.686,1.82
				c-0.4,0.657-0.807,1.286-1.221,1.886s-0.879,1.142-1.393,1.628c-0.514,0.485-1.072,0.871-1.672,1.157
				c-0.6,0.285-1.256,0.429-1.971,0.429c-0.398,0-0.785-0.051-1.156-0.15c-0.371-0.101-0.686-0.308-0.943-0.621
				c-0.656-0.715-1.027-1.493-1.113-2.335c-0.086-0.843-0.014-1.679,0.215-2.507c0.17-0.515,0.385-0.985,0.643-1.414
				c0.629-1.085,1.32-2.006,2.078-2.764C146.22,166.909,147.013,166.187,147.841,165.501z M149.298,167.429
				c-0.314,0.314-0.742,0.765-1.285,1.35c-0.543,0.586-1.051,1.221-1.521,1.906s-0.857,1.364-1.156,2.035
				c-0.301,0.671-0.379,1.25-0.236,1.735c0.572-0.257,1.156-0.679,1.758-1.264c0.6-0.586,1.127-1.229,1.584-1.928
				c0.457-0.7,0.779-1.393,0.965-2.078S149.556,167.915,149.298,167.429z"/>
		</g>
		<g>
			<path fill="#ED7AA9" d="M92.692,31.842c1.752-2.849,4.917-5.455,9.495-7.816l0.859,1.61c-2.29,1.622-3.983,2.98-5.079,4.076
				c-1.932,1.98-2.897,3.876-2.897,5.688c0,0.62,0.179,1.025,0.537,1.216c0.357,0.214,0.667,0.321,0.93,0.321
				c0.906-0.119,1.503-0.179,1.788-0.179c1.526,0,2.778,0.554,3.757,1.663c0.977,1.11,1.467,2.451,1.467,4.024
				c0,1.765-0.537,3.237-1.61,4.417c-1.072,1.18-2.551,1.77-4.435,1.77c-2.218,0-4.012-0.792-5.383-2.378
				c-1.371-1.586-2.057-3.702-2.057-6.349C90.063,37.38,90.939,34.692,92.692,31.842z M112.597,31.645
				c1.86-2.837,4.971-5.377,9.334-7.618l0.859,1.61c-2.146,1.501-3.791,2.825-4.936,3.97c-2.027,2.027-3.041,3.91-3.041,5.651
				c0,0.501,0.131,0.906,0.394,1.216c0.262,0.31,0.62,0.465,1.072,0.465c0.906-0.119,1.503-0.179,1.789-0.179
				c1.501,0,2.747,0.549,3.737,1.645c0.989,1.097,1.485,2.445,1.485,4.042c0,1.86-0.549,3.356-1.645,4.489
				c-1.097,1.132-2.589,1.698-4.472,1.698c-2.146,0-3.91-0.792-5.293-2.378c-1.384-1.586-2.075-3.702-2.075-6.349
				C109.806,37.237,110.736,34.483,112.597,31.645z"/>
		</g>
	</g>
</g>
<g>
</g>
<g>
</g>
<g>
</g>
<g>
</g>
<g>
</g>
<g>
</g>
<g>
</g>
<g>
</g>
<g>
</g>
<g>
</g>
<g>
</g>
<g>
</g>
<g>
</g>
<g>
</g>
<g>
</g>
</svg>
