<?xml version="1.0" encoding="utf-8"?>
<!-- Generator: Adobe Illustrator 17.0.0, SVG Export Plug-In . SVG Version: 6.00 Build 0)  -->
<!DOCTYPE svg PUBLIC "-//W3C//DTD SVG 1.1//EN" "http://www.w3.org/Graphics/SVG/1.1/DTD/svg11.dtd">
<svg version="1.1" id="Layer_1" xmlns="http://www.w3.org/2000/svg" xmlns:xlink="http://www.w3.org/1999/xlink" x="0px" y="0px"
	 width="215.203px" height="208.135px" viewBox="0 0 215.203 208.135" enable-background="new 0 0 215.203 208.135"
	 xml:space="preserve">
<g>
	<rect x="4.198" y="3.699" fill="none" stroke="#222944" stroke-miterlimit="10" width="206.807" height="200.736"/>
	<g>
		<g>
			<path fill="#222944" d="M36.893,95.296c0.153,0.307,0.36,0.468,0.622,0.483c0.26,0.015,0.514-0.054,0.76-0.207
				c0.921-0.799,1.796-1.658,2.625-2.579c0.829-0.921,1.619-1.842,2.372-2.764c0.752-0.921,1.489-1.819,2.211-2.694
				c0.721-0.875,1.42-1.665,2.096-2.372c0.245-0.245,0.438-0.299,0.575-0.161c0.139,0.138,0.161,0.346,0.069,0.622
				c-0.431,0.707-0.86,1.389-1.29,2.049c-0.43,0.661-0.875,1.329-1.335,2.003c-0.952,1.352-1.928,2.794-2.925,4.33
				c-0.998,1.535-2.096,2.839-3.293,3.915c-0.737,0.675-1.536,1.06-2.396,1.151c-0.799-0.031-1.551-0.284-2.257-0.76
				c-0.706-0.477-1.12-1.113-1.243-1.911c-0.185-1.874-0.153-3.761,0.092-5.665c0.276-2.211,0.722-4.498,1.336-6.863
				c0.613-2.364,1.358-4.713,2.233-7.047c0.875-2.333,1.835-4.605,2.879-6.816c1.043-2.21,2.134-4.268,3.27-6.171
				c0.522-0.829,1.044-1.619,1.566-2.372c0.521-0.752,1.074-1.451,1.658-2.096c0.214-0.276,0.483-0.476,0.806-0.599
				c0.322-0.123,0.652-0.107,0.99,0.046c0.675,0.308,0.968,0.875,0.875,1.704c-0.215,1.812-0.592,3.578-1.128,5.297
				c-0.538,1.72-1.19,3.378-1.958,4.974c-0.768,1.597-1.628,3.132-2.579,4.605c-0.952,1.474-1.965,2.872-3.039,4.191
				c-0.093,0.092-0.162,0.2-0.208,0.322c-0.046,0.123-0.1,0.246-0.161,0.369c-0.46,1.229-0.914,2.579-1.358,4.053
				c-0.445,1.474-0.829,2.91-1.151,4.307c-0.322,1.397-0.553,2.694-0.691,3.892C36.778,93.73,36.77,94.651,36.893,95.296z
				 M48.224,62.687c-1.32,2.21-2.503,4.483-3.547,6.816c-1.044,2.333-2.088,4.667-3.132,7c0.276-0.276,0.622-0.744,1.036-1.405
				c0.415-0.66,0.853-1.412,1.313-2.257c0.46-0.844,0.921-1.757,1.381-2.74c0.461-0.982,0.891-1.935,1.29-2.855
				c0.398-0.921,0.752-1.789,1.06-2.603C47.932,63.831,48.132,63.179,48.224,62.687z"/>
			<path fill="#222944" d="M57.389,84.472l0.553-0.553h0.046v0.092c0.061,0.707,0,1.236-0.185,1.589
				c-0.184,0.354-0.276,0.546-0.276,0.576c-0.307,0.461-0.722,1.052-1.243,1.773c-0.522,0.722-1.067,1.458-1.635,2.211
				c-0.569,0.752-1.113,1.443-1.636,2.072c-0.522,0.63-0.937,1.083-1.243,1.359c-0.368,0.43-0.768,0.829-1.197,1.197
				c-0.154,0.123-0.361,0.23-0.622,0.323c-0.262,0.092-0.529,0.161-0.806,0.207s-0.546,0.053-0.807,0.023
				c-0.261-0.031-0.468-0.108-0.621-0.23c-0.522-0.338-0.929-0.745-1.221-1.221s-0.438-0.99-0.438-1.543
				c-0.093-1.688,0.054-3.416,0.438-5.182c0.384-1.765,0.836-3.369,1.358-4.813c0.153-0.429,0.368-0.875,0.645-1.335
				c0.276-0.276,0.599-0.353,0.968-0.23c0.368,0.123,0.698,0.376,0.99,0.76c0.291,0.384,0.507,0.852,0.645,1.405
				c0.139,0.553,0.115,1.105-0.069,1.658c-0.153,0.522-0.292,1.021-0.414,1.497c-0.123,0.477-0.262,0.975-0.415,1.497
				c-0.062,0.247-0.161,0.599-0.299,1.06c-0.139,0.46-0.284,0.944-0.438,1.451c-0.154,0.507-0.292,0.99-0.415,1.451
				c-0.123,0.461-0.2,0.814-0.229,1.06c-0.062,0.46,0.061,0.583,0.368,0.369c0.307-0.215,0.721-0.583,1.243-1.105
				c1.259-1.29,2.456-2.541,3.593-3.754C55.162,86.921,56.283,85.701,57.389,84.472z M50.94,78.945
				c-0.215,0.215-0.368,0.215-0.461,0c-0.399-0.614-0.66-1.258-0.782-1.934c-0.123-0.675-0.062-1.351,0.184-2.027
				c0.123-0.398,0.392-0.729,0.807-0.99c0.414-0.26,0.79-0.345,1.128-0.253c0.185,0.062,0.384,0.161,0.599,0.299
				s0.353,0.299,0.415,0.483c0.214,0.829,0.099,1.628-0.346,2.395C52.038,77.687,51.523,78.363,50.94,78.945z"/>
			<path fill="#222944" d="M59.507,88.848c-0.614-0.859-1.221-1.734-1.819-2.625c-0.599-0.89-0.897-1.873-0.897-2.948
				c0-1.198,0.345-2.326,1.036-3.385c0.69-1.059,1.48-1.911,2.372-2.556c0.368-0.246,0.744-0.445,1.128-0.599
				c0.384-0.153,0.79-0.138,1.221,0.046c0.185,0.092,0.376,0.161,0.576,0.208c0.199,0.046,0.375,0.1,0.529,0.161
				c0.153,0.062,0.322,0.154,0.507,0.276c0.184,0.123,0.276,0.292,0.276,0.506c0,0.86,0.022,1.559,0.068,2.096
				c0.047,0.538,0.115,0.998,0.208,1.382c0.092,0.384,0.184,0.722,0.276,1.013c0.092,0.292,0.184,0.606,0.276,0.944
				c0.061,0.307,0.046,0.568-0.047,0.783c-0.092,0.215-0.322,0.246-0.69,0.092c-0.676-0.246-1.175-0.737-1.497-1.474
				c-0.322-0.737-0.561-1.412-0.714-2.026c-0.031-0.123-0.107-0.337-0.23-0.645c-0.123-0.306-0.199-0.521-0.229-0.645
				c-0.246-0.061-0.538,0.023-0.876,0.253c-0.338,0.23-0.637,0.545-0.897,0.944c-0.262,0.399-0.431,0.86-0.507,1.382
				c-0.077,0.522,0.023,1.044,0.3,1.566c0.122,0.185,0.299,0.407,0.529,0.668c0.23,0.261,0.461,0.53,0.69,0.806
				c0.23,0.276,0.461,0.545,0.691,0.806c0.23,0.261,0.422,0.469,0.575,0.622c0.185,0.184,0.307,0.284,0.369,0.299
				c0.061,0.016,0.214-0.023,0.46-0.115c0.307-0.153,0.775-0.353,1.405-0.599c0.629-0.246,1.289-0.491,1.98-0.737
				c0.69-0.246,1.351-0.453,1.98-0.622c0.629-0.168,1.112-0.253,1.45-0.253c0.215,0,0.369,0.077,0.461,0.23
				c0.092,0.092,0.076,0.215-0.046,0.369c-0.123,0.154-0.284,0.307-0.483,0.46c-0.2,0.154-0.407,0.292-0.622,0.415
				c-0.215,0.123-0.354,0.2-0.415,0.23c-0.522,0.308-1.182,0.653-1.98,1.037c-0.799,0.384-1.489,0.76-2.072,1.128
				c-0.062,0.062-0.177,0.123-0.346,0.184c-0.169,0.062-0.299,0.123-0.391,0.184c0.368,0.829,0.629,1.543,0.782,2.142
				c0.153,0.599,0.208,1.175,0.161,1.728c-0.046,0.553-0.161,1.113-0.345,1.681c-0.185,0.568-0.431,1.221-0.737,1.958
				c-0.431,0.706-0.868,1.382-1.312,2.027c-0.445,0.645-0.944,1.228-1.497,1.75c-0.553,0.522-1.151,0.936-1.796,1.244
				c-0.645,0.307-1.352,0.46-2.119,0.46c-0.43,0-0.844-0.054-1.243-0.161c-0.398-0.107-0.737-0.33-1.014-0.668
				c-0.706-0.768-1.105-1.604-1.197-2.51s-0.015-1.804,0.23-2.694c0.185-0.552,0.414-1.059,0.69-1.52
				c0.676-1.167,1.421-2.157,2.234-2.971C57.764,90.36,58.616,89.584,59.507,88.848z M61.073,90.92
				c-0.339,0.338-0.799,0.822-1.382,1.451c-0.584,0.63-1.129,1.312-1.635,2.05c-0.507,0.737-0.922,1.466-1.244,2.188
				c-0.322,0.721-0.406,1.343-0.253,1.865c0.613-0.276,1.243-0.729,1.889-1.358c0.645-0.63,1.212-1.321,1.704-2.073
				c0.49-0.753,0.836-1.497,1.036-2.234C61.388,92.072,61.35,91.443,61.073,90.92z"/>
			<path fill="#222944" d="M70.697,97.691c0.185,0.583,0.561,0.767,1.129,0.553c0.567-0.215,1.228-0.676,1.98-1.382
				c0.752-0.707,1.543-1.566,2.372-2.579c0.829-1.014,1.619-2.011,2.371-2.994c0.753-0.982,1.405-1.873,1.958-2.671
				c0.553-0.798,0.921-1.32,1.105-1.566c0.153-0.246,0.329-0.476,0.529-0.691c0.199-0.214,0.453-0.445,0.76-0.691
				c0.123-0.092,0.269-0.191,0.438-0.299c0.169-0.107,0.314-0.153,0.438-0.138c0.123,0.016,0.177,0.115,0.161,0.299
				s-0.131,0.491-0.345,0.921c-0.185,0.369-0.477,0.929-0.875,1.681c-0.399,0.753-0.892,1.597-1.475,2.533
				c-0.583,0.937-1.228,1.904-1.934,2.902c-0.707,0.997-1.467,1.926-2.28,2.786c-0.813,0.859-1.643,1.612-2.487,2.257
				c-0.845,0.645-1.696,1.06-2.556,1.244c-0.769,0.184-1.474,0.284-2.119,0.299c-0.645,0.015-1.212-0.223-1.704-0.714
				c-0.46-0.46-0.721-1.121-0.782-1.98c-0.062-0.86-0.023-1.773,0.114-2.74c0.139-0.967,0.331-1.904,0.576-2.81
				c0.246-0.905,0.445-1.604,0.599-2.096c0.491-1.596,0.959-3.17,1.405-4.721c0.444-1.55,0.882-3.109,1.312-4.675
				c0.46-1.382,0.882-2.802,1.267-4.26c0.383-1.458,0.774-2.771,1.174-3.938c-0.614-0.03-1.243-0.053-1.888-0.069
				c-0.646-0.015-1.29-0.03-1.935-0.046c-0.645-0.015-1.282-0.053-1.911-0.115c-0.63-0.061-1.221-0.168-1.773-0.322
				c-0.491-0.123-0.853-0.322-1.083-0.599c-0.229-0.276-0.337-0.553-0.322-0.829c0.017-0.276,0.169-0.514,0.461-0.714
				c0.292-0.199,0.714-0.299,1.267-0.299c0.338,0,0.891,0.031,1.658,0.092c0.768,0.062,1.573,0.108,2.418,0.138
				c0.844,0.031,1.627,0.039,2.349,0.023c0.721-0.015,1.189-0.069,1.405-0.162c0.092-0.03,0.138-0.076,0.138-0.138
				c0.185-0.552,0.384-1.135,0.599-1.75c0.215-0.614,0.43-1.212,0.645-1.796c0.215-0.583,0.422-1.135,0.622-1.658
				c0.199-0.522,0.376-0.967,0.53-1.336c0.122-0.276,0.375-0.392,0.76-0.345c0.383,0.046,0.782,0.177,1.197,0.392
				c0.414,0.215,0.775,0.483,1.082,0.806c0.307,0.323,0.445,0.622,0.415,0.898c-0.093,0.799-0.308,1.582-0.646,2.349
				c-0.338,0.768-0.629,1.643-0.875,2.625c1.935-0.03,3.6-0.053,4.997-0.069c1.397-0.015,2.756-0.023,4.076-0.023
				c0.43,0,0.859,0.008,1.29,0.023c0.43,0.016,0.76,0.054,0.99,0.115c0.23,0.062,0.283,0.146,0.161,0.253
				c-0.123,0.108-0.522,0.253-1.197,0.438c-1.935,0.615-3.808,1.083-5.619,1.405c-1.812,0.322-3.593,0.561-5.343,0.714
				c-0.154,0.031-0.223,0.062-0.207,0.092c0.015,0.031-0.023,0.123-0.115,0.276c0,0.031-0.016,0.062-0.046,0.092
				c-0.031,0.031-0.046,0.062-0.046,0.092c-0.492,1.352-1.029,2.871-1.612,4.56c-0.584,1.689-1.167,3.424-1.75,5.205
				c-0.584,1.781-1.137,3.531-1.658,5.25c-0.522,1.72-0.968,3.278-1.336,4.675c-0.368,1.397-0.638,2.563-0.806,3.5
				C70.552,96.9,70.544,97.475,70.697,97.691z"/>
			<path fill="#222944" d="M87.508,91.381c-0.276,0.215-0.583,0.454-0.921,0.714c-0.338,0.261-0.707,0.492-1.105,0.691
				c-0.399,0.2-0.821,0.354-1.267,0.46c-0.445,0.108-0.914,0.115-1.404,0.023c-0.369-0.061-0.707-0.191-1.014-0.391
				s-0.599-0.438-0.875-0.714s-0.444-0.675-0.507-1.198c-0.061-0.521-0.076-0.936-0.046-1.244c0.154-0.798,0.368-1.642,0.645-2.533
				s0.615-1.766,1.014-2.625c0.675-1.412,1.535-2.671,2.579-3.777c1.044-1.105,2.303-1.811,3.776-2.119
				c0.491-0.122,1.006-0.145,1.543-0.069c0.537,0.077,1.006,0.253,1.405,0.53c0.398,0.276,0.706,0.622,0.921,1.036
				s0.261,0.868,0.139,1.359c-0.062,0.184-0.132,0.368-0.208,0.552c-0.076,0.185-0.169,0.338-0.276,0.461
				c-0.107,0.123-0.207,0.192-0.299,0.207c-0.093,0.016-0.185-0.069-0.276-0.253C91.3,82.4,91.262,82.269,91.216,82.1
				c-0.046-0.168-0.115-0.338-0.207-0.507c-0.093-0.168-0.224-0.322-0.392-0.46c-0.169-0.138-0.392-0.208-0.668-0.208
				c-0.584,0-1.243,0.361-1.98,1.083c-0.737,0.722-1.443,1.566-2.119,2.533c-0.675,0.967-1.259,1.935-1.75,2.901
				c-0.491,0.967-0.799,1.697-0.921,2.188c-0.185,0.799-0.169,1.22,0.046,1.267c0.215,0.046,0.553-0.123,1.014-0.507
				c0.46-0.383,0.982-0.913,1.565-1.589c0.583-0.675,1.136-1.343,1.658-2.003c0.521-0.66,0.975-1.244,1.358-1.75
				c0.384-0.506,0.591-0.775,0.622-0.806c0.398-0.307,0.798-0.445,1.197-0.415c0.399,0.031,0.744,0.177,1.037,0.438
				c0.291,0.261,0.49,0.583,0.599,0.967c0.106,0.384,0.068,0.776-0.115,1.174c-0.216,0.492-0.5,1.075-0.853,1.75
				c-0.354,0.676-0.575,1.275-0.668,1.796c-0.092,0.799,0,1.321,0.276,1.566c0.276,0.246,0.783,0.23,1.521-0.046
				c0.583-0.246,1.197-0.683,1.842-1.312c0.646-0.629,1.282-1.297,1.911-2.004c0.63-0.706,1.221-1.381,1.773-2.026
				c0.553-0.645,1.014-1.121,1.382-1.428c0.092-0.092,0.207-0.191,0.346-0.299c0.138-0.107,0.253-0.13,0.346-0.069
				c0.153,0.062,0.237,0.146,0.253,0.253c0.015,0.108,0.023,0.223,0.023,0.346c-0.399,0.983-0.876,1.95-1.428,2.901
				c-0.553,0.952-1.175,1.835-1.866,2.648c-0.69,0.814-1.458,1.536-2.303,2.165c-0.845,0.63-1.758,1.128-2.74,1.497
				c-0.614,0.214-1.167,0.283-1.658,0.207c-0.491-0.077-0.937-0.253-1.335-0.53c-0.399-0.276-0.723-0.629-0.968-1.059
				C87.768,92.333,87.601,91.872,87.508,91.381z"/>
			<path fill="#222944" d="M111.182,88.018c-0.892,1.997-1.697,3.923-2.418,5.78c-0.722,1.857-1.405,3.685-2.05,5.481
				s-1.281,3.593-1.911,5.389c-0.629,1.796-1.312,3.646-2.05,5.55c-0.03,0.092-0.069,0.215-0.115,0.369
				c-0.046,0.152-0.13,0.307-0.253,0.46c-0.185,0.245-0.33,0.368-0.438,0.368s-0.191-0.046-0.254-0.138
				c-0.368-0.491-0.605-1.151-0.714-1.98c-0.107-0.829-0.084-1.644,0.069-2.441c0.276-1.474,0.652-3.024,1.128-4.651
				c0.477-1.628,0.999-3.278,1.566-4.951c0.568-1.674,1.175-3.362,1.819-5.066s1.289-3.37,1.935-4.997
				c0.767-1.842,1.488-3.546,2.164-5.113c0.676-1.566,1.352-3.101,2.027-4.605c0.245-0.369,0.567-0.514,0.967-0.438
				c0.398,0.077,0.767,0.284,1.105,0.622c0.337,0.338,0.599,0.753,0.783,1.244c0.184,0.492,0.214,0.952,0.092,1.382
				c-0.368,0.983-0.775,1.888-1.221,2.717s-0.837,1.689-1.175,2.579c1.075-1.043,2.149-2.042,3.225-2.994
				c1.074-0.951,2.303-1.596,3.685-1.935c0.613-0.092,1.112-0.061,1.497,0.092c0.383,0.154,0.69,0.384,0.921,0.691
				c0.23,0.307,0.398,0.676,0.507,1.105c0.106,0.43,0.191,0.86,0.253,1.29c0.03-0.061,0.084-0.084,0.161-0.069
				c0.076,0.016,0.146-0.007,0.207-0.069c0.982-0.276,1.98-0.476,2.994-0.599c1.014-0.123,2.011-0.185,2.994-0.185
				c0.49-0.061,0.844,0.016,1.059,0.23c0.215,0.215,0.076,0.399-0.414,0.553c-0.553,0.154-1.137,0.299-1.75,0.438
				c-0.615,0.138-1.229,0.292-1.843,0.46c-0.614,0.169-1.205,0.346-1.773,0.53s-1.066,0.415-1.496,0.691
				c-0.399,0.246-0.753,0.707-1.06,1.382c-0.368,0.891-0.906,1.758-1.612,2.602c-0.707,0.845-1.497,1.589-2.372,2.234
				c-0.875,0.645-1.796,1.136-2.763,1.474c-0.968,0.338-1.912,0.43-2.833,0.276c-0.553-0.153-0.921-0.483-1.105-0.99
				c-0.185-0.506-0.308-1.021-0.368-1.543c0-0.553,0.23-0.829,0.69-0.829c0.153-0.092,0.276-0.161,0.369-0.207
				c0.092-0.046,0.184-0.146,0.276-0.299c0.306-0.553,0.705-1.06,1.197-1.52c0.982-0.829,2.019-1.535,3.108-2.119
				c1.09-0.583,2.172-1.074,3.247-1.474c0.43-0.123,0.675-0.23,0.737-0.323c0.061-0.092,0.122-0.353,0.184-0.783
				c-0.062-0.614-0.33-1.028-0.806-1.244c-0.477-0.214-1.205-0.061-2.188,0.46c-0.461,0.276-0.96,0.63-1.497,1.06
				c-0.537,0.43-1.075,0.883-1.612,1.358c-0.537,0.477-1.052,0.952-1.543,1.428C112.025,87.228,111.58,87.65,111.182,88.018z
				 M112.563,90.275c0.307,0.154,0.752,0.154,1.335,0c0.583-0.153,1.182-0.398,1.797-0.737c0.613-0.337,1.189-0.737,1.727-1.197
				c0.537-0.461,0.944-0.921,1.221-1.382c-1.075,0.43-2.111,0.914-3.108,1.451C114.535,88.948,113.545,89.57,112.563,90.275z"/>
			<path fill="#222944" d="M132.827,91.381c-0.276,0.215-0.583,0.454-0.921,0.714c-0.338,0.261-0.707,0.492-1.105,0.691
				c-0.399,0.2-0.821,0.354-1.267,0.46c-0.445,0.108-0.914,0.115-1.404,0.023c-0.369-0.061-0.707-0.191-1.014-0.391
				s-0.599-0.438-0.875-0.714s-0.444-0.675-0.507-1.198c-0.061-0.521-0.076-0.936-0.046-1.244c0.154-0.798,0.368-1.642,0.645-2.533
				s0.615-1.766,1.014-2.625c0.675-1.412,1.535-2.671,2.579-3.777c1.044-1.105,2.303-1.811,3.776-2.119
				c0.491-0.122,1.006-0.145,1.543-0.069c0.537,0.077,1.006,0.253,1.405,0.53c0.398,0.276,0.706,0.622,0.921,1.036
				s0.261,0.868,0.139,1.359c-0.062,0.184-0.132,0.368-0.208,0.552c-0.076,0.185-0.169,0.338-0.276,0.461
				c-0.107,0.123-0.207,0.192-0.299,0.207c-0.093,0.016-0.185-0.069-0.276-0.253c-0.031-0.092-0.069-0.222-0.115-0.391
				c-0.046-0.168-0.115-0.338-0.207-0.507c-0.093-0.168-0.224-0.322-0.392-0.46c-0.169-0.138-0.392-0.208-0.668-0.208
				c-0.584,0-1.243,0.361-1.98,1.083c-0.737,0.722-1.443,1.566-2.119,2.533c-0.675,0.967-1.259,1.935-1.75,2.901
				c-0.491,0.967-0.799,1.697-0.921,2.188c-0.185,0.799-0.169,1.22,0.046,1.267c0.215,0.046,0.553-0.123,1.014-0.507
				c0.46-0.383,0.982-0.913,1.565-1.589c0.583-0.675,1.136-1.343,1.658-2.003c0.521-0.66,0.975-1.244,1.358-1.75
				c0.384-0.506,0.591-0.775,0.622-0.806c0.398-0.307,0.798-0.445,1.197-0.415c0.399,0.031,0.744,0.177,1.037,0.438
				c0.291,0.261,0.49,0.583,0.599,0.967c0.106,0.384,0.068,0.776-0.115,1.174c-0.216,0.492-0.5,1.075-0.853,1.75
				c-0.354,0.676-0.575,1.275-0.668,1.796c-0.092,0.799,0,1.321,0.276,1.566c0.276,0.246,0.783,0.23,1.521-0.046
				c0.583-0.246,1.197-0.683,1.842-1.312c0.646-0.629,1.282-1.297,1.911-2.004c0.63-0.706,1.221-1.381,1.773-2.026
				c0.553-0.645,1.014-1.121,1.382-1.428c0.092-0.092,0.207-0.191,0.346-0.299c0.138-0.107,0.253-0.13,0.346-0.069
				c0.153,0.062,0.237,0.146,0.253,0.253c0.015,0.108,0.023,0.223,0.023,0.346c-0.399,0.983-0.876,1.95-1.428,2.901
				c-0.553,0.952-1.175,1.835-1.866,2.648c-0.69,0.814-1.458,1.536-2.303,2.165c-0.845,0.63-1.758,1.128-2.74,1.497
				c-0.614,0.214-1.167,0.283-1.658,0.207c-0.491-0.077-0.937-0.253-1.335-0.53c-0.399-0.276-0.723-0.629-0.968-1.059
				C133.088,92.333,132.92,91.872,132.827,91.381z"/>
			<path fill="#222944" d="M155.349,80.972c-1.167,0.522-2.241,1.297-3.224,2.326c-0.983,1.029-1.911,2.173-2.787,3.431
				c-0.875,1.26-1.727,2.564-2.556,3.915c-0.829,1.352-1.658,2.61-2.487,3.777c-0.245,0.276-0.537,0.353-0.875,0.23
				c-0.338-0.123-0.553-0.361-0.645-0.714c-0.093-0.353-0.062-0.729,0.092-1.128c0.215-0.737,0.423-1.566,0.622-2.487
				c0.2-0.921,0.392-1.889,0.575-2.902c0.185-1.013,0.376-2.026,0.576-3.04c0.199-1.013,0.406-1.98,0.622-2.902
				c0.061-0.245,0.207-0.438,0.438-0.576c0.229-0.138,0.483-0.214,0.76-0.23c0.276-0.015,0.521,0.039,0.736,0.161
				c0.215,0.123,0.353,0.307,0.415,0.553c0.122,0.614,0.084,1.351-0.115,2.21c-0.2,0.86-0.423,1.704-0.668,2.533
				c0.553-0.675,1.159-1.466,1.819-2.372c0.66-0.905,1.382-1.75,2.165-2.533c0.782-0.783,1.611-1.428,2.486-1.934
				c0.876-0.507,1.789-0.714,2.741-0.622c0.49,0.154,0.882,0.408,1.174,0.76c0.292,0.353,0.514,0.752,0.668,1.197
				c0.153,0.446,0.237,0.883,0.254,1.313c0.015,0.43-0.023,0.798-0.115,1.105c-0.216,0.431-0.469,0.898-0.761,1.405
				c-0.292,0.507-0.522,1.021-0.69,1.543c-0.169,0.522-0.238,1.036-0.207,1.543c0.03,0.507,0.276,0.96,0.736,1.359
				c0.185,0.246,0.169,0.43-0.046,0.553c-0.215,0.123-0.507,0.192-0.875,0.207c-0.368,0.016-0.736-0.023-1.105-0.115
				c-0.368-0.092-0.63-0.23-0.783-0.415c-0.491-0.675-0.79-1.358-0.897-2.049c-0.108-0.691-0.085-1.389,0.069-2.096
				c0.152-0.706,0.398-1.397,0.736-2.073C154.535,82.231,154.919,81.586,155.349,80.972z"/>
			<path fill="#222944" d="M165.895,91.381c-0.276,0.215-0.583,0.454-0.921,0.714c-0.338,0.261-0.707,0.492-1.105,0.691
				c-0.399,0.2-0.821,0.354-1.267,0.46c-0.445,0.108-0.914,0.115-1.404,0.023c-0.369-0.061-0.707-0.191-1.014-0.391
				s-0.599-0.438-0.875-0.714s-0.444-0.675-0.507-1.198c-0.061-0.521-0.076-0.936-0.046-1.244c0.154-0.798,0.368-1.642,0.645-2.533
				s0.615-1.766,1.014-2.625c0.675-1.412,1.535-2.671,2.579-3.777c1.044-1.105,2.303-1.811,3.776-2.119
				c0.491-0.122,1.006-0.145,1.543-0.069c0.537,0.077,1.006,0.253,1.405,0.53c0.398,0.276,0.706,0.622,0.921,1.036
				s0.261,0.868,0.139,1.359c-0.062,0.184-0.132,0.368-0.208,0.552c-0.076,0.185-0.169,0.338-0.276,0.461
				c-0.107,0.123-0.207,0.192-0.299,0.207c-0.093,0.016-0.185-0.069-0.276-0.253c-0.031-0.092-0.069-0.222-0.115-0.391
				c-0.046-0.168-0.115-0.338-0.207-0.507c-0.093-0.168-0.224-0.322-0.392-0.46c-0.169-0.138-0.392-0.208-0.668-0.208
				c-0.584,0-1.243,0.361-1.98,1.083c-0.737,0.722-1.443,1.566-2.119,2.533c-0.675,0.967-1.259,1.935-1.75,2.901
				c-0.491,0.967-0.799,1.697-0.921,2.188c-0.185,0.799-0.169,1.22,0.046,1.267c0.215,0.046,0.553-0.123,1.014-0.507
				c0.46-0.383,0.982-0.913,1.565-1.589c0.583-0.675,1.136-1.343,1.658-2.003c0.521-0.66,0.975-1.244,1.358-1.75
				c0.384-0.506,0.591-0.775,0.622-0.806c0.398-0.307,0.798-0.445,1.197-0.415c0.399,0.031,0.744,0.177,1.037,0.438
				c0.291,0.261,0.49,0.583,0.599,0.967c0.106,0.384,0.068,0.776-0.115,1.174c-0.216,0.492-0.5,1.075-0.853,1.75
				c-0.354,0.676-0.575,1.275-0.668,1.796c-0.092,0.799,0,1.321,0.276,1.566c0.276,0.246,0.783,0.23,1.521-0.046
				c0.583-0.246,1.197-0.683,1.842-1.312c0.646-0.629,1.282-1.297,1.911-2.004c0.63-0.706,1.221-1.381,1.773-2.026
				c0.553-0.645,1.014-1.121,1.382-1.428c0.092-0.092,0.207-0.191,0.346-0.299c0.138-0.107,0.253-0.13,0.346-0.069
				c0.153,0.062,0.237,0.146,0.253,0.253c0.015,0.108,0.023,0.223,0.023,0.346c-0.399,0.983-0.876,1.95-1.428,2.901
				c-0.553,0.952-1.175,1.835-1.866,2.648c-0.69,0.814-1.458,1.536-2.303,2.165c-0.845,0.63-1.758,1.128-2.74,1.497
				c-0.614,0.214-1.167,0.283-1.658,0.207c-0.491-0.077-0.937-0.253-1.335-0.53c-0.399-0.276-0.723-0.629-0.968-1.059
				C166.156,92.333,165.988,91.872,165.895,91.381z"/>
			<path fill="#222944" d="M65.31,135.036c-0.123,2.118-0.368,4.368-0.736,6.747c-0.369,2.379-0.853,4.583-1.451,6.609
				c-0.599,2.027-1.306,3.723-2.119,5.09c-0.813,1.365-1.727,2.096-2.74,2.188c-0.829,0.061-1.504-0.123-2.026-0.553
				c-0.521-0.43-0.813-1.044-0.875-1.842c-0.092-1.475,0.077-3.094,0.507-4.859s0.998-3.531,1.704-5.297s1.474-3.454,2.303-5.066
				c0.829-1.611,1.581-3.017,2.257-4.214c0.092-0.185,0.237-0.477,0.438-0.875c0.199-0.399,0.414-0.821,0.645-1.267
				s0.445-0.875,0.645-1.289c0.2-0.415,0.361-0.715,0.484-0.898c-0.431,0.092-0.883,0.184-1.359,0.275
				c-0.476,0.093-0.937,0.123-1.381,0.093c-0.446-0.03-0.868-0.138-1.267-0.322c-0.399-0.185-0.737-0.491-1.014-0.921
				c-0.521-0.922-0.683-1.988-0.483-3.201c0.2-1.213,0.651-2.364,1.358-3.455c0.706-1.089,1.619-1.995,2.74-2.717
				c1.121-0.721,2.326-1.066,3.616-1.036c0.767,0.03,1.435,0.192,2.003,0.483c0.568,0.292,0.982,0.599,1.243,0.922
				c0.261,0.322,0.369,0.605,0.323,0.852c-0.047,0.246-0.3,0.322-0.761,0.23c-1.167-0.215-2.272-0.084-3.315,0.391
				c-1.045,0.477-1.935,1.105-2.672,1.889c-0.736,0.783-1.289,1.605-1.658,2.465c-0.368,0.859-0.46,1.551-0.276,2.072
				c0.093,0.154,0.238,0.215,0.438,0.184c0.2-0.029,0.407-0.076,0.622-0.138c0.553-0.215,1.083-0.522,1.589-0.921
				c0.507-0.398,0.982-0.836,1.428-1.312s0.859-0.968,1.244-1.475c0.384-0.506,0.729-0.975,1.036-1.404
				c0.122-0.215,0.322-0.453,0.599-0.715c0.276-0.26,0.567-0.46,0.875-0.598c0.307-0.139,0.591-0.169,0.853-0.092
				c0.26,0.076,0.438,0.345,0.529,0.805c0.062,0.676,0.03,1.352-0.092,2.027c-0.123,0.676-0.385,1.366-0.783,2.072
				c-0.308,0.461-0.638,0.982-0.99,1.566c-0.354,0.584-0.707,1.189-1.06,1.818c-0.354,0.631-0.676,1.252-0.967,1.865
				c-0.292,0.615-0.515,1.168-0.668,1.658c1.535-0.645,3.247-1.773,5.136-3.385c1.888-1.611,3.723-3.446,5.503-5.504
				c0.215-0.276,0.354-0.322,0.415-0.139c0.062,0.186,0.069,0.438,0.022,0.761c-0.046,0.322-0.131,0.652-0.253,0.99
				c-0.123,0.338-0.23,0.538-0.322,0.599c-1.443,2.149-3.147,3.992-5.112,5.527C69.516,133.255,67.459,134.36,65.31,135.036z
				 M58.769,153.781c0.521-0.123,1.028-0.606,1.52-1.451c0.491-0.844,0.952-1.865,1.382-3.062s0.813-2.486,1.151-3.869
				c0.338-1.381,0.629-2.679,0.875-3.891c0.246-1.214,0.422-2.258,0.53-3.133c0.107-0.875,0.146-1.404,0.115-1.588
				c0-0.123-0.031-0.154-0.093-0.093c-0.246,0.46-0.553,1.189-0.921,2.188c-0.368,0.997-0.76,2.118-1.175,3.362
				c-0.414,1.244-0.828,2.525-1.243,3.846c-0.414,1.32-0.791,2.541-1.128,3.662c-0.339,1.12-0.6,2.049-0.783,2.786
				C58.815,153.275,58.739,153.689,58.769,153.781z"/>
			<path fill="#222944" d="M95.799,123.843h0.046v0.369c-0.307,1.105-0.782,2.104-1.428,2.994c-0.246,0.307-0.545,0.744-0.897,1.312
				c-0.354,0.568-0.668,1.021-0.944,1.358c-0.645,0.706-1.252,1.329-1.819,1.865c-0.568,0.538-1.252,1.021-2.05,1.45
				c-0.368,0.186-0.775,0.346-1.221,0.484s-0.891,0.207-1.335,0.207c-0.445,0-0.868-0.077-1.267-0.23
				c-0.399-0.154-0.737-0.43-1.014-0.828c-0.491-0.615-0.76-1.344-0.806-2.188s0.099-1.712,0.438-2.603
				c-0.062,0.062-0.154,0.154-0.276,0.277c-0.123,0.123-0.262,0.261-0.415,0.414c-0.153,0.154-0.299,0.299-0.438,0.438
				c-0.138,0.139-0.238,0.223-0.299,0.254c-0.461,0.46-0.921,0.859-1.382,1.197s-0.938,0.629-1.428,0.875
				c-0.399,0.184-0.745,0.292-1.036,0.322c-0.293,0.031-0.561-0.023-0.807-0.162c-0.246-0.138-0.483-0.345-0.714-0.621
				c-0.229-0.276-0.483-0.599-0.76-0.967c-0.398-0.553-0.698-1.098-0.898-1.635c-0.199-0.537-0.237-1.113-0.114-1.729
				c0.062-0.214,0.114-0.429,0.161-0.645c0.046-0.214,0.115-0.414,0.207-0.598c0.185-0.522,0.406-1.121,0.668-1.797
				c0.26-0.675,0.529-1.351,0.806-2.026c0.276-0.675,0.545-1.313,0.806-1.911c0.261-0.6,0.484-1.082,0.668-1.451
				c0.215-0.553,0.537-0.829,0.968-0.829c0.43,0,0.821,0.169,1.174,0.507s0.622,0.783,0.807,1.336
				c0.184,0.553,0.138,1.09-0.139,1.611c-0.154,0.369-0.384,0.891-0.69,1.566c-0.308,0.676-0.622,1.375-0.944,2.096
				c-0.322,0.722-0.606,1.404-0.853,2.049s-0.384,1.121-0.414,1.428c0,0.676,0.13,1.029,0.392,1.06
				c0.261,0.031,0.613-0.138,1.06-0.507c0.444-0.368,0.936-0.882,1.474-1.543c0.537-0.66,1.082-1.358,1.635-2.096
				c0.553-0.736,1.066-1.45,1.543-2.141c0.476-0.691,0.882-1.252,1.221-1.682c0.43-0.768,0.79-1.451,1.082-2.049
				c0.292-0.6,0.729-1.19,1.312-1.773c0.307-0.123,0.675-0.1,1.105,0.068c0.43,0.17,0.813,0.423,1.151,0.76
				c0.338,0.339,0.576,0.715,0.714,1.129c0.139,0.414,0.1,0.775-0.115,1.082c-0.553,0.707-1.052,1.306-1.496,1.797
				c-0.446,0.491-0.868,1.121-1.267,1.889c-0.216,0.49-0.461,1.035-0.737,1.635c-0.276,0.598-0.529,1.213-0.76,1.842
				c-0.23,0.63-0.415,1.244-0.553,1.842c-0.139,0.6-0.177,1.129-0.115,1.59c0,0.521,0.261,0.736,0.783,0.645
				c0.736-0.123,1.55-0.514,2.44-1.174s1.766-1.412,2.626-2.258c0.858-0.844,1.657-1.673,2.395-2.486S95.369,124.244,95.799,123.843
				z"/>
			<path fill="#222944" d="M92.713,128.772c-0.062-1.167,0.062-2.379,0.368-3.639c0.308-1.259,0.768-2.418,1.382-3.478
				c0.613-1.059,1.389-1.926,2.325-2.602s2.034-1.029,3.294-1.06c0.645,0.153,1.144,0.477,1.496,0.968
				c0.353,0.49,0.453,1.09,0.3,1.795c-0.123,0.676-0.3,1.252-0.529,1.729c-0.23,0.476-0.622,0.975-1.175,1.496
				c-0.276,0.246-0.661,0.568-1.151,0.967c-0.491,0.4-0.968,0.814-1.428,1.244c-0.461,0.43-0.86,0.867-1.197,1.312
				c-0.339,0.445-0.507,0.822-0.507,1.129c-0.092,0.799,0.03,1.312,0.368,1.543s0.775,0.322,1.312,0.275
				c0.537-0.045,1.083-0.191,1.636-0.438c0.552-0.245,0.997-0.46,1.335-0.645c0.399-0.276,0.845-0.621,1.336-1.036
				s0.982-0.853,1.474-1.312c0.491-0.461,0.968-0.905,1.428-1.336c0.461-0.43,0.845-0.782,1.151-1.06
				c0.246-0.245,0.468-0.475,0.668-0.69c0.199-0.214,0.438-0.399,0.714-0.553c0.245-0.062,0.438-0.076,0.576-0.046
				c0.138,0.031,0.115,0.262-0.069,0.691c-0.246,0.521-0.546,1.013-0.898,1.473c-0.354,0.461-0.729,0.922-1.128,1.383
				c-0.553,0.613-1.145,1.259-1.773,1.934c-0.63,0.676-1.29,1.298-1.98,1.865c-0.69,0.568-1.413,1.06-2.165,1.475
				c-0.752,0.414-1.527,0.684-2.325,0.806c-1.413,0.092-2.572-0.2-3.478-0.876C93.166,131.413,92.713,130.308,92.713,128.772z
				 M100.082,120.113c-0.829,0.308-1.482,0.707-1.958,1.197c-0.477,0.492-0.821,1.214-1.036,2.166
				c0.675-0.491,1.282-0.99,1.819-1.498C99.444,121.472,99.836,120.85,100.082,120.113z"/>
			<path fill="#222944" d="M122.927,123.015c-1.29,1.443-2.495,2.901-3.616,4.375c-1.121,1.475-2.219,2.947-3.293,4.422
				c-0.246,0.215-0.461,0.307-0.645,0.275c-0.185-0.029-0.346-0.121-0.483-0.275c-0.139-0.153-0.246-0.346-0.323-0.576
				c-0.076-0.23-0.13-0.438-0.161-0.621c-0.061-0.553-0.061-1.159,0-1.82c0.062-0.659,0.123-1.082,0.185-1.266
				c0.123-0.521,0.284-1.121,0.483-1.797c0.2-0.675,0.407-1.358,0.622-2.049c0.215-0.691,0.422-1.366,0.622-2.027
				c0.199-0.66,0.392-1.25,0.575-1.773c0.122-0.367,0.338-0.59,0.645-0.667s0.606-0.03,0.898,0.138
				c0.292,0.17,0.521,0.453,0.691,0.853c0.168,0.399,0.191,0.905,0.068,1.52s-0.261,1.229-0.414,1.843
				c-0.154,0.614-0.292,1.213-0.415,1.796c0.891-0.982,1.773-2.003,2.648-3.063c0.875-1.059,1.728-2.109,2.557-3.154
				c0.398-0.276,0.812-0.338,1.243-0.184c0.43,0.153,0.752,0.49,0.968,1.013c0.245,0.553,0.353,1.121,0.322,1.704
				c-0.031,0.584-0.108,1.137-0.23,1.658c0.89-0.922,1.935-1.826,3.132-2.717c1.197-0.891,2.364-1.566,3.5-2.027
				c0.553-0.215,1.06-0.245,1.521-0.092c0.46,0.154,0.859,0.438,1.197,0.852s0.591,0.922,0.76,1.52
				c0.169,0.6,0.237,1.221,0.207,1.865c-0.368,0.769-0.722,1.514-1.059,2.234c-0.339,0.722-0.646,1.436-0.922,2.142
				c-0.276,0.707-0.499,1.413-0.668,2.118c-0.169,0.707-0.237,1.428-0.207,2.166c0.215,0.153,0.576,0.061,1.083-0.277
				c0.506-0.338,1.082-0.783,1.727-1.336s1.312-1.135,2.004-1.75c0.69-0.613,1.297-1.135,1.819-1.565
				c1.504-1.198,2.333-1.704,2.486-1.521c0.153,0.185-0.276,0.875-1.289,2.073c-0.983,1.167-2.02,2.318-3.109,3.454
				c-1.09,1.137-2.249,2.119-3.477,2.947c-0.399,0.277-0.86,0.422-1.382,0.438c-0.522,0.016-1.036-0.076-1.543-0.275
				c-0.507-0.201-0.944-0.508-1.312-0.922c-0.369-0.414-0.584-0.928-0.646-1.543c-0.092-0.798-0.038-1.643,0.161-2.533
				c0.2-0.89,0.468-1.773,0.807-2.648c0.337-0.875,0.721-1.727,1.151-2.556c0.43-0.829,0.829-1.597,1.197-2.303
				c-0.092-0.245-0.438-0.161-1.036,0.253s-1.328,0.99-2.188,1.728c-0.86,0.737-1.767,1.565-2.718,2.487
				c-0.952,0.921-1.827,1.766-2.625,2.533c-0.338,0.307-0.592,0.499-0.76,0.575c-0.169,0.077-0.315,0.115-0.438,0.115
				c-0.308,0-0.507-0.253-0.599-0.76c-0.093-0.507-0.132-1.09-0.115-1.751c0.015-0.659,0.068-1.305,0.161-1.934
				C122.788,123.699,122.864,123.261,122.927,123.015z"/>
			<path fill="#222944" d="M139.736,128.772c-0.062-1.167,0.062-2.379,0.368-3.639c0.308-1.259,0.768-2.418,1.382-3.478
				c0.613-1.059,1.389-1.926,2.325-2.602s2.034-1.029,3.294-1.06c0.645,0.153,1.144,0.477,1.496,0.968
				c0.353,0.49,0.453,1.09,0.3,1.795c-0.123,0.676-0.3,1.252-0.529,1.729c-0.23,0.476-0.622,0.975-1.175,1.496
				c-0.276,0.246-0.661,0.568-1.151,0.967c-0.491,0.4-0.968,0.814-1.428,1.244c-0.461,0.43-0.86,0.867-1.197,1.312
				c-0.339,0.445-0.507,0.822-0.507,1.129c-0.092,0.799,0.03,1.312,0.368,1.543s0.775,0.322,1.312,0.275
				c0.537-0.045,1.083-0.191,1.636-0.438c0.552-0.245,0.997-0.46,1.335-0.645c0.399-0.276,0.845-0.621,1.336-1.036
				s0.982-0.853,1.474-1.312c0.491-0.461,0.968-0.905,1.428-1.336c0.461-0.43,0.845-0.782,1.151-1.06
				c0.246-0.245,0.468-0.475,0.668-0.69c0.199-0.214,0.438-0.399,0.714-0.553c0.245-0.062,0.438-0.076,0.576-0.046
				c0.138,0.031,0.115,0.262-0.069,0.691c-0.246,0.521-0.546,1.013-0.898,1.473c-0.354,0.461-0.729,0.922-1.128,1.383
				c-0.553,0.613-1.145,1.259-1.773,1.934c-0.63,0.676-1.29,1.298-1.98,1.865c-0.69,0.568-1.413,1.06-2.165,1.475
				c-0.752,0.414-1.527,0.684-2.325,0.806c-1.413,0.092-2.572-0.2-3.478-0.876C140.189,131.413,139.736,130.308,139.736,128.772z
				 M147.105,120.113c-0.829,0.308-1.482,0.707-1.958,1.197c-0.477,0.492-0.821,1.214-1.036,2.166
				c0.675-0.491,1.282-0.99,1.819-1.498C146.468,121.472,146.859,120.85,147.105,120.113z"/>
			<path fill="#222944" d="M37.054,166.208c-0.614-0.859-1.221-1.734-1.819-2.625s-0.897-1.873-0.897-2.947
				c0-1.198,0.345-2.326,1.036-3.386c0.69-1.06,1.48-1.911,2.372-2.556c0.368-0.246,0.744-0.445,1.128-0.6
				c0.384-0.152,0.79-0.138,1.221,0.047c0.185,0.092,0.376,0.16,0.576,0.207c0.199,0.046,0.375,0.1,0.529,0.161
				c0.153,0.062,0.322,0.153,0.507,0.276c0.184,0.123,0.276,0.292,0.276,0.506c0,0.86,0.022,1.56,0.068,2.096
				c0.047,0.538,0.115,0.998,0.208,1.383c0.092,0.384,0.184,0.721,0.276,1.013c0.092,0.292,0.184,0.606,0.276,0.944
				c0.061,0.307,0.046,0.568-0.047,0.783c-0.092,0.215-0.322,0.246-0.69,0.092c-0.676-0.246-1.175-0.736-1.497-1.475
				c-0.322-0.736-0.561-1.411-0.714-2.025c-0.031-0.123-0.107-0.338-0.23-0.646c-0.123-0.306-0.199-0.521-0.229-0.645
				c-0.246-0.062-0.538,0.022-0.876,0.253s-0.637,0.546-0.897,0.944c-0.262,0.399-0.431,0.86-0.507,1.382
				c-0.077,0.522,0.023,1.045,0.3,1.566c0.122,0.184,0.299,0.406,0.529,0.668c0.23,0.261,0.461,0.529,0.69,0.806
				c0.23,0.276,0.461,0.546,0.691,0.806c0.23,0.262,0.422,0.469,0.575,0.622c0.185,0.185,0.307,0.284,0.369,0.3
				c0.061,0.016,0.214-0.023,0.46-0.115c0.307-0.154,0.775-0.354,1.405-0.6c0.629-0.245,1.289-0.49,1.98-0.736
				c0.69-0.246,1.351-0.453,1.98-0.622c0.629-0.169,1.112-0.253,1.45-0.253c0.215,0,0.369,0.076,0.461,0.23
				c0.092,0.092,0.076,0.215-0.046,0.368c-0.123,0.153-0.284,0.308-0.483,0.46c-0.2,0.154-0.407,0.293-0.622,0.415
				c-0.215,0.123-0.354,0.2-0.415,0.229c-0.522,0.309-1.182,0.653-1.98,1.037c-0.799,0.385-1.489,0.76-2.072,1.129
				c-0.062,0.061-0.177,0.123-0.346,0.184c-0.169,0.062-0.299,0.123-0.391,0.184c0.368,0.83,0.629,1.543,0.782,2.143
				c0.153,0.599,0.208,1.174,0.161,1.727c-0.046,0.553-0.161,1.113-0.345,1.682c-0.185,0.567-0.431,1.221-0.737,1.957
				c-0.431,0.706-0.868,1.382-1.312,2.027c-0.445,0.645-0.944,1.227-1.497,1.75c-0.553,0.521-1.151,0.936-1.796,1.243
				c-0.645,0.307-1.352,0.46-2.119,0.46c-0.43,0-0.844-0.054-1.243-0.16c-0.398-0.108-0.737-0.331-1.014-0.668
				c-0.706-0.768-1.105-1.605-1.197-2.511s-0.015-1.804,0.23-2.694c0.185-0.553,0.414-1.059,0.69-1.52
				c0.676-1.166,1.421-2.156,2.234-2.971C35.31,167.721,36.163,166.945,37.054,166.208z M38.62,168.281
				c-0.339,0.339-0.799,0.822-1.382,1.451c-0.584,0.63-1.129,1.312-1.635,2.05c-0.507,0.737-0.922,1.466-1.244,2.188
				s-0.406,1.343-0.253,1.865c0.613-0.276,1.243-0.729,1.889-1.358c0.645-0.63,1.212-1.32,1.704-2.072
				c0.49-0.754,0.836-1.498,1.036-2.234C38.934,169.433,38.896,168.804,38.62,168.281z"/>
			<path fill="#222944" d="M56.72,162.478c0.368-0.03,0.768-0.123,1.197-0.276s0.829-0.276,1.198-0.368
				c0.43-0.123,0.882-0.269,1.358-0.438c0.476-0.169,0.929-0.3,1.358-0.392c0.307,0,0.43,0.085,0.368,0.253
				c-0.062,0.17-0.207,0.369-0.438,0.6c-0.229,0.229-0.491,0.453-0.782,0.667c-0.293,0.216-0.515,0.368-0.668,0.461
				c-0.737,0.338-1.467,0.599-2.188,0.782c-0.723,0.185-1.405,0.445-2.05,0.783c-0.276,0.492-0.661,1.145-1.151,1.957
				c-0.492,0.814-1.036,1.605-1.635,2.373c-0.6,0.768-1.229,1.428-1.889,1.98c-0.661,0.553-1.298,0.828-1.911,0.828
				c-0.86,0-1.598-0.245-2.211-0.736c-0.461-0.307-0.807-0.783-1.036-1.428c-0.23-0.645-0.369-1.343-0.415-2.096
				c-0.046-0.752-0.022-1.488,0.069-2.211c0.092-0.721,0.2-1.312,0.322-1.773c0.031-0.214,0.077-0.36,0.139-0.438
				c0.062-0.076,0.123-0.13,0.184-0.16c0.062-0.031,0.131-0.062,0.207-0.093c0.077-0.03,0.146-0.093,0.208-0.185
				c0.092-0.338,0.184-0.69,0.276-1.059c0.092-0.369,0.229-0.707,0.414-1.014c0.521-0.922,1.189-1.773,2.004-2.557
				c0.812-0.783,1.757-1.235,2.832-1.358c0.675-0.122,1.297-0.092,1.865,0.093c0.568,0.184,1.066,0.537,1.497,1.059
				c0.368,0.399,0.629,0.838,0.783,1.312c0.153,0.477,0.245,0.938,0.276,1.382c0.03,0.446,0.015,0.853-0.046,1.221
				C56.796,162.017,56.75,162.294,56.72,162.478z M49.995,170.031c0.307-0.061,0.652-0.283,1.037-0.667
				c0.383-0.384,0.752-0.821,1.104-1.313c0.354-0.49,0.66-0.99,0.922-1.496c0.26-0.507,0.438-0.929,0.529-1.267
				c-0.614,0.062-1.274,0.092-1.98,0.092c-0.707,0-1.366-0.062-1.98-0.185c-0.092,0.277-0.154,0.639-0.185,1.083
				c-0.03,0.445-0.03,0.905,0,1.382s0.093,0.929,0.185,1.358C49.719,169.449,49.842,169.786,49.995,170.031z M54.095,162.939
				c0.062,0,0.122-0.031,0.185-0.092c0.061-0.062,0.092-0.123,0.092-0.186c0.245-0.582,0.36-1.227,0.346-1.934
				c-0.017-0.706-0.238-1.273-0.668-1.704c-0.216-0.245-0.492-0.384-0.829-0.415c-0.339-0.029-0.661,0.031-0.968,0.185
				c-0.614,0.368-1.105,0.799-1.474,1.29s-0.722,0.998-1.06,1.52c0,0.154,0.03,0.262,0.093,0.322
				c0.307,0.276,0.444,0.584,0.414,0.922c0,0.153,0.177,0.246,0.53,0.275c0.353,0.031,0.752,0.039,1.197,0.023
				c0.444-0.016,0.875-0.053,1.289-0.115C53.657,162.97,53.94,162.939,54.095,162.939z"/>
			<path fill="#222944" d="M71.826,158.333c-1.167,0.521-2.241,1.297-3.224,2.325c-0.983,1.029-1.911,2.173-2.787,3.431
				c-0.875,1.26-1.727,2.564-2.556,3.916c-0.829,1.352-1.658,2.609-2.487,3.776c-0.245,0.276-0.537,0.353-0.875,0.229
				s-0.553-0.361-0.645-0.713c-0.093-0.354-0.062-0.729,0.092-1.129c0.215-0.736,0.423-1.566,0.622-2.486
				c0.2-0.922,0.392-1.889,0.575-2.902c0.185-1.014,0.376-2.026,0.576-3.039c0.199-1.014,0.406-1.98,0.622-2.902
				c0.061-0.245,0.207-0.438,0.438-0.576c0.229-0.138,0.483-0.214,0.76-0.229c0.276-0.015,0.521,0.038,0.736,0.161
				s0.353,0.307,0.415,0.553c0.122,0.614,0.084,1.352-0.115,2.211c-0.2,0.859-0.423,1.703-0.668,2.533
				c0.553-0.676,1.159-1.467,1.819-2.373c0.66-0.904,1.382-1.75,2.165-2.533c0.782-0.782,1.611-1.428,2.486-1.934
				c0.876-0.507,1.789-0.714,2.741-0.622c0.49,0.154,0.882,0.407,1.174,0.761c0.292,0.353,0.514,0.752,0.668,1.197
				c0.153,0.445,0.237,0.883,0.254,1.312c0.015,0.43-0.023,0.799-0.115,1.105c-0.216,0.43-0.469,0.898-0.761,1.404
				c-0.292,0.507-0.522,1.021-0.69,1.543c-0.169,0.522-0.238,1.036-0.207,1.543c0.03,0.507,0.276,0.96,0.736,1.359
				c0.185,0.246,0.169,0.43-0.046,0.553s-0.507,0.191-0.875,0.207s-0.736-0.023-1.105-0.115c-0.368-0.092-0.63-0.23-0.783-0.415
				c-0.491-0.675-0.79-1.358-0.897-2.05c-0.108-0.69-0.085-1.389,0.069-2.096c0.152-0.705,0.398-1.396,0.736-2.072
				C71.013,159.592,71.396,158.947,71.826,158.333z"/>
			<path fill="#222944" d="M79.933,165.379c-0.892,1.997-1.697,3.923-2.418,5.78c-0.722,1.857-1.405,3.685-2.05,5.48
				c-0.645,1.797-1.281,3.593-1.911,5.389c-0.629,1.797-1.312,3.646-2.05,5.551c-0.03,0.092-0.069,0.214-0.115,0.368
				c-0.046,0.153-0.13,0.307-0.253,0.46c-0.185,0.246-0.33,0.369-0.438,0.369s-0.191-0.047-0.254-0.139
				c-0.368-0.491-0.605-1.15-0.714-1.98c-0.107-0.828-0.084-1.643,0.069-2.441c0.276-1.473,0.652-3.023,1.128-4.65
				c0.477-1.629,0.999-3.279,1.566-4.951c0.568-1.675,1.175-3.363,1.819-5.066c0.645-1.705,1.289-3.37,1.935-4.998
				c0.767-1.842,1.488-3.546,2.164-5.112c0.676-1.565,1.352-3.101,2.027-4.605c0.245-0.368,0.567-0.514,0.967-0.438
				c0.398,0.077,0.767,0.284,1.105,0.622c0.337,0.338,0.599,0.752,0.783,1.243c0.184,0.491,0.214,0.952,0.092,1.382
				c-0.368,0.982-0.775,1.889-1.221,2.717c-0.445,0.83-0.837,1.689-1.175,2.58c1.075-1.044,2.149-2.042,3.225-2.994
				c1.074-0.951,2.303-1.596,3.685-1.935c0.613-0.092,1.112-0.062,1.497,0.093c0.383,0.153,0.69,0.384,0.921,0.69
				c0.23,0.308,0.398,0.676,0.507,1.105c0.106,0.431,0.191,0.86,0.253,1.29c0.03-0.062,0.084-0.085,0.161-0.07
				c0.076,0.017,0.146-0.006,0.207-0.068c0.982-0.276,1.98-0.476,2.994-0.599c1.014-0.122,2.011-0.185,2.994-0.185
				c0.49-0.061,0.844,0.016,1.059,0.23s0.076,0.399-0.414,0.553c-0.553,0.154-1.137,0.299-1.75,0.438
				c-0.615,0.139-1.229,0.292-1.843,0.461s-1.205,0.346-1.773,0.529s-1.066,0.414-1.496,0.691c-0.399,0.246-0.753,0.706-1.06,1.381
				c-0.368,0.891-0.906,1.758-1.612,2.603c-0.707,0.845-1.497,1.589-2.372,2.233s-1.796,1.137-2.763,1.475
				c-0.968,0.338-1.912,0.43-2.833,0.275c-0.553-0.152-0.921-0.482-1.105-0.99c-0.185-0.506-0.308-1.02-0.368-1.543
				c0-0.553,0.23-0.828,0.69-0.828c0.153-0.092,0.276-0.162,0.369-0.207c0.092-0.047,0.184-0.146,0.276-0.3
				c0.306-0.553,0.705-1.06,1.197-1.521c0.982-0.828,2.019-1.535,3.108-2.118s2.172-1.074,3.247-1.474
				c0.43-0.123,0.675-0.23,0.737-0.322c0.061-0.092,0.122-0.354,0.184-0.783c-0.062-0.613-0.33-1.028-0.806-1.244
				c-0.477-0.214-1.205-0.061-2.188,0.461c-0.461,0.276-0.96,0.63-1.497,1.06c-0.537,0.431-1.075,0.883-1.612,1.358
				c-0.537,0.477-1.052,0.952-1.543,1.428C80.776,164.589,80.331,165.011,79.933,165.379z M81.314,167.636
				c0.307,0.154,0.752,0.154,1.335,0c0.583-0.153,1.182-0.398,1.797-0.736c0.613-0.338,1.189-0.737,1.727-1.197
				c0.537-0.461,0.944-0.922,1.221-1.383c-1.075,0.431-2.111,0.914-3.108,1.451C83.286,166.308,82.296,166.931,81.314,167.636z"/>
			<path fill="#222944" d="M94.854,167.453c-0.062-1.167,0.062-2.379,0.368-3.639c0.308-1.259,0.768-2.418,1.382-3.478
				c0.613-1.06,1.389-1.927,2.325-2.603c0.937-0.675,2.034-1.028,3.294-1.059c0.645,0.153,1.144,0.477,1.496,0.967
				c0.353,0.491,0.453,1.09,0.3,1.796c-0.123,0.676-0.3,1.251-0.529,1.728c-0.23,0.477-0.622,0.975-1.175,1.496
				c-0.276,0.246-0.661,0.569-1.151,0.968c-0.491,0.399-0.968,0.813-1.428,1.243c-0.461,0.431-0.86,0.868-1.197,1.312
				c-0.339,0.445-0.507,0.822-0.507,1.129c-0.092,0.799,0.03,1.312,0.368,1.543s0.775,0.322,1.312,0.276s1.083-0.191,1.636-0.438
				c0.552-0.245,0.997-0.46,1.335-0.646c0.399-0.275,0.845-0.621,1.336-1.035c0.491-0.415,0.982-0.853,1.474-1.312
				c0.491-0.461,0.968-0.906,1.428-1.336c0.461-0.43,0.845-0.783,1.151-1.06c0.246-0.245,0.468-0.476,0.668-0.69
				c0.199-0.215,0.438-0.399,0.714-0.553c0.245-0.062,0.438-0.076,0.576-0.047c0.138,0.031,0.115,0.262-0.069,0.691
				c-0.246,0.522-0.546,1.014-0.898,1.474c-0.354,0.46-0.729,0.921-1.128,1.382c-0.553,0.614-1.145,1.26-1.773,1.934
				c-0.63,0.676-1.29,1.299-1.98,1.866c-0.69,0.568-1.413,1.06-2.165,1.474s-1.527,0.684-2.325,0.807
				c-1.413,0.092-2.572-0.2-3.478-0.876C95.308,170.093,94.854,168.988,94.854,167.453z M102.224,158.793
				c-0.829,0.308-1.482,0.706-1.958,1.197c-0.477,0.491-0.821,1.214-1.036,2.165c0.675-0.49,1.282-0.99,1.819-1.497
				S101.977,159.531,102.224,158.793z"/>
			<path fill="#222944" d="M108.671,170.078c-0.123,0.246-0.215,0.399-0.276,0.461c-0.49,0.338-0.829,0.246-1.013-0.277
				c-0.062-0.245-0.107-0.475-0.139-0.69c-0.03-0.214-0.046-0.444-0.046-0.69c-0.03-0.676-0.03-1.352,0-2.027
				c0.092-0.767,0.276-1.604,0.553-2.51c0.276-0.905,0.605-1.803,0.99-2.694c0.384-0.89,0.783-1.728,1.197-2.511
				c0.415-0.782,0.806-1.42,1.175-1.91c0.184-0.277,0.438-0.43,0.76-0.461c0.322-0.03,0.637,0.046,0.944,0.23
				c0.307,0.184,0.553,0.445,0.736,0.783c0.185,0.338,0.23,0.721,0.139,1.15c-0.031,0.031-0.092,0.123-0.185,0.277
				c-0.092,0.153-0.184,0.322-0.276,0.506c-0.092,0.185-0.184,0.361-0.276,0.529c-0.092,0.17-0.153,0.27-0.184,0.3
				c0.337-0.245,0.675-0.521,1.013-0.829c0.338-0.307,0.684-0.599,1.036-0.875s0.714-0.514,1.083-0.714
				c0.368-0.199,0.767-0.3,1.197-0.3c0.521,0,0.982,0.146,1.382,0.438c0.398,0.293,0.729,0.646,0.99,1.061
				c0.261,0.414,0.422,0.859,0.483,1.335c0.062,0.477,0.03,0.929-0.092,1.358c-0.276,0.83-0.661,1.635-1.151,2.418
				c-0.492,0.783-0.99,1.559-1.497,2.326s-0.976,1.543-1.405,2.326s-0.736,1.589-0.921,2.418c-0.185,0.645-0.192,1.043-0.022,1.197
				c0.168,0.153,0.391,0.184,0.667,0.092s0.561-0.246,0.853-0.46c0.291-0.216,0.499-0.368,0.622-0.461
				c1.258-0.982,2.44-2.064,3.546-3.247c1.105-1.182,2.195-2.311,3.271-3.385c0.921-0.922,1.496-1.42,1.727-1.497
				c0.23-0.076,0.261,0.077,0.093,0.46c-0.17,0.385-0.446,0.898-0.829,1.543c-0.385,0.646-0.73,1.214-1.037,1.705
				c-0.368,0.614-0.875,1.358-1.52,2.233s-1.358,1.72-2.142,2.533s-1.589,1.504-2.418,2.072c-0.829,0.567-1.597,0.853-2.303,0.853
				c-0.522,0-0.983-0.115-1.382-0.346c-0.399-0.23-0.737-0.515-1.014-0.852c-0.276-0.339-0.483-0.723-0.621-1.152
				c-0.139-0.43-0.208-0.859-0.208-1.289c0-1.535,0.315-3.04,0.944-4.514c0.629-1.475,1.297-2.824,2.004-4.053
				c0.338-0.645,0.43-1.09,0.276-1.336c-0.154-0.246-0.599-0.199-1.336,0.139c-0.614,0.275-1.183,0.775-1.704,1.496
				c-0.522,0.723-1.006,1.505-1.45,2.35c-0.446,0.844-0.853,1.681-1.221,2.51C109.315,168.925,108.977,169.586,108.671,170.078z"/>
			<path fill="#222944" d="M133.496,158.793c0-0.062,0.016-0.107,0.046-0.138c0-0.031,0.016-0.047,0.046-0.047
				c0.952-2.026,1.896-3.984,2.833-5.872s1.889-3.708,2.855-5.458s1.98-3.438,3.04-5.066c1.06-1.627,2.188-3.207,3.385-4.744
				c0.675-0.767,1.221-1.104,1.636-1.013c0.414,0.093,0.721,0.407,0.921,0.944c0.199,0.537,0.314,1.174,0.345,1.911
				s0.016,1.336-0.046,1.796c-0.46,1.904-1.082,3.809-1.865,5.711c-0.783,1.904-1.666,3.801-2.648,5.689
				c-0.982,1.888-2.042,3.769-3.178,5.641c-1.136,1.874-2.287,3.747-3.454,5.619c-0.154,0.185-0.27,0.377-0.346,0.576
				c-0.077,0.2-0.146,0.422-0.207,0.668c-0.062,0.276-0.131,0.668-0.207,1.174c-0.077,0.508-0.123,1.037-0.139,1.59
				s0.023,1.059,0.115,1.52c0.093,0.461,0.261,0.753,0.507,0.875c0.368,0.185,0.905,0.146,1.612-0.115
				c0.706-0.26,1.458-0.652,2.257-1.174c0.798-0.521,1.604-1.121,2.418-1.797c0.812-0.675,1.512-1.32,2.096-1.934
				c0.061-0.062,0.153-0.054,0.276,0.022c0.122,0.077,0.222,0.192,0.299,0.345c0.076,0.154,0.107,0.331,0.092,0.53
				c-0.016,0.2-0.131,0.392-0.345,0.575c-0.707,0.615-1.574,1.391-2.603,2.326c-1.029,0.938-2.104,1.805-3.224,2.603
				c-1.121,0.798-2.219,1.405-3.293,1.819c-1.075,0.414-1.997,0.422-2.764,0.023c-0.707-0.369-1.206-0.961-1.497-1.773
				c-0.292-0.813-0.453-1.705-0.483-2.672c-0.031-0.967,0.007-1.918,0.115-2.855c0.107-0.936,0.207-1.681,0.299-2.233
				c-0.062,0.062-0.115,0.146-0.161,0.253c-0.046,0.108-0.1,0.207-0.161,0.3c-0.431,0.491-0.921,1.082-1.474,1.772
				c-0.553,0.691-1.159,1.329-1.819,1.912c-0.66,0.584-1.358,1.029-2.096,1.336c-0.736,0.307-1.489,0.322-2.257,0.045
				c-0.43-0.244-0.806-0.544-1.128-0.897c-0.322-0.353-0.484-0.821-0.484-1.405c0-1.135,0.224-2.287,0.668-3.453
				c0.445-1.167,1.052-2.203,1.819-3.109c0.768-0.905,1.674-1.627,2.718-2.165c1.043-0.536,2.164-0.76,3.362-0.667
				c0.337,0.062,0.683,0.146,1.036,0.253c0.353,0.108,0.651,0.3,0.898,0.575L133.496,158.793z M126.266,165.747l0.092,0.139
				c1.043-0.829,2.096-1.65,3.155-2.464c1.059-0.813,2.156-1.62,3.293-2.418c-0.646-0.307-1.344-0.346-2.096-0.115
				c-0.753,0.229-1.459,0.614-2.119,1.151c-0.66,0.537-1.213,1.151-1.658,1.842C126.487,164.574,126.266,165.195,126.266,165.747z
				 M146.945,142.765c-1.935,2.979-3.654,6.033-5.159,9.166c-1.504,3.132-2.825,6.371-3.961,9.718
				c0.706-1.29,1.543-2.763,2.511-4.421c0.967-1.658,1.911-3.355,2.832-5.09c0.922-1.734,1.734-3.424,2.441-5.066
				C146.315,145.429,146.761,143.994,146.945,142.765z"/>
			<path fill="#222944" d="M150.675,168.742c-0.276,0.215-0.583,0.453-0.921,0.714s-0.707,0.491-1.105,0.69
				c-0.399,0.201-0.821,0.354-1.267,0.461s-0.914,0.115-1.404,0.023c-0.369-0.062-0.707-0.191-1.014-0.392s-0.599-0.438-0.875-0.714
				s-0.444-0.676-0.507-1.197c-0.061-0.521-0.076-0.937-0.046-1.244c0.154-0.798,0.368-1.643,0.645-2.533s0.615-1.766,1.014-2.625
				c0.675-1.412,1.535-2.672,2.579-3.777c1.044-1.104,2.303-1.811,3.776-2.118c0.491-0.122,1.006-0.146,1.543-0.069
				c0.537,0.078,1.006,0.254,1.405,0.53c0.398,0.276,0.706,0.622,0.921,1.036s0.261,0.867,0.139,1.359
				c-0.062,0.184-0.132,0.367-0.208,0.552s-0.169,0.339-0.276,0.461c-0.107,0.123-0.207,0.192-0.299,0.207
				c-0.093,0.017-0.185-0.069-0.276-0.253c-0.031-0.092-0.069-0.223-0.115-0.392s-0.115-0.338-0.207-0.507
				c-0.093-0.168-0.224-0.322-0.392-0.461c-0.169-0.138-0.392-0.207-0.668-0.207c-0.584,0-1.243,0.361-1.98,1.082
				c-0.737,0.723-1.443,1.566-2.119,2.533c-0.675,0.968-1.259,1.936-1.75,2.902s-0.799,1.697-0.921,2.188
				c-0.185,0.799-0.169,1.221,0.046,1.267s0.553-0.122,1.014-0.507c0.46-0.383,0.982-0.913,1.565-1.589
				c0.583-0.675,1.136-1.343,1.658-2.003c0.521-0.66,0.975-1.244,1.358-1.751s0.591-0.774,0.622-0.806
				c0.398-0.307,0.798-0.445,1.197-0.414c0.399,0.03,0.744,0.176,1.037,0.438c0.291,0.261,0.49,0.583,0.599,0.967
				c0.106,0.385,0.068,0.775-0.115,1.174c-0.216,0.492-0.5,1.076-0.853,1.75c-0.354,0.676-0.575,1.275-0.668,1.797
				c-0.092,0.799,0,1.32,0.276,1.566s0.783,0.23,1.521-0.047c0.583-0.245,1.197-0.683,1.842-1.312
				c0.646-0.629,1.282-1.297,1.911-2.004c0.63-0.705,1.221-1.381,1.773-2.025s1.014-1.121,1.382-1.428
				c0.092-0.093,0.207-0.191,0.346-0.3c0.138-0.107,0.253-0.13,0.346-0.069c0.153,0.062,0.237,0.146,0.253,0.254
				c0.015,0.107,0.023,0.223,0.023,0.346c-0.399,0.982-0.876,1.949-1.428,2.9c-0.553,0.953-1.175,1.836-1.866,2.648
				c-0.69,0.814-1.458,1.536-2.303,2.165c-0.845,0.63-1.758,1.128-2.74,1.497c-0.614,0.215-1.167,0.283-1.658,0.207
				c-0.491-0.077-0.937-0.254-1.335-0.529c-0.399-0.277-0.723-0.629-0.968-1.06C150.935,169.694,150.768,169.234,150.675,168.742z"
				/>
			<path fill="#222944" d="M162.419,170.078c-0.123,0.246-0.215,0.399-0.276,0.461c-0.49,0.338-0.829,0.246-1.013-0.277
				c-0.062-0.245-0.107-0.475-0.139-0.69c-0.03-0.214-0.046-0.444-0.046-0.69c-0.03-0.676-0.03-1.352,0-2.027
				c0.092-0.767,0.276-1.604,0.553-2.51c0.276-0.905,0.605-1.803,0.99-2.694c0.384-0.89,0.783-1.728,1.197-2.511
				c0.415-0.782,0.806-1.42,1.175-1.91c0.184-0.277,0.438-0.43,0.76-0.461c0.322-0.03,0.637,0.046,0.944,0.23
				c0.307,0.184,0.553,0.445,0.736,0.783c0.185,0.338,0.23,0.721,0.139,1.15c-0.031,0.031-0.092,0.123-0.185,0.277
				c-0.092,0.153-0.184,0.322-0.276,0.506c-0.092,0.185-0.184,0.361-0.276,0.529c-0.092,0.17-0.153,0.27-0.184,0.3
				c0.337-0.245,0.675-0.521,1.013-0.829c0.338-0.307,0.684-0.599,1.036-0.875s0.714-0.514,1.083-0.714
				c0.368-0.199,0.767-0.3,1.197-0.3c0.521,0,0.982,0.146,1.382,0.438c0.398,0.293,0.729,0.646,0.99,1.061
				c0.261,0.414,0.422,0.859,0.483,1.335c0.062,0.477,0.03,0.929-0.092,1.358c-0.276,0.83-0.661,1.635-1.151,2.418
				c-0.492,0.783-0.99,1.559-1.497,2.326s-0.976,1.543-1.405,2.326s-0.736,1.589-0.921,2.418c-0.185,0.645-0.192,1.043-0.022,1.197
				c0.168,0.153,0.391,0.184,0.667,0.092s0.561-0.246,0.853-0.46c0.291-0.216,0.499-0.368,0.622-0.461
				c1.258-0.982,2.44-2.064,3.546-3.247c1.105-1.182,2.195-2.311,3.271-3.385c0.921-0.922,1.496-1.42,1.727-1.497
				c0.23-0.076,0.261,0.077,0.093,0.46c-0.17,0.385-0.446,0.898-0.829,1.543c-0.385,0.646-0.73,1.214-1.037,1.705
				c-0.368,0.614-0.875,1.358-1.52,2.233s-1.358,1.72-2.142,2.533s-1.589,1.504-2.418,2.072c-0.829,0.567-1.597,0.853-2.303,0.853
				c-0.522,0-0.983-0.115-1.382-0.346c-0.399-0.23-0.737-0.515-1.014-0.852c-0.276-0.339-0.483-0.723-0.621-1.152
				c-0.139-0.43-0.208-0.859-0.208-1.289c0-1.535,0.315-3.04,0.944-4.514c0.629-1.475,1.297-2.824,2.004-4.053
				c0.338-0.645,0.43-1.09,0.276-1.336c-0.154-0.246-0.599-0.199-1.336,0.139c-0.614,0.275-1.183,0.775-1.704,1.496
				c-0.522,0.723-1.006,1.505-1.45,2.35c-0.446,0.844-0.853,1.681-1.221,2.51C163.063,168.925,162.726,169.586,162.419,170.078z"/>
		</g>
		<g>
			<path fill="#ED7AA9" d="M91.928,37.874c1.752-2.849,4.917-5.455,9.495-7.816l0.859,1.61c-2.29,1.622-3.983,2.98-5.079,4.076
				c-1.932,1.98-2.897,3.876-2.897,5.688c0,0.62,0.179,1.025,0.537,1.216c0.357,0.214,0.667,0.321,0.93,0.321
				c0.906-0.119,1.503-0.179,1.788-0.179c1.526,0,2.778,0.554,3.757,1.663c0.977,1.11,1.467,2.451,1.467,4.024
				c0,1.765-0.537,3.237-1.61,4.417c-1.072,1.18-2.551,1.77-4.435,1.77c-2.218,0-4.012-0.792-5.383-2.378
				c-1.371-1.586-2.057-3.702-2.057-6.349C89.298,43.412,90.175,40.724,91.928,37.874z M111.832,37.677
				c1.86-2.837,4.971-5.377,9.334-7.618l0.859,1.61c-2.146,1.501-3.791,2.825-4.936,3.97c-2.027,2.027-3.041,3.91-3.041,5.651
				c0,0.501,0.131,0.906,0.394,1.216c0.262,0.31,0.62,0.465,1.072,0.465c0.906-0.119,1.503-0.179,1.789-0.179
				c1.501,0,2.747,0.549,3.737,1.645c0.989,1.097,1.485,2.445,1.485,4.042c0,1.86-0.549,3.356-1.645,4.489
				c-1.097,1.132-2.589,1.698-4.472,1.698c-2.146,0-3.91-0.792-5.293-2.378c-1.384-1.586-2.075-3.702-2.075-6.349
				C109.041,43.27,109.971,40.515,111.832,37.677z"/>
		</g>
	</g>
</g>
<g>
</g>
<g>
</g>
<g>
</g>
<g>
</g>
<g>
</g>
<g>
</g>
<g>
</g>
<g>
</g>
<g>
</g>
<g>
</g>
<g>
</g>
<g>
</g>
<g>
</g>
<g>
</g>
<g>
</g>
</svg>
