<?xml version="1.0" encoding="utf-8"?>
<!-- Generator: Adobe Illustrator 17.0.0, SVG Export Plug-In . SVG Version: 6.00 Build 0)  -->
<!DOCTYPE svg PUBLIC "-//W3C//DTD SVG 1.1//EN" "http://www.w3.org/Graphics/SVG/1.1/DTD/svg11.dtd">
<svg version="1.1" id="Layer_1" xmlns="http://www.w3.org/2000/svg" xmlns:xlink="http://www.w3.org/1999/xlink" x="0px" y="0px"
	 width="226.928px" height="256.575px" viewBox="0 0 226.928 256.575" enable-background="new 0 0 226.928 256.575"
	 xml:space="preserve">
<g>
	<g>
		<rect x="17.549" y="29.115" fill="#222944" width="187.551" height="16.832"/>
		<g>
			<path fill="#222944" d="M28.764,18.343h0.034l2.692-7.591h3.063v11.445h-2.306v-7.271h-0.034l-2.726,7.271h-1.684l-2.659-7.271
				h-0.033v7.271h-2.256V10.752h3.08L28.764,18.343z"/>
			<path fill="#222944" d="M48.828,19.605h-3.619l-0.774,2.592h-2.457l3.703-11.529h2.827l3.652,11.529h-2.559L48.828,19.605z
				 M47.01,13.563l-1.329,4.106h2.676l-1.312-4.106H47.01z"/>
			<path fill="#222944" d="M65.49,18.343h0.034l2.692-7.591h3.063v11.445h-2.306v-7.271H68.94l-2.726,7.271h-1.684l-2.659-7.271
				h-0.033v7.271h-2.256V10.752h3.08L65.49,18.343z"/>
			<path fill="#222944" d="M85.554,19.605h-3.619l-0.774,2.592h-2.457l3.703-11.529h2.827l3.652,11.529h-2.559L85.554,19.605z
				 M83.735,13.563l-1.329,4.106h2.676l-1.312-4.106H83.735z M84.51,10.062h-1.178l0.925-2.02h1.802L84.51,10.062z"/>
			<path fill="#222944" d="M110.397,15.818l2.238-5.066h2.508l-3.669,7.406v4.039h-2.323v-4.039l-3.686-7.406h2.643l2.255,5.066
				H110.397z"/>
			<path fill="#222944" d="M126.993,19.605h-3.619l-0.774,2.592h-2.457l3.703-11.529h2.827l3.652,11.529h-2.559L126.993,19.605z
				 M125.175,13.563l-1.329,4.106h2.676l-1.312-4.106H125.175z"/>
			<path fill="#222944" d="M147.409,22.197V10.752h2.323v4.511h4.375v-4.511h2.307v11.445h-2.307v-4.881h-4.375v4.881H147.409z"/>
			<path fill="#222944" d="M164.577,22.197V10.752h2.323v11.445H164.577z"/>
			<path fill="#222944" d="M177.892,20.144h5.2v2.053h-8.415v-1.683l5.1-7.658v-0.034h-4.763v-2.07h7.91v1.683l-5.032,7.675V20.144z
				"/>
			<path fill="#222944" d="M190.077,16.39c0-3.231,1.077-5.806,5.1-5.806s5.083,2.575,5.083,5.806c0,3.265-1.061,5.975-5.083,5.975
				S190.077,19.655,190.077,16.39z M192.518,16.39c0,2.272,0.403,4.04,2.659,4.04c2.255,0,2.643-1.767,2.643-4.04
				c0-2.272-0.388-3.871-2.643-3.871C192.921,12.519,192.518,14.118,192.518,16.39z"/>
			<path fill="#FFFFFF" d="M57.252,43.864l0.403-1.936c1.784,0.421,3.047,0.505,3.938,0.505c1.179,0,1.886-0.538,1.886-1.296
				c0-1.06-1.313-1.279-2.643-1.649c-1.986-0.555-3.417-1.649-3.417-3.584c0-2.306,1.902-3.198,4.174-3.198
				c1.296,0,2.475,0.168,4.04,0.639l-0.522,1.936c-1.801-0.42-2.642-0.505-3.518-0.505c-1.178,0-1.733,0.505-1.733,1.195
				c0,0.943,1.229,1.246,2.609,1.583c1.985,0.454,3.45,1.396,3.45,3.399c0,2.44-1.886,3.535-4.326,3.535
				C60.281,44.487,58.817,44.318,57.252,43.864z"/>
			<path fill="#FFFFFF" d="M80.613,40.279v-7.405h2.307v7.405c0,2.996-1.784,4.208-4.494,4.208s-4.511-1.212-4.511-4.208v-7.405
				h2.323v7.405c0,1.229,0.37,2.272,2.204,2.272C80.21,42.551,80.613,41.508,80.613,40.279z"/>
			<path fill="#FFFFFF" d="M102.832,32.874v9.392h5.335v2.053h-7.658V32.874H102.832z"/>
			<path fill="#FFFFFF" d="M115.993,44.318V32.874h2.323v11.445H115.993z"/>
			<path fill="#FFFFFF" d="M125.991,43.864l0.403-1.936c1.784,0.421,3.047,0.505,3.938,0.505c1.179,0,1.886-0.538,1.886-1.296
				c0-1.06-1.313-1.279-2.643-1.649c-1.986-0.555-3.417-1.649-3.417-3.584c0-2.306,1.902-3.198,4.174-3.198
				c1.296,0,2.475,0.168,4.04,0.639l-0.522,1.936c-1.801-0.42-2.643-0.505-3.518-0.505c-1.178,0-1.733,0.505-1.733,1.195
				c0,0.943,1.229,1.246,2.608,1.583c1.986,0.454,3.451,1.396,3.451,3.399c0,2.44-1.886,3.535-4.326,3.535
				C129.02,44.487,127.557,44.318,125.991,43.864z"/>
			<path fill="#FFFFFF" d="M147.3,34.944v9.375h-2.323v-9.375h-3.013v-2.07h8.332v2.07H147.3z"/>
			<path fill="#FFFFFF" d="M162.701,41.727h-3.619l-0.774,2.592h-2.457l3.703-11.529h2.827l3.652,11.529h-2.559L162.701,41.727z
				 M160.883,35.685l-1.329,4.106h2.676l-1.312-4.106H160.883z"/>
		</g>
	</g>
	<rect x="10.061" y="83.297" fill="none" stroke="#222944" stroke-miterlimit="10" width="206.807" height="164.736"/>
	<g>
		<g>
			<path fill="#222944" d="M45.704,153.385c0.307-1.135,0.698-2.31,1.175-3.523c0.476-1.212,0.982-2.418,1.52-3.615
				s1.082-2.364,1.635-3.5s1.075-2.211,1.566-3.225c-1.443,0.892-2.895,1.966-4.353,3.225c-1.459,1.259-2.879,2.656-4.26,4.191
				c-1.382,1.535-2.688,3.193-3.915,4.974c-1.229,1.781-2.326,3.632-3.293,5.55c-0.968,1.92-1.759,3.893-2.372,5.919
				c-0.615,2.026-0.998,4.068-1.151,6.125c-0.154,0.338-0.339,0.515-0.553,0.53c-0.216,0.015-0.461-0.008-0.737-0.069
				c-0.707-0.185-1.166-0.699-1.382-1.543c-0.214-0.845-0.276-1.826-0.184-2.947c0.092-1.121,0.284-2.28,0.575-3.478
				c0.292-1.197,0.576-2.257,0.853-3.178c0.767-2.456,1.604-4.744,2.51-6.863c0.905-2.118,1.85-4.19,2.832-6.218
				c0.982-2.026,1.973-4.053,2.971-6.079s1.973-4.191,2.925-6.494c0.185-0.185,0.499-0.207,0.944-0.069
				c0.444,0.139,0.898,0.361,1.358,0.668c0.461,0.308,0.875,0.668,1.244,1.082c0.368,0.415,0.553,0.807,0.553,1.175
				c0,0.399-0.185,0.99-0.553,1.773c-0.369,0.783-0.807,1.643-1.312,2.579c-0.507,0.937-1.029,1.904-1.566,2.901
				c-0.537,0.998-0.975,1.911-1.312,2.74c1.872-2.026,3.761-3.961,5.665-5.803c1.903-1.843,3.961-3.454,6.172-4.836
				c0.521-0.276,1.021-0.338,1.497-0.185c0.476,0.154,0.867,0.438,1.174,0.853c0.307,0.414,0.521,0.905,0.645,1.474
				s0.093,1.113-0.092,1.635c-0.246,0.584-0.553,1.329-0.921,2.234s-0.753,1.85-1.151,2.832c-0.399,0.983-0.783,1.935-1.151,2.855
				c-0.369,0.921-0.661,1.658-0.875,2.211c0.951-1.228,2.134-2.533,3.546-3.915s2.855-2.709,4.329-3.983
				c1.475-1.274,2.887-2.441,4.237-3.501c1.352-1.06,2.472-1.896,3.362-2.51c0.43-0.307,0.898-0.276,1.405,0.092
				s0.944,0.853,1.312,1.451s0.605,1.205,0.714,1.819c0.107,0.614,0.007,1.013-0.3,1.197c-1.474,2.518-2.771,4.852-3.892,7.001
				c-1.121,2.149-2.072,4.299-2.855,6.447c-0.783,2.15-1.366,4.36-1.75,6.633c-0.385,2.272-0.576,4.774-0.576,7.507
				c0,0.153-0.077,0.254-0.229,0.3c-0.154,0.046-0.276,0.069-0.369,0.069c-0.522-0.031-0.96-0.108-1.312-0.23
				c-0.354-0.123-0.668-0.292-0.944-0.507c-0.921-0.737-1.45-1.842-1.589-3.316c-0.138-1.474-0.016-3.116,0.368-4.928
				s0.944-3.715,1.682-5.711c0.736-1.996,1.527-3.892,2.372-5.688c0.844-1.796,1.665-3.4,2.464-4.812
				c0.798-1.412,1.428-2.456,1.889-3.132c-1.382,0.829-2.849,1.942-4.398,3.339c-1.551,1.397-3.086,2.895-4.606,4.49
				c-1.52,1.598-2.963,3.225-4.329,4.883c-1.366,1.657-2.526,3.147-3.478,4.467c-0.307,0.123-0.684,0.131-1.128,0.023
				c-0.445-0.107-0.875-0.314-1.29-0.622c-0.414-0.307-0.753-0.69-1.013-1.151C45.742,154.537,45.642,154,45.704,153.385z"/>
			<path fill="#222944" d="M68.226,162.688c-0.062-1.166,0.062-2.379,0.368-3.639c0.308-1.258,0.768-2.418,1.382-3.477
				c0.613-1.06,1.389-1.927,2.325-2.603c0.937-0.675,2.034-1.028,3.294-1.06c0.645,0.154,1.144,0.477,1.496,0.968
				s0.453,1.09,0.3,1.796c-0.123,0.676-0.3,1.251-0.529,1.728c-0.23,0.476-0.622,0.975-1.175,1.496
				c-0.276,0.246-0.661,0.569-1.151,0.968c-0.491,0.399-0.968,0.813-1.428,1.243c-0.461,0.431-0.86,0.868-1.197,1.312
				c-0.339,0.445-0.507,0.822-0.507,1.129c-0.092,0.799,0.03,1.312,0.368,1.543s0.775,0.322,1.312,0.276s1.083-0.191,1.636-0.438
				c0.552-0.246,0.997-0.461,1.335-0.646c0.399-0.276,0.845-0.621,1.336-1.036c0.491-0.414,0.982-0.852,1.474-1.312
				s0.968-0.905,1.428-1.336c0.461-0.43,0.845-0.782,1.151-1.059c0.246-0.246,0.468-0.476,0.668-0.691
				c0.199-0.214,0.438-0.398,0.714-0.553c0.245-0.061,0.438-0.076,0.576-0.046c0.138,0.031,0.115,0.262-0.069,0.691
				c-0.246,0.522-0.546,1.013-0.898,1.474c-0.354,0.46-0.729,0.921-1.128,1.382c-0.553,0.614-1.145,1.259-1.773,1.934
				c-0.63,0.676-1.29,1.298-1.98,1.866s-1.413,1.059-2.165,1.474c-0.752,0.414-1.527,0.684-2.325,0.806
				c-1.413,0.092-2.572-0.199-3.478-0.875C68.679,165.33,68.226,164.225,68.226,162.688z M75.595,154.03
				c-0.829,0.307-1.482,0.706-1.958,1.197c-0.477,0.491-0.821,1.213-1.036,2.165c0.675-0.491,1.282-0.99,1.819-1.497
				S75.349,154.767,75.595,154.03z"/>
			<path fill="#222944" d="M89.688,162.688c-0.062-1.166,0.062-2.379,0.368-3.639c0.308-1.258,0.768-2.418,1.382-3.477
				c0.613-1.06,1.389-1.927,2.325-2.603c0.937-0.675,2.034-1.028,3.294-1.06c0.645,0.154,1.144,0.477,1.496,0.968
				s0.453,1.09,0.3,1.796c-0.123,0.676-0.3,1.251-0.529,1.728c-0.23,0.476-0.622,0.975-1.175,1.496
				c-0.276,0.246-0.661,0.569-1.151,0.968c-0.491,0.399-0.968,0.813-1.428,1.243c-0.461,0.431-0.86,0.868-1.197,1.312
				c-0.339,0.445-0.507,0.822-0.507,1.129c-0.092,0.799,0.03,1.312,0.368,1.543s0.775,0.322,1.312,0.276s1.083-0.191,1.636-0.438
				c0.552-0.246,0.997-0.461,1.335-0.646c0.399-0.276,0.845-0.621,1.336-1.036c0.491-0.414,0.982-0.852,1.474-1.312
				s0.968-0.905,1.428-1.336c0.461-0.43,0.845-0.782,1.151-1.059c0.246-0.246,0.468-0.476,0.668-0.691
				c0.199-0.214,0.438-0.398,0.713-0.553c0.246-0.061,0.438-0.076,0.576-0.046c0.139,0.031,0.115,0.262-0.068,0.691
				c-0.246,0.522-0.547,1.013-0.899,1.474c-0.354,0.46-0.729,0.921-1.128,1.382c-0.553,0.614-1.145,1.259-1.773,1.934
				c-0.63,0.676-1.29,1.298-1.98,1.866s-1.413,1.059-2.165,1.474c-0.752,0.414-1.527,0.684-2.325,0.806
				c-1.413,0.092-2.572-0.199-3.478-0.875C90.141,165.33,89.688,164.225,89.688,162.688z M97.057,154.03
				c-0.829,0.307-1.482,0.706-1.958,1.197c-0.477,0.491-0.821,1.213-1.036,2.165c0.675-0.491,1.282-0.99,1.819-1.497
				S96.811,154.767,97.057,154.03z"/>
			<path fill="#222944" d="M103.504,165.314c-0.123,0.246-0.215,0.399-0.276,0.46c-0.49,0.339-0.829,0.246-1.013-0.276
				c-0.062-0.245-0.107-0.476-0.139-0.69c-0.03-0.215-0.046-0.445-0.046-0.691c-0.03-0.675-0.03-1.351,0-2.026
				c0.092-0.767,0.276-1.604,0.553-2.51c0.276-0.905,0.605-1.804,0.99-2.694c0.384-0.891,0.784-1.728,1.198-2.511
				c0.414-0.782,0.805-1.42,1.174-1.911c0.184-0.276,0.438-0.43,0.76-0.46s0.637,0.046,0.945,0.229
				c0.307,0.185,0.553,0.446,0.736,0.783c0.184,0.338,0.23,0.722,0.139,1.151c-0.031,0.031-0.092,0.123-0.186,0.276
				c-0.092,0.154-0.184,0.322-0.275,0.507s-0.184,0.361-0.277,0.529c-0.092,0.17-0.152,0.27-0.184,0.3
				c0.338-0.245,0.676-0.521,1.014-0.829c0.338-0.307,0.684-0.599,1.035-0.875c0.354-0.276,0.715-0.514,1.084-0.714
				c0.367-0.199,0.766-0.3,1.197-0.3c0.521,0,0.982,0.146,1.381,0.438c0.398,0.293,0.729,0.646,0.99,1.06
				c0.262,0.415,0.422,0.86,0.484,1.336c0.061,0.477,0.029,0.929-0.092,1.358c-0.277,0.829-0.662,1.635-1.152,2.418
				c-0.492,0.783-0.99,1.559-1.496,2.326c-0.508,0.768-0.977,1.543-1.406,2.326c-0.43,0.782-0.736,1.589-0.92,2.418
				c-0.186,0.645-0.193,1.043-0.023,1.197c0.168,0.153,0.391,0.184,0.668,0.092c0.275-0.092,0.561-0.246,0.852-0.46
				c0.291-0.216,0.5-0.369,0.623-0.461c1.258-0.982,2.439-2.064,3.545-3.247c1.105-1.182,2.195-2.311,3.271-3.386
				c0.92-0.921,1.496-1.419,1.727-1.496c0.23-0.076,0.26,0.077,0.092,0.46c-0.17,0.385-0.445,0.898-0.828,1.543
				c-0.385,0.646-0.73,1.214-1.037,1.704c-0.369,0.615-0.875,1.359-1.52,2.234s-1.359,1.72-2.143,2.533
				c-0.783,0.812-1.588,1.504-2.418,2.072c-0.828,0.567-1.596,0.852-2.303,0.852c-0.521,0-0.982-0.114-1.381-0.345
				c-0.4-0.23-0.738-0.515-1.014-0.853c-0.277-0.338-0.484-0.722-0.621-1.151c-0.139-0.431-0.209-0.859-0.209-1.289
				c0-1.535,0.316-3.04,0.945-4.514c0.629-1.475,1.297-2.825,2.004-4.054c0.338-0.645,0.43-1.089,0.275-1.335
				s-0.598-0.199-1.336,0.138c-0.613,0.276-1.182,0.776-1.703,1.497c-0.523,0.722-1.006,1.505-1.451,2.349
				c-0.445,0.845-0.852,1.682-1.221,2.511C104.149,164.162,103.811,164.823,103.504,165.314z"/>
			<path fill="#222944" d="M132.611,157.669c0.338-0.153,0.545-0.146,0.623,0.022c0.076,0.169,0.053,0.377-0.07,0.622
				c-0.184,0.368-0.414,0.706-0.689,1.013c-0.277,0.308-0.584,0.6-0.922,0.875c-0.707,0.646-1.297,1.175-1.773,1.59
				c-0.477,0.414-0.875,0.744-1.197,0.99s-0.592,0.445-0.807,0.599s-0.414,0.292-0.598,0.414c-0.707,0.431-1.404,0.845-2.096,1.244
				s-1.344,0.69-1.957,0.875c-0.953,0.276-1.883,0.284-2.787,0.022c-0.906-0.261-1.59-0.806-2.049-1.635
				c-0.523-0.951-0.738-2.05-0.646-3.293c0.094-1.244,0.408-2.441,0.945-3.593s1.25-2.134,2.141-2.947s1.873-1.251,2.949-1.312
				c0.336-0.062,0.682,0.038,1.035,0.299c0.354,0.262,0.576,0.561,0.668,0.898c0.092,0.276,0.107,0.583,0.047,0.921
				c-0.062,0.338-0.146,0.714-0.254,1.129c-0.107,0.414-0.223,0.867-0.346,1.358s-0.23,0.998-0.322,1.52
				c-0.062,0.185-0.146,0.284-0.254,0.3s-0.207-0.054-0.299-0.207c-0.338-0.522-0.545-1.021-0.621-1.497
				c-0.078-0.476-0.162-0.929-0.254-1.359c-0.184,0-0.422,0.178-0.713,0.53c-0.293,0.354-0.576,0.791-0.854,1.312
				c-0.275,0.522-0.506,1.082-0.689,1.681c-0.186,0.6-0.277,1.129-0.277,1.59c0,0.614,0.092,1.074,0.277,1.381
				c0.184,0.308,0.414,0.492,0.689,0.553c0.277,0.062,0.6,0.047,0.969-0.046c0.367-0.092,0.736-0.23,1.104-0.414
				c1.629-0.768,3.193-1.589,4.699-2.464C129.787,159.764,131.23,158.773,132.611,157.669z"/>
			<path fill="#222944" d="M137.586,163.979c-0.277,0.215-0.584,0.453-0.922,0.714s-0.707,0.491-1.105,0.69
				c-0.398,0.2-0.82,0.354-1.266,0.461s-0.914,0.115-1.404,0.022c-0.369-0.061-0.707-0.191-1.014-0.391
				c-0.307-0.2-0.6-0.438-0.875-0.714c-0.277-0.276-0.445-0.676-0.508-1.198c-0.061-0.521-0.076-0.936-0.045-1.243
				c0.154-0.798,0.367-1.643,0.645-2.533c0.275-0.891,0.615-1.766,1.014-2.625c0.674-1.412,1.535-2.672,2.578-3.777
				c1.045-1.104,2.303-1.811,3.777-2.118c0.49-0.122,1.006-0.146,1.543-0.069c0.537,0.077,1.006,0.254,1.404,0.53
				s0.707,0.621,0.922,1.036c0.215,0.414,0.26,0.867,0.139,1.358c-0.062,0.185-0.133,0.368-0.209,0.553s-0.168,0.338-0.275,0.461
				s-0.207,0.191-0.299,0.207c-0.094,0.016-0.186-0.069-0.277-0.254c-0.031-0.092-0.068-0.222-0.115-0.391
				c-0.045-0.169-0.115-0.338-0.207-0.507s-0.223-0.322-0.391-0.461c-0.17-0.138-0.393-0.207-0.668-0.207
				c-0.584,0-1.244,0.361-1.98,1.082c-0.738,0.722-1.443,1.566-2.119,2.533c-0.676,0.968-1.26,1.935-1.75,2.901
				c-0.492,0.968-0.799,1.697-0.922,2.188c-0.184,0.799-0.168,1.22,0.047,1.267c0.215,0.046,0.553-0.123,1.014-0.507
				c0.459-0.384,0.982-0.913,1.564-1.589c0.584-0.676,1.137-1.343,1.658-2.004c0.521-0.66,0.975-1.243,1.359-1.75
				c0.383-0.507,0.59-0.775,0.621-0.806c0.398-0.307,0.799-0.445,1.197-0.415c0.4,0.031,0.744,0.177,1.037,0.438
				c0.291,0.262,0.49,0.584,0.6,0.968c0.105,0.384,0.068,0.775-0.115,1.174c-0.217,0.492-0.5,1.075-0.854,1.75
				c-0.354,0.676-0.574,1.275-0.668,1.797c-0.092,0.799,0,1.32,0.277,1.565c0.275,0.246,0.783,0.23,1.52-0.046
				c0.584-0.245,1.197-0.683,1.842-1.312c0.646-0.629,1.283-1.297,1.912-2.004c0.629-0.705,1.221-1.381,1.773-2.026
				c0.553-0.645,1.014-1.12,1.381-1.428c0.092-0.092,0.207-0.191,0.346-0.299s0.254-0.131,0.346-0.069
				c0.154,0.062,0.238,0.146,0.254,0.253c0.014,0.108,0.023,0.224,0.023,0.346c-0.4,0.983-0.877,1.95-1.428,2.901
				c-0.553,0.952-1.176,1.835-1.867,2.648c-0.689,0.814-1.457,1.536-2.303,2.165c-0.844,0.63-1.758,1.128-2.74,1.497
				c-0.613,0.214-1.166,0.283-1.658,0.207c-0.49-0.077-0.936-0.254-1.334-0.53c-0.4-0.276-0.723-0.629-0.969-1.059
				S137.678,164.47,137.586,163.979z"/>
			<path fill="#222944" d="M149.33,165.314c-0.123,0.246-0.215,0.399-0.277,0.46c-0.49,0.339-0.828,0.246-1.012-0.276
				c-0.062-0.245-0.107-0.476-0.139-0.69s-0.047-0.445-0.047-0.691c-0.029-0.675-0.029-1.351,0-2.026
				c0.092-0.767,0.277-1.604,0.553-2.51c0.277-0.905,0.605-1.804,0.99-2.694s0.783-1.728,1.197-2.511
				c0.416-0.782,0.807-1.42,1.176-1.911c0.184-0.276,0.438-0.43,0.76-0.46s0.637,0.046,0.943,0.229
				c0.307,0.185,0.553,0.446,0.736,0.783c0.186,0.338,0.23,0.722,0.139,1.151c-0.031,0.031-0.092,0.123-0.184,0.276
				c-0.092,0.154-0.184,0.322-0.277,0.507c-0.092,0.185-0.184,0.361-0.275,0.529c-0.092,0.17-0.154,0.27-0.184,0.3
				c0.336-0.245,0.674-0.521,1.012-0.829c0.338-0.307,0.684-0.599,1.037-0.875c0.352-0.276,0.713-0.514,1.082-0.714
				c0.369-0.199,0.768-0.3,1.197-0.3c0.521,0,0.982,0.146,1.383,0.438c0.398,0.293,0.729,0.646,0.99,1.06
				c0.26,0.415,0.422,0.86,0.482,1.336c0.062,0.477,0.031,0.929-0.092,1.358c-0.275,0.829-0.66,1.635-1.15,2.418
				c-0.492,0.783-0.99,1.559-1.498,2.326c-0.506,0.768-0.975,1.543-1.404,2.326c-0.43,0.782-0.736,1.589-0.922,2.418
				c-0.184,0.645-0.191,1.043-0.021,1.197c0.168,0.153,0.391,0.184,0.666,0.092c0.277-0.092,0.561-0.246,0.854-0.46
				c0.291-0.216,0.498-0.369,0.621-0.461c1.258-0.982,2.441-2.064,3.547-3.247c1.105-1.182,2.195-2.311,3.27-3.386
				c0.922-0.921,1.496-1.419,1.727-1.496c0.23-0.076,0.262,0.077,0.094,0.46c-0.17,0.385-0.447,0.898-0.83,1.543
				c-0.385,0.646-0.73,1.214-1.037,1.704c-0.367,0.615-0.875,1.359-1.52,2.234s-1.357,1.72-2.141,2.533
				c-0.783,0.812-1.59,1.504-2.418,2.072c-0.83,0.567-1.598,0.852-2.303,0.852c-0.523,0-0.984-0.114-1.383-0.345
				s-0.736-0.515-1.014-0.853c-0.275-0.338-0.482-0.722-0.621-1.151c-0.139-0.431-0.207-0.859-0.207-1.289
				c0-1.535,0.314-3.04,0.943-4.514c0.629-1.475,1.297-2.825,2.004-4.054c0.338-0.645,0.43-1.089,0.277-1.335
				c-0.154-0.246-0.6-0.199-1.336,0.138c-0.615,0.276-1.184,0.776-1.705,1.497c-0.521,0.722-1.006,1.505-1.449,2.349
				c-0.447,0.845-0.854,1.682-1.221,2.511C149.975,164.162,149.637,164.823,149.33,165.314z"/>
			<path fill="#222944" d="M165.957,170.288c0.184,0.583,0.561,0.768,1.129,0.553c0.566-0.215,1.227-0.676,1.98-1.382
				c0.752-0.706,1.543-1.565,2.371-2.579c0.83-1.014,1.619-2.011,2.371-2.993c0.754-0.982,1.406-1.873,1.959-2.672
				c0.553-0.798,0.92-1.319,1.105-1.565c0.152-0.246,0.328-0.477,0.529-0.691c0.199-0.214,0.453-0.444,0.76-0.69
				c0.123-0.093,0.268-0.191,0.438-0.3c0.168-0.107,0.314-0.153,0.438-0.138s0.176,0.115,0.16,0.299
				c-0.016,0.185-0.131,0.491-0.344,0.921c-0.186,0.369-0.477,0.93-0.875,1.682c-0.4,0.753-0.893,1.597-1.475,2.533
				c-0.584,0.937-1.229,1.904-1.934,2.901c-0.707,0.997-1.467,1.927-2.281,2.786c-0.812,0.859-1.643,1.612-2.486,2.257
				c-0.846,0.646-1.697,1.06-2.557,1.244c-0.768,0.184-1.473,0.283-2.119,0.299c-0.645,0.016-1.211-0.223-1.703-0.714
				c-0.461-0.46-0.721-1.121-0.783-1.98c-0.061-0.859-0.023-1.772,0.115-2.74c0.139-0.967,0.33-1.903,0.576-2.81
				c0.246-0.905,0.445-1.604,0.598-2.096c0.492-1.596,0.959-3.17,1.406-4.721c0.443-1.55,0.881-3.108,1.312-4.675
				c0.459-1.382,0.881-2.802,1.266-4.26c0.383-1.458,0.775-2.771,1.174-3.938c-0.613-0.03-1.242-0.053-1.887-0.069
				c-0.646-0.015-1.291-0.03-1.936-0.046c-0.645-0.015-1.281-0.053-1.91-0.115c-0.631-0.061-1.221-0.168-1.773-0.322
				c-0.492-0.122-0.854-0.322-1.084-0.599c-0.229-0.276-0.336-0.553-0.322-0.829c0.018-0.276,0.17-0.514,0.461-0.714
				c0.293-0.199,0.715-0.299,1.268-0.299c0.338,0,0.891,0.03,1.658,0.092s1.572,0.107,2.418,0.138
				c0.844,0.031,1.627,0.039,2.348,0.023c0.721-0.015,1.189-0.069,1.406-0.161c0.092-0.03,0.137-0.076,0.137-0.139
				c0.186-0.552,0.385-1.135,0.6-1.75c0.215-0.613,0.43-1.212,0.645-1.796c0.215-0.583,0.422-1.136,0.621-1.658
				c0.199-0.521,0.377-0.967,0.531-1.336c0.121-0.276,0.375-0.392,0.76-0.345c0.383,0.046,0.781,0.177,1.197,0.392
				c0.414,0.215,0.775,0.483,1.082,0.806s0.445,0.622,0.414,0.898c-0.092,0.799-0.307,1.581-0.645,2.349s-0.629,1.643-0.875,2.625
				c1.934-0.03,3.6-0.053,4.996-0.069c1.398-0.015,2.756-0.022,4.076-0.022c0.43,0,0.859,0.008,1.291,0.022
				c0.43,0.017,0.76,0.055,0.99,0.115c0.23,0.062,0.283,0.146,0.16,0.254s-0.521,0.253-1.197,0.438
				c-1.934,0.614-3.807,1.082-5.619,1.404s-3.592,0.561-5.342,0.714c-0.154,0.031-0.223,0.062-0.207,0.093
				c0.014,0.03-0.023,0.123-0.115,0.275c0,0.031-0.016,0.062-0.047,0.093c-0.031,0.031-0.045,0.062-0.045,0.092
				c-0.492,1.352-1.029,2.871-1.613,4.56c-0.584,1.689-1.166,3.424-1.75,5.205c-0.584,1.78-1.137,3.531-1.658,5.25
				c-0.521,1.72-0.967,3.278-1.336,4.675c-0.367,1.397-0.637,2.563-0.805,3.501C165.81,169.497,165.803,170.073,165.957,170.288z"/>
			<path fill="#222944" d="M182.766,163.979c-0.275,0.215-0.582,0.453-0.92,0.714s-0.707,0.491-1.105,0.69
				c-0.4,0.2-0.822,0.354-1.268,0.461s-0.914,0.115-1.404,0.022c-0.369-0.061-0.707-0.191-1.014-0.391
				c-0.307-0.2-0.598-0.438-0.875-0.714c-0.275-0.276-0.443-0.676-0.506-1.198c-0.061-0.521-0.076-0.936-0.047-1.243
				c0.154-0.798,0.369-1.643,0.645-2.533c0.277-0.891,0.615-1.766,1.014-2.625c0.676-1.412,1.535-2.672,2.58-3.777
				c1.043-1.104,2.303-1.811,3.775-2.118c0.492-0.122,1.006-0.146,1.543-0.069c0.537,0.077,1.006,0.254,1.406,0.53
				c0.398,0.276,0.705,0.621,0.92,1.036c0.215,0.414,0.262,0.867,0.139,1.358c-0.062,0.185-0.131,0.368-0.207,0.553
				s-0.17,0.338-0.277,0.461s-0.207,0.191-0.299,0.207s-0.184-0.069-0.275-0.254c-0.031-0.092-0.07-0.222-0.115-0.391
				c-0.047-0.169-0.115-0.338-0.207-0.507c-0.094-0.169-0.225-0.322-0.393-0.461c-0.168-0.138-0.391-0.207-0.668-0.207
				c-0.584,0-1.242,0.361-1.98,1.082c-0.736,0.722-1.443,1.566-2.119,2.533c-0.674,0.968-1.258,1.935-1.75,2.901
				c-0.49,0.968-0.799,1.697-0.92,2.188c-0.186,0.799-0.17,1.22,0.045,1.267c0.215,0.046,0.553-0.123,1.014-0.507
				s0.982-0.913,1.566-1.589c0.582-0.676,1.135-1.343,1.658-2.004c0.521-0.66,0.975-1.243,1.357-1.75
				c0.385-0.507,0.592-0.775,0.623-0.806c0.398-0.307,0.797-0.445,1.197-0.415c0.398,0.031,0.744,0.177,1.037,0.438
				c0.291,0.262,0.49,0.584,0.598,0.968s0.068,0.775-0.115,1.174c-0.215,0.492-0.5,1.075-0.852,1.75
				c-0.354,0.676-0.576,1.275-0.668,1.797c-0.092,0.799,0,1.32,0.275,1.565c0.277,0.246,0.783,0.23,1.521-0.046
				c0.582-0.245,1.197-0.683,1.842-1.312c0.645-0.629,1.281-1.297,1.91-2.004c0.631-0.705,1.221-1.381,1.773-2.026
				c0.553-0.645,1.014-1.12,1.383-1.428c0.092-0.092,0.207-0.191,0.346-0.299c0.137-0.107,0.252-0.131,0.346-0.069
				c0.152,0.062,0.236,0.146,0.252,0.253c0.016,0.108,0.023,0.224,0.023,0.346c-0.398,0.983-0.875,1.95-1.428,2.901
				c-0.553,0.952-1.174,1.835-1.865,2.648c-0.691,0.814-1.459,1.536-2.303,2.165c-0.846,0.63-1.758,1.128-2.74,1.497
				c-0.615,0.214-1.168,0.283-1.658,0.207c-0.492-0.077-0.938-0.254-1.336-0.53s-0.723-0.629-0.967-1.059
				C183.027,164.931,182.859,164.47,182.766,163.979z"/>
			<path fill="#222944" d="M53.442,197.369c-0.062-1.166,0.062-2.379,0.368-3.639c0.308-1.258,0.768-2.418,1.382-3.477
				c0.613-1.06,1.389-1.927,2.325-2.603c0.937-0.675,2.034-1.028,3.294-1.06c0.645,0.154,1.144,0.477,1.496,0.968
				s0.453,1.09,0.3,1.796c-0.123,0.676-0.3,1.251-0.529,1.728c-0.23,0.476-0.622,0.975-1.175,1.496
				c-0.276,0.246-0.661,0.569-1.151,0.968c-0.491,0.399-0.968,0.813-1.428,1.243c-0.461,0.431-0.86,0.868-1.197,1.312
				c-0.339,0.445-0.507,0.822-0.507,1.129c-0.092,0.799,0.03,1.312,0.368,1.543s0.775,0.322,1.312,0.276s1.083-0.191,1.636-0.438
				c0.552-0.246,0.997-0.461,1.335-0.646c0.399-0.276,0.845-0.621,1.336-1.036c0.491-0.414,0.982-0.852,1.474-1.312
				c0.491-0.461,0.968-0.905,1.428-1.336c0.461-0.43,0.845-0.782,1.151-1.059c0.246-0.246,0.468-0.476,0.668-0.691
				c0.199-0.214,0.438-0.398,0.714-0.553c0.245-0.061,0.438-0.076,0.576-0.046c0.138,0.031,0.115,0.262-0.069,0.691
				c-0.246,0.522-0.546,1.013-0.898,1.474c-0.354,0.46-0.729,0.921-1.128,1.382c-0.553,0.614-1.145,1.259-1.773,1.934
				c-0.63,0.676-1.29,1.298-1.98,1.866s-1.413,1.059-2.165,1.474c-0.752,0.414-1.527,0.684-2.325,0.806
				c-1.413,0.092-2.572-0.199-3.478-0.875C53.895,200.011,53.442,198.905,53.442,197.369z M60.811,188.711
				c-0.829,0.307-1.482,0.706-1.958,1.197c-0.477,0.491-0.821,1.213-1.036,2.165c0.675-0.491,1.282-0.99,1.819-1.497
				S60.565,189.447,60.811,188.711z"/>
			<path fill="#222944" d="M69.561,196.126c-0.614-0.859-1.221-1.734-1.819-2.625s-0.897-1.873-0.897-2.948
				c0-1.197,0.345-2.325,1.036-3.385c0.69-1.06,1.48-1.911,2.372-2.557c0.368-0.245,0.744-0.444,1.128-0.599
				c0.384-0.153,0.79-0.138,1.221,0.046c0.185,0.093,0.376,0.161,0.576,0.208c0.199,0.046,0.375,0.1,0.529,0.161
				c0.153,0.062,0.322,0.153,0.507,0.276c0.184,0.123,0.276,0.292,0.276,0.506c0,0.86,0.022,1.56,0.068,2.096
				c0.047,0.538,0.115,0.998,0.208,1.382c0.092,0.385,0.184,0.722,0.276,1.014c0.092,0.292,0.184,0.606,0.276,0.944
				c0.061,0.307,0.046,0.568-0.047,0.782c-0.092,0.216-0.322,0.246-0.69,0.093c-0.676-0.246-1.175-0.737-1.497-1.475
				c-0.322-0.736-0.561-1.411-0.714-2.026c-0.031-0.122-0.107-0.337-0.23-0.645c-0.123-0.307-0.199-0.521-0.229-0.645
				c-0.246-0.062-0.538,0.022-0.876,0.253s-0.637,0.546-0.897,0.944c-0.262,0.399-0.431,0.86-0.507,1.382
				c-0.077,0.522,0.023,1.044,0.3,1.565c0.122,0.185,0.299,0.407,0.529,0.668c0.23,0.262,0.461,0.53,0.69,0.807
				c0.23,0.276,0.461,0.545,0.691,0.806s0.422,0.469,0.575,0.622c0.185,0.184,0.307,0.284,0.369,0.299
				c0.061,0.016,0.214-0.022,0.46-0.115c0.307-0.153,0.775-0.353,1.405-0.599c0.629-0.245,1.289-0.49,1.98-0.736
				c0.69-0.246,1.351-0.453,1.98-0.622c0.629-0.169,1.112-0.254,1.45-0.254c0.215,0,0.369,0.077,0.461,0.23
				c0.092,0.093,0.076,0.216-0.046,0.369c-0.123,0.153-0.284,0.307-0.483,0.46c-0.2,0.154-0.407,0.292-0.622,0.415
				s-0.354,0.2-0.415,0.229c-0.522,0.308-1.182,0.653-1.98,1.037s-1.489,0.76-2.072,1.128c-0.062,0.062-0.177,0.123-0.346,0.185
				s-0.299,0.123-0.391,0.184c0.368,0.829,0.629,1.543,0.782,2.142c0.153,0.6,0.208,1.175,0.161,1.728
				c-0.046,0.553-0.161,1.113-0.345,1.681c-0.185,0.568-0.431,1.221-0.737,1.958c-0.431,0.706-0.868,1.382-1.312,2.026
				c-0.445,0.645-0.944,1.228-1.497,1.75s-1.151,0.937-1.796,1.244c-0.645,0.307-1.352,0.46-2.119,0.46
				c-0.43,0-0.844-0.054-1.243-0.161c-0.398-0.107-0.737-0.33-1.014-0.668c-0.706-0.768-1.105-1.604-1.197-2.51
				c-0.092-0.906-0.015-1.804,0.23-2.694c0.185-0.553,0.414-1.06,0.69-1.52c0.676-1.167,1.421-2.157,2.234-2.971
				C67.818,197.639,68.67,196.862,69.561,196.126z M71.127,198.198c-0.339,0.339-0.799,0.822-1.382,1.451
				c-0.584,0.63-1.129,1.312-1.635,2.05c-0.507,0.736-0.922,1.466-1.244,2.188c-0.322,0.721-0.406,1.343-0.253,1.865
				c0.613-0.276,1.243-0.729,1.889-1.358c0.645-0.63,1.212-1.321,1.704-2.073c0.49-0.753,0.836-1.497,1.036-2.233
				C71.442,199.35,71.404,198.721,71.127,198.198z"/>
			<path fill="#222944" d="M80.752,204.969c0.185,0.583,0.561,0.768,1.129,0.553c0.567-0.215,1.228-0.676,1.98-1.382
				c0.752-0.706,1.543-1.565,2.372-2.579s1.619-2.011,2.371-2.993c0.753-0.982,1.405-1.873,1.958-2.672
				c0.553-0.798,0.921-1.319,1.105-1.565c0.153-0.246,0.329-0.477,0.529-0.691c0.199-0.214,0.453-0.444,0.76-0.69
				c0.123-0.093,0.269-0.191,0.438-0.3c0.169-0.107,0.314-0.153,0.438-0.138s0.177,0.115,0.161,0.299
				c-0.016,0.185-0.131,0.491-0.345,0.921c-0.185,0.369-0.477,0.93-0.875,1.682c-0.399,0.753-0.892,1.597-1.475,2.533
				s-1.228,1.904-1.934,2.901c-0.707,0.997-1.467,1.927-2.28,2.786s-1.643,1.612-2.487,2.257c-0.845,0.646-1.696,1.06-2.556,1.244
				c-0.769,0.184-1.474,0.283-2.119,0.299c-0.645,0.016-1.212-0.223-1.704-0.714c-0.46-0.46-0.721-1.121-0.782-1.98
				s-0.023-1.772,0.114-2.74c0.139-0.967,0.331-1.903,0.576-2.81c0.246-0.905,0.445-1.604,0.599-2.096
				c0.491-1.596,0.959-3.17,1.405-4.721c0.444-1.55,0.882-3.108,1.312-4.675c0.46-1.382,0.882-2.802,1.267-4.26
				c0.383-1.458,0.774-2.771,1.174-3.938c-0.614-0.03-1.243-0.053-1.888-0.069c-0.646-0.015-1.29-0.03-1.935-0.046
				c-0.645-0.015-1.282-0.053-1.911-0.115c-0.63-0.061-1.221-0.168-1.773-0.322c-0.491-0.122-0.853-0.322-1.083-0.599
				c-0.229-0.276-0.337-0.553-0.322-0.829c0.017-0.276,0.169-0.514,0.461-0.714c0.292-0.199,0.714-0.299,1.267-0.299
				c0.338,0,0.891,0.03,1.658,0.092s1.573,0.107,2.418,0.138c0.844,0.031,1.627,0.039,2.349,0.023
				c0.721-0.015,1.189-0.069,1.405-0.161c0.092-0.03,0.138-0.076,0.138-0.139c0.185-0.552,0.384-1.135,0.599-1.75
				c0.215-0.613,0.43-1.212,0.645-1.796c0.215-0.583,0.422-1.136,0.622-1.658c0.199-0.521,0.376-0.967,0.53-1.336
				c0.122-0.276,0.375-0.392,0.76-0.345c0.383,0.046,0.782,0.177,1.197,0.392c0.414,0.215,0.775,0.483,1.082,0.806
				s0.445,0.622,0.415,0.898c-0.093,0.799-0.308,1.581-0.646,2.349s-0.629,1.643-0.875,2.625c1.935-0.03,3.6-0.053,4.997-0.069
				c1.397-0.015,2.756-0.022,4.076-0.022c0.43,0,0.859,0.008,1.29,0.022c0.43,0.017,0.76,0.055,0.99,0.115
				c0.23,0.062,0.283,0.146,0.161,0.254c-0.123,0.107-0.522,0.253-1.197,0.438c-1.935,0.614-3.808,1.082-5.619,1.404
				c-1.812,0.322-3.593,0.561-5.343,0.714c-0.154,0.031-0.223,0.062-0.207,0.093c0.015,0.03-0.023,0.123-0.115,0.275
				c0,0.031-0.016,0.062-0.046,0.093c-0.031,0.031-0.046,0.062-0.046,0.092c-0.492,1.352-1.029,2.871-1.612,4.56
				c-0.584,1.689-1.167,3.424-1.75,5.205c-0.584,1.78-1.137,3.531-1.658,5.25c-0.522,1.72-0.968,3.278-1.336,4.675
				c-0.368,1.397-0.638,2.563-0.806,3.501C80.607,204.178,80.599,204.754,80.752,204.969z"/>
			<path fill="#222944" d="M90.838,197.369c-0.062-1.166,0.062-2.379,0.368-3.639c0.308-1.258,0.768-2.418,1.382-3.477
				c0.613-1.06,1.389-1.927,2.325-2.603c0.937-0.675,2.034-1.028,3.294-1.06c0.645,0.154,1.144,0.477,1.496,0.968
				s0.453,1.09,0.3,1.796c-0.123,0.676-0.3,1.251-0.529,1.728c-0.23,0.476-0.622,0.975-1.175,1.496
				c-0.276,0.246-0.661,0.569-1.151,0.968c-0.491,0.399-0.968,0.813-1.428,1.243c-0.461,0.431-0.86,0.868-1.197,1.312
				c-0.339,0.445-0.507,0.822-0.507,1.129c-0.092,0.799,0.03,1.312,0.368,1.543s0.775,0.322,1.312,0.276s1.083-0.191,1.636-0.438
				c0.552-0.246,0.997-0.461,1.335-0.646c0.399-0.276,0.845-0.621,1.336-1.036c0.491-0.414,0.982-0.852,1.474-1.312
				s0.968-0.905,1.428-1.336c0.461-0.43,0.845-0.782,1.151-1.059c0.247-0.246,0.467-0.476,0.668-0.691
				c0.199-0.214,0.438-0.398,0.713-0.553c0.246-0.061,0.438-0.076,0.576-0.046c0.139,0.031,0.115,0.262-0.068,0.691
				c-0.246,0.522-0.547,1.013-0.898,1.474c-0.354,0.46-0.73,0.921-1.128,1.382c-0.553,0.614-1.145,1.259-1.773,1.934
				c-0.63,0.676-1.29,1.298-1.98,1.866s-1.413,1.059-2.165,1.474c-0.752,0.414-1.527,0.684-2.325,0.806
				c-1.413,0.092-2.572-0.199-3.478-0.875C91.291,200.011,90.838,198.905,90.838,197.369z M98.207,188.711
				c-0.829,0.307-1.482,0.706-1.958,1.197c-0.477,0.491-0.821,1.213-1.036,2.165c0.675-0.491,1.282-0.99,1.819-1.497
				S97.961,189.447,98.207,188.711z"/>
			<path fill="#222944" d="M115.478,202.574c0.154,0.307,0.361,0.468,0.623,0.483c0.26,0.015,0.514-0.054,0.76-0.207
				c0.92-0.799,1.795-1.658,2.625-2.579c0.828-0.922,1.619-1.843,2.371-2.764s1.49-1.819,2.211-2.694s1.42-1.665,2.096-2.372
				c0.246-0.245,0.438-0.3,0.576-0.161c0.139,0.138,0.16,0.346,0.068,0.622c-0.43,0.706-0.859,1.389-1.289,2.049
				c-0.43,0.661-0.875,1.329-1.336,2.004c-0.951,1.352-1.928,2.794-2.924,4.329c-0.998,1.535-2.096,2.84-3.293,3.915
				c-0.738,0.675-1.537,1.06-2.396,1.151c-0.799-0.031-1.551-0.284-2.256-0.76c-0.707-0.477-1.121-1.113-1.244-1.911
				c-0.184-1.874-0.152-3.762,0.092-5.665c0.277-2.211,0.723-4.498,1.336-6.863c0.613-2.363,1.359-4.713,2.234-7.047
				c0.875-2.333,1.834-4.605,2.879-6.816c1.043-2.21,2.133-4.268,3.27-6.171c0.521-0.829,1.043-1.619,1.566-2.372
				c0.521-0.752,1.074-1.451,1.658-2.096c0.213-0.276,0.482-0.476,0.805-0.599s0.652-0.107,0.99,0.046
				c0.676,0.308,0.969,0.875,0.875,1.704c-0.215,1.812-0.592,3.577-1.127,5.297c-0.539,1.72-1.191,3.378-1.959,4.974
				c-0.768,1.597-1.627,3.132-2.578,4.605c-0.953,1.475-1.965,2.872-3.039,4.191c-0.094,0.093-0.162,0.2-0.209,0.322
				c-0.045,0.123-0.1,0.246-0.16,0.369c-0.461,1.229-0.914,2.579-1.359,4.053s-0.828,2.909-1.15,4.307s-0.553,2.694-0.691,3.892
				S115.355,201.929,115.478,202.574z M126.809,169.966c-1.32,2.21-2.502,4.483-3.547,6.816c-1.043,2.333-2.088,4.667-3.131,7
				c0.275-0.276,0.621-0.744,1.035-1.404c0.416-0.66,0.854-1.412,1.314-2.257c0.459-0.845,0.92-1.758,1.381-2.74
				s0.891-1.935,1.289-2.855c0.398-0.922,0.752-1.789,1.061-2.603C126.518,171.109,126.717,170.457,126.809,169.966z"/>
			<path fill="#222944" d="M135.236,192.396c0.367-0.03,0.768-0.123,1.197-0.276s0.828-0.276,1.197-0.369
				c0.43-0.122,0.883-0.268,1.359-0.438c0.475-0.168,0.928-0.299,1.357-0.391c0.307,0,0.43,0.084,0.369,0.253
				c-0.062,0.169-0.207,0.368-0.438,0.599s-0.492,0.453-0.783,0.668c-0.293,0.215-0.514,0.368-0.668,0.461
				c-0.736,0.338-1.467,0.599-2.188,0.782c-0.723,0.185-1.404,0.445-2.049,0.783c-0.277,0.491-0.662,1.145-1.152,1.957
				c-0.492,0.814-1.035,1.605-1.635,2.372c-0.6,0.769-1.229,1.428-1.889,1.98s-1.297,0.829-1.91,0.829
				c-0.861,0-1.598-0.245-2.211-0.736c-0.461-0.307-0.807-0.783-1.037-1.428c-0.23-0.646-0.369-1.343-0.414-2.096
				c-0.047-0.752-0.023-1.489,0.068-2.211c0.092-0.721,0.201-1.312,0.322-1.773c0.031-0.214,0.078-0.36,0.139-0.438
				c0.062-0.076,0.123-0.13,0.184-0.161c0.062-0.03,0.131-0.062,0.207-0.092c0.078-0.03,0.146-0.093,0.209-0.185
				c0.092-0.338,0.184-0.69,0.275-1.06c0.092-0.368,0.23-0.706,0.414-1.013c0.521-0.922,1.189-1.773,2.004-2.557
				c0.812-0.783,1.758-1.235,2.832-1.358c0.676-0.122,1.297-0.092,1.865,0.092c0.568,0.185,1.066,0.538,1.498,1.06
				c0.367,0.399,0.629,0.837,0.783,1.312c0.152,0.477,0.244,0.938,0.275,1.382c0.031,0.445,0.016,0.852-0.045,1.221
				C135.312,191.935,135.266,192.211,135.236,192.396z M128.512,199.948c0.307-0.061,0.652-0.283,1.037-0.667
				c0.383-0.384,0.752-0.821,1.104-1.313c0.354-0.49,0.66-0.99,0.922-1.496c0.26-0.507,0.438-0.929,0.529-1.267
				c-0.613,0.062-1.273,0.092-1.98,0.092s-1.365-0.062-1.98-0.185c-0.092,0.276-0.154,0.638-0.184,1.083
				c-0.031,0.445-0.031,0.905,0,1.382c0.029,0.476,0.092,0.929,0.184,1.358S128.357,199.703,128.512,199.948z M132.611,192.855
				c0.061,0,0.121-0.03,0.184-0.092c0.061-0.062,0.092-0.122,0.092-0.185c0.246-0.583,0.361-1.228,0.346-1.934
				s-0.238-1.274-0.668-1.704c-0.215-0.246-0.492-0.384-0.828-0.415c-0.34-0.03-0.662,0.031-0.969,0.185
				c-0.613,0.368-1.105,0.799-1.473,1.289c-0.369,0.492-0.723,0.998-1.061,1.521c0,0.153,0.031,0.261,0.094,0.322
				c0.307,0.276,0.443,0.583,0.414,0.921c0,0.154,0.176,0.246,0.529,0.276c0.354,0.031,0.752,0.039,1.197,0.023
				s0.875-0.054,1.289-0.115C132.174,192.887,132.457,192.855,132.611,192.855z"/>
			<path fill="#222944" d="M148.916,192.396c0.367-0.03,0.768-0.123,1.197-0.276s0.828-0.276,1.197-0.369
				c0.43-0.122,0.883-0.268,1.359-0.438c0.475-0.168,0.928-0.299,1.357-0.391c0.307,0,0.43,0.084,0.369,0.253
				c-0.062,0.169-0.207,0.368-0.438,0.599s-0.492,0.453-0.783,0.668c-0.293,0.215-0.514,0.368-0.668,0.461
				c-0.736,0.338-1.467,0.599-2.188,0.782c-0.723,0.185-1.404,0.445-2.049,0.783c-0.277,0.491-0.662,1.145-1.152,1.957
				c-0.492,0.814-1.035,1.605-1.635,2.372c-0.6,0.769-1.229,1.428-1.889,1.98s-1.297,0.829-1.91,0.829
				c-0.861,0-1.598-0.245-2.211-0.736c-0.461-0.307-0.807-0.783-1.037-1.428c-0.23-0.646-0.369-1.343-0.414-2.096
				c-0.047-0.752-0.023-1.489,0.068-2.211c0.092-0.721,0.201-1.312,0.322-1.773c0.031-0.214,0.078-0.36,0.139-0.438
				c0.062-0.076,0.123-0.13,0.184-0.161c0.062-0.03,0.131-0.062,0.207-0.092c0.078-0.03,0.146-0.093,0.209-0.185
				c0.092-0.338,0.184-0.69,0.275-1.06c0.092-0.368,0.23-0.706,0.414-1.013c0.521-0.922,1.189-1.773,2.004-2.557
				c0.812-0.783,1.758-1.235,2.832-1.358c0.676-0.122,1.297-0.092,1.865,0.092c0.568,0.185,1.066,0.538,1.498,1.06
				c0.367,0.399,0.629,0.837,0.783,1.312c0.152,0.477,0.244,0.938,0.275,1.382c0.031,0.445,0.016,0.852-0.045,1.221
				C148.992,191.935,148.945,192.211,148.916,192.396z M142.191,199.948c0.307-0.061,0.652-0.283,1.037-0.667
				c0.383-0.384,0.752-0.821,1.104-1.313c0.354-0.49,0.66-0.99,0.922-1.496c0.26-0.507,0.438-0.929,0.529-1.267
				c-0.613,0.062-1.273,0.092-1.98,0.092s-1.365-0.062-1.98-0.185c-0.092,0.276-0.154,0.638-0.184,1.083
				c-0.031,0.445-0.031,0.905,0,1.382c0.029,0.476,0.092,0.929,0.184,1.358S142.037,199.703,142.191,199.948z M146.291,192.855
				c0.061,0,0.121-0.03,0.184-0.092c0.061-0.062,0.092-0.122,0.092-0.185c0.246-0.583,0.361-1.228,0.346-1.934
				s-0.238-1.274-0.668-1.704c-0.215-0.246-0.492-0.384-0.828-0.415c-0.34-0.03-0.662,0.031-0.969,0.185
				c-0.613,0.368-1.105,0.799-1.473,1.289c-0.369,0.492-0.723,0.998-1.061,1.521c0,0.153,0.031,0.261,0.094,0.322
				c0.307,0.276,0.443,0.583,0.414,0.921c0,0.154,0.176,0.246,0.529,0.276c0.354,0.031,0.752,0.039,1.197,0.023
				s0.875-0.054,1.289-0.115C145.853,192.887,146.137,192.855,146.291,192.855z"/>
			<path fill="#222944" d="M156.422,193.086c0.154-0.245,0.438-0.613,0.854-1.105c0.414-0.49,0.912-1.028,1.496-1.611
				s1.213-1.175,1.889-1.773s1.336-1.136,1.98-1.612c0.645-0.476,1.244-0.867,1.797-1.175c0.553-0.306,0.996-0.444,1.334-0.414
				c0.277,0,0.516,0.069,0.715,0.207c0.199,0.139,0.352,0.292,0.461,0.461c0.107,0.169,0.145,0.322,0.115,0.46
				c-0.031,0.139-0.154,0.224-0.369,0.254c-0.338,0.062-0.846,0.338-1.52,0.829c-0.676,0.491-1.367,1.06-2.072,1.704
				c-0.707,0.645-1.352,1.274-1.936,1.888c-0.584,0.615-0.936,1.045-1.059,1.29c0.49,0.215,0.836,0.668,1.037,1.358
				c0.199,0.691,0.322,1.505,0.367,2.441c0.047,0.937,0.047,1.911,0,2.925c-0.045,1.013-0.053,1.95-0.023,2.81
				c0.031,0.859,0.131,1.565,0.301,2.118c0.168,0.553,0.467,0.813,0.896,0.783c0.186,0,0.469-0.192,0.854-0.576
				c0.383-0.384,0.812-0.875,1.289-1.474s0.975-1.267,1.496-2.003c0.523-0.737,1.021-1.466,1.498-2.188
				c0.475-0.721,0.898-1.389,1.266-2.003c0.369-0.614,0.66-1.105,0.875-1.474c0.215-0.399,0.398-0.568,0.553-0.507
				s0.199,0.23,0.139,0.507c-0.123,0.583-0.293,1.136-0.506,1.657c-0.217,0.522-0.461,1.014-0.738,1.475
				c-0.215,0.399-0.514,0.929-0.896,1.589c-0.385,0.66-0.83,1.352-1.336,2.072c-0.508,0.722-1.045,1.436-1.613,2.142
				s-1.166,1.305-1.795,1.797c-0.631,0.49-1.26,0.828-1.889,1.013c-0.631,0.185-1.236,0.107-1.82-0.23
				c-0.582-0.153-1.02-0.515-1.312-1.082c-0.291-0.568-0.49-1.243-0.598-2.026c-0.109-0.783-0.154-1.62-0.139-2.511
				c0.016-0.89,0.053-1.765,0.115-2.625c0.061-0.859,0.115-1.658,0.16-2.395c0.047-0.737,0.039-1.305-0.021-1.704
				c-0.584,0.307-1.129,0.891-1.635,1.75c-0.508,0.86-0.953,1.789-1.336,2.786c-0.385,0.998-0.699,1.95-0.945,2.855
				s-0.398,1.543-0.461,1.912c-0.029,0.153-0.045,0.291-0.045,0.414c0,0.122-0.031,0.261-0.092,0.414
				c-0.092,0.338-0.215,0.545-0.369,0.622c-0.154,0.076-0.307,0.076-0.461,0c-0.152-0.077-0.291-0.215-0.414-0.414
				c-0.123-0.2-0.23-0.392-0.322-0.576c-0.184-0.491-0.314-1.082-0.391-1.773c-0.078-0.69-0.115-1.389-0.115-2.095
				s0.016-1.374,0.045-2.004c0.031-0.629,0.078-1.112,0.139-1.451c0.154-1.166,0.414-2.579,0.783-4.237
				c0.367-1.657,0.836-3.423,1.404-5.296s1.205-3.792,1.912-5.758c0.705-1.964,1.48-3.86,2.324-5.688
				c0.846-1.827,1.729-3.523,2.648-5.09c0.922-1.565,1.873-2.87,2.855-3.915c0.307-0.306,0.668-0.421,1.084-0.345
				c0.414,0.077,0.789,0.261,1.127,0.553s0.592,0.652,0.76,1.082c0.17,0.431,0.162,0.829-0.021,1.197
				c-0.309,0.646-0.654,1.589-1.037,2.833c-0.385,1.243-0.914,2.74-1.588,4.49c-0.676,1.75-1.543,3.724-2.604,5.919
				c-1.059,2.195-2.402,4.536-4.029,7.023c-0.309,0.614-0.537,1.19-0.691,1.727C156.637,191.851,156.516,192.441,156.422,193.086z
				 M157.85,187.882c0.461-0.706,0.953-1.581,1.475-2.625s1.059-2.157,1.611-3.34c0.553-1.182,1.09-2.379,1.613-3.592
				c0.521-1.213,0.996-2.364,1.428-3.455c0.43-1.089,0.789-2.064,1.082-2.924c0.291-0.859,0.498-1.521,0.621-1.98
				c-0.613,1.104-1.26,2.341-1.934,3.707c-0.676,1.367-1.359,2.81-2.051,4.329c-0.689,1.521-1.365,3.117-2.025,4.79
				C159.01,184.466,158.402,186.162,157.85,187.882z"/>
		</g>
		<g>
			<path fill="#ED7AA9" d="M97.79,117.471c1.752-2.849,4.917-5.455,9.495-7.816l0.859,1.61c-2.29,1.622-3.983,2.98-5.079,4.076
				c-1.932,1.98-2.897,3.876-2.897,5.688c0,0.62,0.179,1.025,0.537,1.216c0.357,0.214,0.667,0.321,0.93,0.321
				c0.906-0.119,1.503-0.179,1.788-0.179c1.526,0,2.778,0.554,3.757,1.663c0.977,1.11,1.467,2.451,1.467,4.024
				c0,1.765-0.537,3.237-1.61,4.417c-1.072,1.18-2.551,1.77-4.435,1.77c-2.218,0-4.012-0.792-5.383-2.378
				c-1.371-1.586-2.057-3.702-2.057-6.349C95.161,123.009,96.037,120.322,97.79,117.471z M117.695,117.274
				c1.86-2.837,4.971-5.377,9.334-7.618l0.859,1.61c-2.146,1.501-3.791,2.825-4.936,3.97c-2.027,2.027-3.041,3.91-3.041,5.651
				c0,0.501,0.131,0.906,0.394,1.216c0.262,0.31,0.62,0.465,1.072,0.465c0.906-0.119,1.503-0.179,1.789-0.179
				c1.501,0,2.747,0.549,3.737,1.645c0.989,1.097,1.485,2.445,1.485,4.042c0,1.86-0.549,3.356-1.645,4.489
				c-1.097,1.132-2.589,1.698-4.472,1.698c-2.146,0-3.91-0.792-5.293-2.378c-1.384-1.586-2.075-3.702-2.075-6.349
				C114.904,122.867,115.834,120.112,117.695,117.274z"/>
		</g>
	</g>
</g>
<g>
</g>
<g>
</g>
<g>
</g>
<g>
</g>
<g>
</g>
<g>
</g>
<g>
</g>
<g>
</g>
<g>
</g>
<g>
</g>
<g>
</g>
<g>
</g>
<g>
</g>
<g>
</g>
<g>
</g>
</svg>
