<?xml version="1.0" encoding="utf-8"?>
<!-- Generator: Adobe Illustrator 17.0.0, SVG Export Plug-In . SVG Version: 6.00 Build 0)  -->
<!DOCTYPE svg PUBLIC "-//W3C//DTD SVG 1.1//EN" "http://www.w3.org/Graphics/SVG/1.1/DTD/svg11.dtd">
<svg version="1.1" id="Layer_1" xmlns="http://www.w3.org/2000/svg" xmlns:xlink="http://www.w3.org/1999/xlink" x="0px" y="0px"
	 width="155.67px" height="100px" viewBox="0 0 155.67 100" enable-background="new 0 0 155.67 100" xml:space="preserve">
<g>
	<path fill="#222944" d="M10.438,25.199l-0.396-1.295c0.947-0.359,1.931-0.827,2.53-1.319h1.14V30.8h-1.56v-6.381L10.438,25.199z"/>
	<path fill="#222944" d="M18.381,29.061V30.8h-1.56v-1.739H18.381z"/>
	<path fill="#222944" d="M30.918,24.12h-3.742v1.979h3.202v1.464h-3.202V30.8h-1.655v-8.156h5.397V24.12z"/>
	<path fill="#222944" d="M37.327,28.953h-2.578L34.197,30.8h-1.751l2.639-8.216h2.015l2.603,8.216h-1.823L37.327,28.953z
		 M36.032,24.647l-0.947,2.927h1.907l-0.936-2.927H36.032z"/>
	<path fill="#222944" d="M46.699,27.921v-5.277h1.644v5.277c0,2.135-1.271,2.999-3.202,2.999c-1.932,0-3.215-0.864-3.215-2.999
		v-5.277h1.655v5.277c0,0.876,0.264,1.619,1.571,1.619C46.412,29.54,46.699,28.797,46.699,27.921z"/>
	<path fill="#222944" d="M54.896,22.525c0.972,0,1.823,0.119,2.938,0.455l-0.372,1.38c-1.283-0.3-1.799-0.36-2.435-0.36
		c-1.512,0-2.027,1.044-2.027,2.663c0,1.738,0.516,2.794,2.027,2.794c0.636,0,1.151-0.06,2.435-0.359l0.372,1.379
		c-1.115,0.324-1.967,0.444-2.938,0.444c-2.866,0-3.634-1.919-3.634-4.258C51.262,24.36,52.03,22.525,54.896,22.525z"/>
	<path fill="#222944" d="M60.549,30.8v-8.156h1.655v3.215h3.118v-3.215h1.644V30.8h-1.644v-3.479h-3.118V30.8H60.549z"/>
	<path fill="#222944" d="M69.886,26.662c0-2.303,0.768-4.138,3.634-4.138s3.622,1.835,3.622,4.138c0,2.326-0.756,4.258-3.622,4.258
		S69.886,28.989,69.886,26.662z M71.624,26.662c0,1.619,0.288,2.878,1.896,2.878c1.606,0,1.883-1.259,1.883-2.878
		s-0.276-2.759-1.883-2.759C71.913,23.904,71.624,25.043,71.624,26.662z"/>
	<path fill="#222944" d="M80.061,30.8v-8.156h1.655l3.263,5.122h0.023v-5.122h1.596V30.8h-1.644l-3.262-4.941h-0.024V30.8H80.061z"
		/>
	<path fill="#222944" d="M10.81,39.371l-0.468-1.247c0.983-0.396,1.69-0.6,2.734-0.6c1.847,0,2.723,1.091,2.723,2.471
		c0,1.679-1.212,2.974-3.251,4.401v0.023h3.37v1.38h-5.576v-1.487c3.166-2.015,3.813-3.118,3.813-3.982
		c0-1.234-0.936-1.379-1.439-1.379C12.177,38.952,11.662,39.024,10.81,39.371z"/>
	<path fill="#222944" d="M20.421,44.061V45.8h-1.56v-1.739H20.421z"/>
	<path fill="#222944" d="M29.216,37.644v6.692h3.802V45.8h-5.457v-8.156H29.216z"/>
	<path fill="#222944" d="M35.961,45.8v-8.156h1.655V45.8H35.961z"/>
	<path fill="#222944" d="M45.607,41.59c0.888,0.264,1.476,0.924,1.476,1.979c0,1.392-0.9,2.231-2.603,2.231h-3.694v-8.156h3.454
		c1.703,0,2.603,0.768,2.603,2.087c0,0.876-0.479,1.56-1.235,1.835V41.59z M44.06,39.12h-1.619v1.763h1.619
		c0.684,0,1.043-0.251,1.043-0.887C45.103,39.396,44.744,39.12,44.06,39.12z M42.441,42.358v1.979h1.763
		c0.695,0,1.14-0.228,1.14-0.995c0-0.731-0.444-0.983-1.199-0.983H42.441z"/>
	<path fill="#222944" d="M54.571,45.8l-1.715-2.902H51.68V45.8h-1.655v-8.156h3.479c1.715,0,2.698,1.032,2.698,2.627
		c0,1.104-0.516,2.027-1.619,2.351L56.49,45.8H54.571z M51.68,41.422h1.619c0.684,0,1.212-0.3,1.212-1.151
		c0-0.827-0.492-1.151-1.188-1.151H51.68V41.422z"/>
	<path fill="#222944" d="M64.842,39.12H60.98v1.739h3.322v1.463H60.98v2.015h3.922V45.8h-5.577v-8.156h5.518V39.12z"/>
	<path fill="#222944" d="M72.51,45.8l-1.715-2.902h-1.175V45.8h-1.655v-8.156h3.478c1.716,0,2.699,1.032,2.699,2.627
		c0,1.104-0.516,2.027-1.619,2.351l1.906,3.179H72.51z M69.621,41.422h1.619c0.684,0,1.211-0.3,1.211-1.151
		c0-0.827-0.491-1.151-1.188-1.151h-1.643V41.422z"/>
	<path fill="#222944" d="M77.265,45.8v-8.156h1.655V45.8H77.265z M78.512,37.153h-0.84l0.66-1.439h1.283L78.512,37.153z"/>
	<path fill="#222944" d="M86.442,43.953h-2.578L83.312,45.8h-1.751l2.639-8.216h2.015l2.603,8.216h-1.823L86.442,43.953z
		 M85.147,39.647L84.2,42.574h1.907l-0.936-2.927H85.147z"/>
	<path fill="#222944" d="M91.137,45.476l0.287-1.379c1.271,0.3,2.171,0.359,2.807,0.359c0.84,0,1.344-0.384,1.344-0.923
		c0-0.756-0.936-0.912-1.884-1.176c-1.415-0.396-2.435-1.176-2.435-2.555c0-1.643,1.355-2.278,2.975-2.278
		c0.924,0,1.763,0.119,2.879,0.455l-0.372,1.38c-1.283-0.3-1.883-0.36-2.507-0.36c-0.84,0-1.235,0.36-1.235,0.852
		c0,0.672,0.876,0.888,1.859,1.128c1.415,0.323,2.458,0.995,2.458,2.422c0,1.739-1.343,2.52-3.082,2.52
		C93.295,45.92,92.252,45.8,91.137,45.476z"/>
	<path fill="#222944" d="M104.457,45.8v-8.156h1.655V45.8H104.457z M105.704,37.153h-0.84l0.66-1.439h1.283L105.704,37.153z"/>
	<path fill="#222944" d="M114.102,41.59c0.888,0.264,1.476,0.924,1.476,1.979c0,1.392-0.9,2.231-2.603,2.231h-3.694v-8.156h3.454
		c1.703,0,2.603,0.768,2.603,2.087c0,0.876-0.479,1.56-1.235,1.835V41.59z M112.555,39.12h-1.619v1.763h1.619
		c0.684,0,1.043-0.251,1.043-0.887C113.598,39.396,113.239,39.12,112.555,39.12z M110.936,42.358v1.979h1.763
		c0.695,0,1.14-0.228,1.14-0.995c0-0.731-0.444-0.983-1.199-0.983H110.936z"/>
	<path fill="#222944" d="M124.038,39.12h-3.862v1.739h3.322v1.463h-3.322v2.015h3.922V45.8h-5.577v-8.156h5.518V39.12z"/>
	<path fill="#222944" d="M131.706,45.8l-1.715-2.902h-1.176V45.8h-1.655v-8.156h3.479c1.715,0,2.698,1.032,2.698,2.627
		c0,1.104-0.516,2.027-1.619,2.351l1.907,3.179H131.706z M128.815,41.422h1.619c0.684,0,1.212-0.3,1.212-1.151
		c0-0.827-0.492-1.151-1.188-1.151h-1.644V41.422z"/>
	<path fill="#222944" d="M136.136,41.662c0-2.303,0.768-4.138,3.634-4.138c2.867,0,3.622,1.835,3.622,4.138
		c0,2.326-0.755,4.258-3.622,4.258C136.904,45.92,136.136,43.989,136.136,41.662z M137.875,41.662c0,1.619,0.288,2.878,1.895,2.878
		c1.607,0,1.883-1.259,1.883-2.878s-0.275-2.759-1.883-2.759C138.164,38.904,137.875,40.043,137.875,41.662z"/>
	<path fill="#222944" d="M14.503,56.566c1.128,0.276,1.655,1.104,1.655,2.016c0,1.511-1.092,2.339-2.975,2.339
		c-1.02,0-1.883-0.133-2.842-0.588l0.468-1.188c0.779,0.348,1.522,0.491,2.278,0.491c1.176,0,1.476-0.684,1.476-1.139
		c0-0.756-0.552-1.128-1.607-1.128h-1.079v-1.295h1.007c1.188,0,1.487-0.647,1.487-1.224c0-0.479-0.336-1.031-1.283-1.031
		c-0.731,0-1.319,0.144-2.099,0.492l-0.468-1.2c0.972-0.443,1.931-0.587,2.842-0.587c1.416,0,2.555,0.731,2.555,2.158
		c0,0.899-0.539,1.535-1.415,1.859V56.566z"/>
	<path fill="#222944" d="M20.661,59.061V60.8h-1.559v-1.739H20.661z"/>
	<path fill="#222944" d="M29.457,52.644v6.692h3.802V60.8h-5.457v-8.156H29.457z"/>
	<path fill="#222944" d="M34.797,55.943l0.3-1.56c-0.204,0-0.42,0-0.636,0v-1.739h1.56v1.739l-0.744,1.56H34.797z"/>
	<path fill="#222944" d="M38.961,56.662c0-2.303,0.768-4.138,3.634-4.138c2.867,0,3.622,1.835,3.622,4.138
		c0,2.326-0.755,4.258-3.622,4.258C39.729,60.92,38.961,58.989,38.961,56.662z M40.701,56.662c0,1.619,0.288,2.878,1.895,2.878
		c1.607,0,1.883-1.259,1.883-2.878s-0.275-2.759-1.883-2.759C40.989,53.904,40.701,55.043,40.701,56.662z"/>
	<path fill="#222944" d="M52.795,52.525c0.972,0,1.823,0.119,2.938,0.455l-0.372,1.38c-1.283-0.3-1.799-0.36-2.435-0.36
		c-1.512,0-2.027,1.044-2.027,2.663c0,1.738,0.516,2.794,2.027,2.794c0.636,0,1.151-0.06,2.435-0.359l0.372,1.379
		c-1.115,0.324-1.967,0.444-2.938,0.444c-2.866,0-3.634-1.919-3.634-4.258C49.162,54.36,49.929,52.525,52.795,52.525z"/>
	<path fill="#222944" d="M61.652,52.525c0.972,0,1.823,0.119,2.938,0.455l-0.372,1.38c-1.283-0.3-1.799-0.36-2.435-0.36
		c-1.512,0-2.027,1.044-2.027,2.663c0,1.738,0.516,2.794,2.027,2.794c0.636,0,1.151-0.06,2.435-0.359l0.372,1.379
		c-1.115,0.324-1.967,0.444-2.938,0.444c-2.866,0-3.634-1.919-3.634-4.258C58.018,54.36,58.786,52.525,61.652,52.525z"/>
	<path fill="#222944" d="M67.305,60.8v-8.156h1.655V60.8H67.305z"/>
	<path fill="#222944" d="M75.691,54.12V60.8h-1.654V54.12h-2.147v-1.476h5.937v1.476H75.691z"/>
	<path fill="#222944" d="M84.031,58.953h-2.579L80.901,60.8h-1.752l2.639-8.216h2.016l2.603,8.216h-1.823L84.031,58.953z
		 M82.736,54.647l-0.948,2.927h1.907l-0.936-2.927H82.736z"/>
	<path fill="#222944" d="M89.061,60.8v-8.156h1.655l3.263,5.122h0.023v-5.122h1.596V60.8h-1.644l-3.262-4.941h-0.024V60.8H89.061z"
		/>
	<path fill="#222944" d="M104.298,54.12h-3.862v1.739h3.322v1.463h-3.322v2.015h3.922V60.8h-5.577v-8.156h5.518V54.12z"/>
	<path fill="#222944" d="M15.475,67.644v4.978h1.043v1.296h-1.043V75.8h-1.56v-1.883h-3.693v-1.296
		c1.319-1.439,2.471-3.059,3.322-4.978H15.475z M13.916,72.621v-2.95h-0.023c-0.66,1.199-1.247,1.979-2.075,2.95H13.916z"/>
	<path fill="#222944" d="M20.901,74.061V75.8h-1.559v-1.739H20.901z"/>
	<path fill="#222944" d="M32.251,73.053h0.023l1.919-5.409h2.183V75.8h-1.643v-5.182h-0.024L32.767,75.8h-1.199l-1.896-5.182h-0.023
		V75.8h-1.607v-8.156h2.194L32.251,73.053z"/>
	<path fill="#222944" d="M43.915,73.953h-2.578L40.785,75.8h-1.751l2.639-8.216h2.015L46.29,75.8h-1.823L43.915,73.953z
		 M42.62,69.647l-0.947,2.927h1.907l-0.936-2.927H42.62z"/>
	<path fill="#222944" d="M52.015,67.525c0.972,0,1.823,0.119,2.938,0.455l-0.372,1.38c-1.283-0.3-1.799-0.36-2.435-0.36
		c-1.511,0-2.026,1.044-2.026,2.663c0,1.738,0.516,2.794,2.026,2.794c0.636,0,1.151-0.06,2.435-0.359l0.372,1.379
		c-1.115,0.324-1.967,0.444-2.938,0.444c-2.866,0-3.634-1.919-3.634-4.258C48.381,69.36,49.149,67.525,52.015,67.525z"/>
</g>
<g>
</g>
<g>
</g>
<g>
</g>
<g>
</g>
<g>
</g>
<g>
</g>
<g>
</g>
<g>
</g>
<g>
</g>
<g>
</g>
<g>
</g>
<g>
</g>
<g>
</g>
<g>
</g>
<g>
</g>
</svg>
