<?xml version="1.0" encoding="utf-8"?>
<!-- Generator: Adobe Illustrator 17.0.0, SVG Export Plug-In . SVG Version: 6.00 Build 0)  -->
<!DOCTYPE svg PUBLIC "-//W3C//DTD SVG 1.1//EN" "http://www.w3.org/Graphics/SVG/1.1/DTD/svg11.dtd">
<svg version="1.1" id="Layer_1" xmlns="http://www.w3.org/2000/svg" xmlns:xlink="http://www.w3.org/1999/xlink" x="0px" y="0px"
	 width="181.242px" height="123.711px" viewBox="0 0 181.242 123.711" enable-background="new 0 0 181.242 123.711"
	 xml:space="preserve">
<g>
	<path fill="#222944" d="M15.453,15.833l-0.396-1.295c0.947-0.36,1.931-0.828,2.53-1.319h1.14v8.215h-1.559v-6.38L15.453,15.833z"/>
	<path fill="#222944" d="M23.397,19.695v1.739h-1.559v-1.739H23.397z"/>
	<path fill="#222944" d="M34.099,14.754v6.68h-1.655v-6.68h-2.147v-1.476h5.937v1.476H34.099z"/>
	<path fill="#222944" d="M38.77,17.297c0-2.303,0.768-4.138,3.634-4.138s3.622,1.835,3.622,4.138c0,2.327-0.756,4.258-3.622,4.258
		S38.77,19.623,38.77,17.297z M40.508,17.297c0,1.619,0.288,2.878,1.895,2.878s1.883-1.259,1.883-2.878s-0.276-2.758-1.883-2.758
		S40.508,15.677,40.508,17.297z"/>
	<path fill="#222944" d="M53.155,18.688h0.024l1.919-5.409h2.183v8.156h-1.644v-5.181h-0.023l-1.943,5.181h-1.199l-1.895-5.181
		h-0.024v5.181h-1.607v-8.156h2.195L53.155,18.688z"/>
	<path fill="#222944" d="M64.675,18.688h0.023l1.919-5.409H68.8v8.156h-1.643v-5.181h-0.024l-1.942,5.181h-1.199l-1.896-5.181
		h-0.023v5.181h-1.607v-8.156h2.194L64.675,18.688z"/>
	<path fill="#222944" d="M74.971,16.889l1.596-3.61h1.787l-2.615,5.277v2.878h-1.654v-2.878l-2.627-5.277h1.883l1.607,3.61H74.971z"
		/>
	<path fill="#222944" d="M85.256,21.434v-8.156h1.655v3.214h3.118v-3.214h1.644v8.156H90.03v-3.478h-3.118v3.478H85.256z"/>
	<path fill="#222944" d="M94.857,21.434v-8.156h1.655v8.156H94.857z"/>
	<path fill="#222944" d="M101.335,13.278v6.692h3.802v1.463H99.68v-8.156H101.335z"/>
	<path fill="#222944" d="M113.477,14.754h-3.741v1.979h3.202v1.463h-3.202v3.238h-1.655v-8.156h5.396V14.754z"/>
	<path fill="#222944" d="M116.42,21.434v-8.156h1.655v8.156H116.42z"/>
	<path fill="#222944" d="M120.981,17.297c0-2.303,0.768-4.138,3.634-4.138c0.972,0,1.799,0.12,2.902,0.456l-0.36,1.379
		c-1.283-0.3-1.774-0.36-2.41-0.36c-1.512,0-2.027,1.043-2.027,2.663c0,1.739,0.516,2.794,2.027,2.794
		c0.42,0,0.768-0.084,1.127-0.228v-1.331h-1.259v-1.475h2.902v3.934c-1.008,0.36-1.823,0.564-2.902,0.564
		C121.749,21.554,120.981,19.635,120.981,17.297z"/>
	<path fill="#222944" d="M136.217,14.754h-3.861v1.739h3.322v1.463h-3.322v2.015h3.922v1.463h-5.577v-8.156h5.517V14.754z"/>
	<path fill="#222944" d="M143.885,21.434l-1.715-2.902h-1.175v2.902h-1.655v-8.156h3.478c1.716,0,2.699,1.032,2.699,2.627
		c0,1.103-0.516,2.027-1.619,2.351l1.906,3.178H143.885z M140.996,17.057h1.619c0.684,0,1.211-0.3,1.211-1.151
		c0-0.828-0.491-1.151-1.188-1.151h-1.643V17.057z"/>
	<path fill="#222944" d="M15.825,30.006l-0.468-1.248c0.983-0.396,1.691-0.6,2.734-0.6c1.847,0,2.723,1.091,2.723,2.471
		c0,1.679-1.211,2.974-3.25,4.401v0.024h3.37v1.379h-5.577v-1.487c3.166-2.015,3.813-3.118,3.813-3.982
		c0-1.235-0.935-1.379-1.439-1.379C17.192,29.586,16.677,29.658,15.825,30.006z"/>
	<path fill="#222944" d="M25.437,34.695v1.739h-1.559v-1.739H25.437z"/>
	<path fill="#222944" d="M32.457,32.297c0-2.303,0.768-4.138,3.634-4.138c0.972,0,1.799,0.12,2.902,0.456l-0.36,1.379
		c-1.283-0.3-1.775-0.36-2.411-0.36c-1.511,0-2.027,1.043-2.027,2.663c0,1.739,0.516,2.794,2.027,2.794
		c0.42,0,0.768-0.084,1.127-0.228v-1.331h-1.259v-1.475h2.902v3.934c-1.007,0.36-1.823,0.564-2.902,0.564
		C33.225,36.554,32.457,34.635,32.457,32.297z"/>
	<path fill="#222944" d="M46.95,33.556v-5.277h1.643v5.277c0,2.135-1.271,2.999-3.202,2.999s-3.214-0.864-3.214-2.999v-5.277h1.655
		v5.277c0,0.875,0.264,1.619,1.571,1.619C46.663,35.175,46.95,34.431,46.95,33.556z"/>
	<path fill="#222944" d="M57.294,29.754h-3.862v1.739h3.322v1.463h-3.322v2.015h3.922v1.463h-5.577v-8.156h5.518V29.754z"/>
	<path fill="#222944" d="M60.297,36.111l0.287-1.379c1.271,0.3,2.171,0.36,2.807,0.36c0.84,0,1.344-0.384,1.344-0.923
		c0-0.756-0.936-0.912-1.884-1.175c-1.415-0.396-2.435-1.176-2.435-2.555c0-1.643,1.355-2.279,2.975-2.279
		c0.924,0,1.763,0.12,2.879,0.456l-0.372,1.379c-1.283-0.3-1.883-0.36-2.507-0.36c-0.84,0-1.235,0.36-1.235,0.852
		c0,0.672,0.876,0.888,1.859,1.127c1.415,0.324,2.458,0.996,2.458,2.422c0,1.739-1.343,2.519-3.082,2.519
		C62.456,36.554,61.413,36.434,60.297,36.111z"/>
	<path fill="#222944" d="M69.07,36.111l0.287-1.379c1.271,0.3,2.171,0.36,2.807,0.36c0.84,0,1.344-0.384,1.344-0.923
		c0-0.756-0.936-0.912-1.884-1.175c-1.415-0.396-2.435-1.176-2.435-2.555c0-1.643,1.355-2.279,2.975-2.279
		c0.924,0,1.763,0.12,2.879,0.456l-0.372,1.379c-1.283-0.3-1.883-0.36-2.507-0.36c-0.84,0-1.235,0.36-1.235,0.852
		c0,0.672,0.876,0.888,1.859,1.127c1.415,0.324,2.458,0.996,2.458,2.422c0,1.739-1.343,2.519-3.082,2.519
		C71.228,36.554,70.185,36.434,69.07,36.111z"/>
	<path fill="#222944" d="M19.519,47.2c1.127,0.276,1.655,1.104,1.655,2.015c0,1.511-1.091,2.339-2.974,2.339
		c-1.02,0-1.883-0.132-2.842-0.588l0.468-1.188c0.779,0.348,1.523,0.492,2.278,0.492c1.176,0,1.476-0.684,1.476-1.139
		c0-0.755-0.552-1.127-1.607-1.127h-1.079v-1.295H17.9c1.188,0,1.487-0.647,1.487-1.223c0-0.479-0.336-1.031-1.284-1.031
		c-0.731,0-1.319,0.144-2.099,0.492l-0.468-1.2c0.972-0.443,1.931-0.587,2.842-0.587c1.416,0,2.555,0.731,2.555,2.159
		c0,0.899-0.54,1.535-1.415,1.859V47.2z"/>
	<path fill="#222944" d="M25.676,49.695v1.739h-1.559v-1.739H25.676z"/>
	<path fill="#222944" d="M32.817,51.434v-8.156h3.046c2.807,0,3.61,1.715,3.61,4.018c0,2.327-0.803,4.138-3.61,4.138H32.817z
		 M35.863,49.971c1.547,0,1.871-1.055,1.871-2.674s-0.324-2.542-1.871-2.542h-1.391v5.217H35.863z"/>
	<path fill="#222944" d="M47.91,44.754h-3.862v1.739h3.322v1.463h-3.322v2.015h3.922v1.463h-5.577v-8.156h5.517V44.754z"/>
	<path fill="#222944" d="M50.913,51.111l0.288-1.379c1.271,0.3,2.171,0.36,2.807,0.36c0.84,0,1.344-0.384,1.344-0.923
		c0-0.756-0.936-0.912-1.884-1.175c-1.415-0.396-2.435-1.176-2.435-2.555c0-1.643,1.355-2.279,2.975-2.279
		c0.924,0,1.763,0.12,2.879,0.456l-0.372,1.379c-1.283-0.3-1.883-0.36-2.507-0.36c-0.84,0-1.235,0.36-1.235,0.852
		c0,0.672,0.876,0.888,1.859,1.127c1.415,0.324,2.458,0.996,2.458,2.422c0,1.739-1.343,2.519-3.082,2.519
		C53.072,51.554,52.028,51.434,50.913,51.111z"/>
	<path fill="#222944" d="M59.937,51.434v-8.156h1.655v8.156H59.937z"/>
	<path fill="#222944" d="M64.498,47.297c0-2.303,0.768-4.138,3.634-4.138c0.972,0,1.799,0.12,2.902,0.456l-0.36,1.379
		c-1.283-0.3-1.774-0.36-2.41-0.36c-1.512,0-2.027,1.043-2.027,2.663c0,1.739,0.516,2.794,2.027,2.794
		c0.42,0,0.768-0.084,1.127-0.228v-1.331h-1.259v-1.475h2.902v3.934c-1.008,0.36-1.823,0.564-2.902,0.564
		C65.265,51.554,64.498,49.635,64.498,47.297z"/>
	<path fill="#222944" d="M78.991,48.556v-5.277h1.643v5.277c0,2.135-1.271,2.999-3.202,2.999c-1.931,0-3.214-0.864-3.214-2.999
		v-5.277h1.655v5.277c0,0.875,0.264,1.619,1.571,1.619C78.703,50.175,78.991,49.431,78.991,48.556z"/>
	<path fill="#222944" d="M87.739,49.587H85.16l-0.551,1.847h-1.752l2.639-8.215h2.016l2.603,8.215h-1.823L87.739,49.587z
		 M86.444,45.281l-0.948,2.927h1.907l-0.936-2.927H86.444z"/>
	<path fill="#222944" d="M94.424,43.278v6.692h3.802v1.463h-5.457v-8.156H94.424z"/>
	<path fill="#222944" d="M20.49,58.279v4.978h1.043v1.295H20.49v1.883h-1.559v-1.883h-3.694v-1.295
		c1.319-1.439,2.471-3.059,3.322-4.978H20.49z M18.931,63.257v-2.95h-0.024c-0.66,1.199-1.247,1.979-2.075,2.95H18.931z"/>
	<path fill="#222944" d="M25.917,64.695v1.739h-1.559v-1.739H25.917z"/>
	<path fill="#222944" d="M36.571,58.159c0.972,0,1.823,0.12,2.938,0.456l-0.372,1.379c-1.283-0.3-1.799-0.359-2.435-0.359
		c-1.511,0-2.027,1.043-2.027,2.662c0,1.739,0.516,2.795,2.027,2.795c0.636,0,1.151-0.061,2.435-0.36l0.372,1.38
		c-1.115,0.323-1.967,0.443-2.938,0.443c-2.866,0-3.634-1.919-3.634-4.258C32.937,59.994,33.705,58.159,36.571,58.159z"/>
	<path fill="#222944" d="M46.771,66.434l-1.715-2.902H43.88v2.902h-1.655v-8.155h3.478c1.715,0,2.699,1.031,2.699,2.627
		c0,1.103-0.516,2.026-1.619,2.351l1.907,3.178H46.771z M43.88,62.057H45.5c0.684,0,1.211-0.3,1.211-1.151
		c0-0.828-0.492-1.151-1.188-1.151H43.88V62.057z"/>
	<path fill="#222944" d="M57.043,59.755H53.18v1.738h3.322v1.464H53.18v2.015h3.922v1.463h-5.577v-8.155h5.518V59.755z"/>
	<path fill="#222944" d="M61.82,63.556v2.878h-1.655v-8.155h3.479c1.715,0,2.698,1.056,2.698,2.639c0,1.619-0.983,2.639-2.698,2.639
		H61.82z M61.82,62.092h1.644c0.695,0,1.187-0.323,1.187-1.175c0-0.828-0.492-1.163-1.187-1.163H61.82V62.092z"/>
	<path fill="#222944" d="M69.285,66.434v-8.155h1.655v8.155H69.285z"/>
	<path fill="#222944" d="M79.626,59.755h-3.861v1.738h3.322v1.464h-3.322v2.015h3.922v1.463h-5.577v-8.155h5.517V59.755z"/>
	<path fill="#222944" d="M87.294,66.434l-1.715-2.902h-1.176v2.902h-1.655v-8.155h3.479c1.715,0,2.698,1.031,2.698,2.627
		c0,1.103-0.516,2.026-1.619,2.351l1.907,3.178H87.294z M84.404,62.057h1.619c0.684,0,1.212-0.3,1.212-1.151
		c0-0.828-0.492-1.151-1.188-1.151h-1.644V62.057z"/>
	<path fill="#222944" d="M15.357,80.955l0.468-1.199c0.852,0.396,1.463,0.516,2.17,0.516c1.043,0,1.535-0.624,1.535-1.439
		c0-0.636-0.3-1.403-1.319-1.403c-0.48,0-0.936,0.192-1.295,0.576l-1.116-0.096l0.156-4.63h4.737v1.379h-3.382l-0.108,1.991
		l0.024,0.012c0.384-0.323,0.959-0.563,1.535-0.563c1.439,0,2.411,0.911,2.411,2.639c0,1.859-1.163,2.818-3.082,2.818
		C17.144,81.554,16.341,81.398,15.357,80.955z"/>
	<path fill="#222944" d="M25.676,79.695v1.739h-1.559v-1.739H25.676z"/>
	<path fill="#222944" d="M37.638,77.225c0.888,0.264,1.476,0.923,1.476,1.979c0,1.392-0.9,2.23-2.603,2.23h-3.694v-8.155h3.454
		c1.703,0,2.603,0.768,2.603,2.087c0,0.875-0.479,1.56-1.235,1.835V77.225z M36.091,74.755h-1.619v1.763h1.619
		c0.684,0,1.043-0.252,1.043-0.888C37.135,75.03,36.775,74.755,36.091,74.755z M34.472,77.993v1.979h1.763
		c0.695,0,1.139-0.228,1.139-0.995c0-0.732-0.444-0.983-1.199-0.983H34.472z"/>
	<path fill="#222944" d="M46.602,81.434l-1.715-2.902h-1.175v2.902h-1.655v-8.155h3.478c1.715,0,2.699,1.031,2.699,2.627
		c0,1.103-0.516,2.026-1.619,2.351l1.907,3.178H46.602z M43.712,77.057h1.619c0.684,0,1.211-0.3,1.211-1.151
		c0-0.828-0.492-1.151-1.188-1.151h-1.643V77.057z"/>
	<path fill="#222944" d="M51.033,77.297c0-2.303,0.768-4.138,3.634-4.138c2.867,0,3.622,1.835,3.622,4.138
		c0,2.327-0.755,4.258-3.622,4.258C51.8,81.554,51.033,79.624,51.033,77.297z M52.772,77.297c0,1.619,0.288,2.879,1.895,2.879
		c1.607,0,1.883-1.26,1.883-2.879s-0.275-2.758-1.883-2.758C53.06,74.539,52.772,75.677,52.772,77.297z"/>
	<path fill="#222944" d="M61.233,77.297c0-2.303,0.768-4.138,3.634-4.138c2.867,0,3.622,1.835,3.622,4.138
		c0,2.327-0.755,4.258-3.622,4.258C62.001,81.554,61.233,79.624,61.233,77.297z M62.972,77.297c0,1.619,0.288,2.879,1.895,2.879
		c1.607,0,1.883-1.26,1.883-2.879s-0.275-2.758-1.883-2.758C63.26,74.539,62.972,75.677,62.972,77.297z"/>
	<path fill="#222944" d="M73.064,76.985l3.07-3.706h1.967l-2.843,3.442l2.866,4.713h-2.062l-2.003-3.394l-0.995,1.199v2.194h-1.655
		v-8.155h1.655V76.985z"/>
	<path fill="#222944" d="M80.349,81.111l0.287-1.38c1.271,0.3,2.171,0.36,2.807,0.36c0.84,0,1.344-0.384,1.344-0.924
		c0-0.756-0.936-0.911-1.884-1.175c-1.415-0.396-2.435-1.176-2.435-2.555c0-1.644,1.355-2.279,2.975-2.279
		c0.924,0,1.763,0.12,2.879,0.456l-0.372,1.379c-1.283-0.3-1.883-0.359-2.507-0.359c-0.84,0-1.235,0.359-1.235,0.852
		c0,0.672,0.876,0.888,1.859,1.127c1.415,0.324,2.458,0.996,2.458,2.423c0,1.739-1.343,2.519-3.082,2.519
		C82.507,81.554,81.464,81.434,80.349,81.111z"/>
	<path fill="#222944" d="M98.49,77.225c0.888,0.264,1.476,0.923,1.476,1.979c0,1.392-0.9,2.23-2.603,2.23h-3.694v-8.155h3.454
		c1.703,0,2.603,0.768,2.603,2.087c0,0.875-0.479,1.56-1.235,1.835V77.225z M96.943,74.755h-1.619v1.763h1.619
		c0.684,0,1.043-0.252,1.043-0.888C97.986,75.03,97.627,74.755,96.943,74.755z M95.324,77.993v1.979h1.763
		c0.695,0,1.14-0.228,1.14-0.995c0-0.732-0.444-0.983-1.199-0.983H95.324z"/>
	<path fill="#222944" d="M107.454,81.434l-1.715-2.902h-1.175v2.902h-1.655v-8.155h3.478c1.716,0,2.699,1.031,2.699,2.627
		c0,1.103-0.516,2.026-1.619,2.351l1.906,3.178H107.454z M104.564,77.057h1.619c0.684,0,1.211-0.3,1.211-1.151
		c0-0.828-0.491-1.151-1.188-1.151h-1.643V77.057z"/>
	<path fill="#222944" d="M111.884,77.297c0-2.303,0.768-4.138,3.634-4.138c2.867,0,3.622,1.835,3.622,4.138
		c0,2.327-0.755,4.258-3.622,4.258C112.652,81.554,111.884,79.624,111.884,77.297z M113.624,77.297c0,1.619,0.288,2.879,1.895,2.879
		c1.607,0,1.883-1.26,1.883-2.879s-0.275-2.758-1.883-2.758C113.912,74.539,113.624,75.677,113.624,77.297z"/>
	<path fill="#222944" d="M125.478,74.755v6.68h-1.654v-6.68h-2.147v-1.476h5.937v1.476H125.478z"/>
	<path fill="#222944" d="M130.556,81.434v-8.155h1.655v3.214h3.118v-3.214h1.643v8.155h-1.643v-3.478h-3.118v3.478H130.556z"/>
	<path fill="#222944" d="M145.673,74.755h-3.862v1.738h3.322v1.464h-3.322v2.015h3.922v1.463h-5.577v-8.155h5.518V74.755z"/>
	<path fill="#222944" d="M153.341,81.434l-1.715-2.902h-1.175v2.902h-1.655v-8.155h3.478c1.716,0,2.699,1.031,2.699,2.627
		c0,1.103-0.516,2.026-1.619,2.351l1.906,3.178H153.341z M150.452,77.057h1.619c0.684,0,1.211-0.3,1.211-1.151
		c0-0.828-0.491-1.151-1.188-1.151h-1.643V77.057z"/>
	<path fill="#222944" d="M157.772,81.111l0.288-1.38c1.271,0.3,2.171,0.36,2.807,0.36c0.839,0,1.343-0.384,1.343-0.924
		c0-0.756-0.936-0.911-1.883-1.175c-1.415-0.396-2.435-1.176-2.435-2.555c0-1.644,1.355-2.279,2.975-2.279
		c0.923,0,1.763,0.12,2.878,0.456l-0.372,1.379c-1.283-0.3-1.883-0.359-2.506-0.359c-0.84,0-1.235,0.359-1.235,0.852
		c0,0.672,0.875,0.888,1.858,1.127c1.415,0.324,2.459,0.996,2.459,2.423c0,1.739-1.344,2.519-3.082,2.519
		C159.931,81.554,158.887,81.434,157.772,81.111z"/>
	<path fill="#222944" d="M16.94,91.829c0.42-0.516,1.043-0.852,1.739-0.852c1.547,0,2.495,1.02,2.495,2.818
		c0,1.728-1.163,2.759-2.806,2.759c-2.183,0-3.01-1.787-3.01-3.718c0-3.658,1.643-4.678,3.562-4.678c0.779,0,1.379,0.12,2.003,0.336
		l-0.18,1.199c-0.72-0.18-1.211-0.239-1.691-0.239c-1.175,0-2.135,0.959-2.135,2.362L16.94,91.829z M18.284,95.271
		c0.684,0,1.247-0.504,1.247-1.476c0-0.647-0.24-1.463-1.271-1.463c-0.504,0-0.888,0.276-1.199,0.647
		C16.964,94.095,17.144,95.271,18.284,95.271z"/>
	<path fill="#222944" d="M25.676,94.695v1.739h-1.559v-1.739H25.676z"/>
	<path fill="#222944" d="M37.338,94.588H34.76l-0.552,1.847h-1.751l2.639-8.215h2.015l2.603,8.215H37.89L37.338,94.588z
		 M36.043,90.282l-0.948,2.927h1.907l-0.936-2.927H36.043z"/>
	<path fill="#222944" d="M44.024,88.279v6.692h3.802v1.463h-5.457v-8.155H44.024z"/>
	<path fill="#222944" d="M50.769,96.434v-8.155h3.046c2.807,0,3.61,1.715,3.61,4.018c0,2.327-0.804,4.138-3.61,4.138H50.769z
		 M53.815,94.971c1.548,0,1.871-1.056,1.871-2.675s-0.323-2.542-1.871-2.542h-1.391v5.217H53.815z"/>
	<path fill="#222944" d="M60.37,92.297c0-2.303,0.768-4.138,3.634-4.138c2.866,0,3.622,1.835,3.622,4.138
		c0,2.327-0.756,4.258-3.622,4.258C61.137,96.554,60.37,94.624,60.37,92.297z M62.108,92.297c0,1.619,0.288,2.879,1.896,2.879
		c1.606,0,1.883-1.26,1.883-2.879s-0.276-2.758-1.883-2.758C62.396,89.539,62.108,90.677,62.108,92.297z"/>
	<path fill="#222944" d="M18.763,104.658h-3.526v-1.379h5.217v1.115c-1.127,1.967-2.279,4.102-2.759,7.04h-1.739
		c0.36-2.135,1.547-4.857,2.806-6.752V104.658z"/>
	<path fill="#222944" d="M24.836,109.695v1.739h-1.559v-1.739H24.836z"/>
	<path fill="#222944" d="M36.798,107.225c0.888,0.264,1.476,0.923,1.476,1.979c0,1.392-0.9,2.23-2.603,2.23h-3.694v-8.155h3.454
		c1.703,0,2.603,0.768,2.603,2.087c0,0.875-0.479,1.56-1.235,1.835V107.225z M35.252,104.755h-1.619v1.763h1.619
		c0.684,0,1.043-0.252,1.043-0.888C36.295,105.03,35.935,104.755,35.252,104.755z M33.632,107.993v1.979h1.763
		c0.695,0,1.139-0.228,1.139-0.995c0-0.732-0.444-0.983-1.199-0.983H33.632z"/>
	<path fill="#222944" d="M46.734,104.755h-3.862v1.738h3.322v1.464h-3.322v2.015h3.922v1.463h-5.577v-8.155h5.517V104.755z"/>
	<path fill="#222944" d="M53.937,111.434v-8.155h3.046c2.807,0,3.61,1.715,3.61,4.018c0,2.327-0.804,4.138-3.61,4.138H53.937z
		 M56.983,109.971c1.548,0,1.871-1.056,1.871-2.675s-0.323-2.542-1.871-2.542h-1.391v5.217H56.983z"/>
	<path fill="#222944" d="M69.03,104.755h-3.861v1.738h3.322v1.464h-3.322v2.015h3.922v1.463h-5.577v-8.155h5.517V104.755z"/>
	<path fill="#222944" d="M72.034,111.111l0.287-1.38c1.271,0.3,2.171,0.36,2.807,0.36c0.84,0,1.344-0.384,1.344-0.924
		c0-0.756-0.936-0.911-1.884-1.175c-1.415-0.396-2.435-1.176-2.435-2.555c0-1.644,1.355-2.279,2.975-2.279
		c0.924,0,1.763,0.12,2.879,0.456l-0.372,1.379c-1.283-0.3-1.883-0.359-2.507-0.359c-0.84,0-1.235,0.359-1.235,0.852
		c0,0.672,0.876,0.888,1.859,1.127c1.415,0.324,2.458,0.996,2.458,2.423c0,1.739-1.343,2.519-3.082,2.519
		C74.192,111.554,73.149,111.434,72.034,111.111z"/>
	<path fill="#222944" d="M81.057,111.434v-8.155h1.655v8.155H81.057z"/>
	<path fill="#222944" d="M85.617,107.297c0-2.303,0.768-4.138,3.634-4.138c0.972,0,1.799,0.12,2.902,0.456l-0.359,1.379
		c-1.283-0.3-1.775-0.359-2.411-0.359c-1.511,0-2.026,1.043-2.026,2.662c0,1.739,0.516,2.795,2.026,2.795
		c0.42,0,0.768-0.084,1.128-0.229v-1.331h-1.26v-1.475h2.902v3.934c-1.007,0.359-1.822,0.563-2.902,0.563
		C86.384,111.554,85.617,109.635,85.617,107.297z"/>
	<path fill="#222944" d="M95.336,111.434v-8.155h1.655l3.263,5.121h0.023v-5.121h1.596v8.155h-1.644l-3.262-4.941h-0.024v4.941
		H95.336z"/>
</g>
<g>
</g>
<g>
</g>
<g>
</g>
<g>
</g>
<g>
</g>
<g>
</g>
<g>
</g>
<g>
</g>
<g>
</g>
<g>
</g>
<g>
</g>
<g>
</g>
<g>
</g>
<g>
</g>
<g>
</g>
</svg>
