<?xml version="1.0" encoding="utf-8"?>
<!-- Generator: Adobe Illustrator 17.0.0, SVG Export Plug-In . SVG Version: 6.00 Build 0)  -->
<!DOCTYPE svg PUBLIC "-//W3C//DTD SVG 1.1//EN" "http://www.w3.org/Graphics/SVG/1.1/DTD/svg11.dtd">
<svg version="1.1" id="Layer_1" xmlns="http://www.w3.org/2000/svg" xmlns:xlink="http://www.w3.org/1999/xlink" x="0px" y="0px"
	 width="146.841px" height="114.433px" viewBox="0 0 146.841 114.433" enable-background="new 0 0 146.841 114.433"
	 xml:space="preserve">
<g>
	<path fill="#222944" d="M9.772,17.415l-0.396-1.295c0.947-0.36,1.931-0.828,2.53-1.319h1.14v8.215h-1.559v-6.38L9.772,17.415z"/>
	<path fill="#222944" d="M17.716,21.277v1.739h-1.56v-1.739H17.716z"/>
	<path fill="#222944" d="M29.066,20.27h0.023l1.919-5.409h2.183v8.156h-1.643v-5.181h-0.024l-1.942,5.181h-1.199l-1.896-5.181
		h-0.024v5.181h-1.607v-8.156h2.195L29.066,20.27z"/>
	<path fill="#222944" d="M36.376,23.017v-8.156h1.655v8.156H36.376z"/>
	<path fill="#222944" d="M42.855,14.861v6.692h3.801v1.463h-5.457v-8.156H42.855z"/>
	<path fill="#222944" d="M54.121,21.169h-2.578l-0.552,1.847H49.24l2.639-8.215h2.015l2.603,8.215h-1.823L54.121,21.169z
		 M52.826,16.864l-0.947,2.927h1.906l-0.936-2.927H52.826z"/>
	<path fill="#222944" d="M59.152,23.017v-8.156h1.654l3.263,5.122h0.024v-5.122h1.595v8.156h-1.644l-3.262-4.941H60.76v4.941H59.152
		z"/>
	<path fill="#222944" d="M68.608,18.879c0-2.303,0.768-4.138,3.634-4.138s3.622,1.835,3.622,4.138c0,2.327-0.756,4.258-3.622,4.258
		S68.608,21.206,68.608,18.879z M70.348,18.879c0,1.619,0.287,2.878,1.895,2.878s1.883-1.259,1.883-2.878s-0.275-2.758-1.883-2.758
		S70.348,17.26,70.348,18.879z"/>
	<path fill="#222944" d="M87.828,18.807c0.889,0.264,1.477,0.923,1.477,1.979c0,1.392-0.9,2.231-2.604,2.231h-3.693v-8.156h3.453
		c1.703,0,2.604,0.768,2.604,2.087c0,0.875-0.48,1.56-1.236,1.835V18.807z M86.281,16.336h-1.619v1.763h1.619
		c0.684,0,1.044-0.251,1.044-0.887C87.325,16.612,86.965,16.336,86.281,16.336z M84.662,19.575v1.979h1.764
		c0.695,0,1.139-0.228,1.139-0.995c0-0.732-0.443-0.983-1.199-0.983H84.662z"/>
	<path fill="#222944" d="M96.589,21.169H94.01l-0.551,1.847h-1.752l2.639-8.215h2.016l2.603,8.215h-1.823L96.589,21.169z
		 M95.294,16.864l-0.948,2.927h1.908l-0.936-2.927H95.294z"/>
	<path fill="#222944" d="M101.056,18.879c0-2.303,0.768-4.138,3.634-4.138c0.972,0,1.799,0.12,2.902,0.456l-0.359,1.379
		c-1.283-0.3-1.775-0.36-2.411-0.36c-1.511,0-2.026,1.043-2.026,2.663c0,1.739,0.516,2.794,2.026,2.794
		c0.42,0,0.768-0.084,1.128-0.228v-1.331h-1.26v-1.475h2.902v3.934c-1.008,0.36-1.822,0.564-2.902,0.564
		C101.823,23.137,101.056,21.218,101.056,18.879z"/>
	<path fill="#222944" d="M110.656,22.693l0.287-1.379c1.271,0.3,2.171,0.36,2.807,0.36c0.84,0,1.344-0.384,1.344-0.923
		c0-0.756-0.936-0.912-1.884-1.175c-1.415-0.396-2.435-1.176-2.435-2.555c0-1.643,1.355-2.279,2.975-2.279
		c0.924,0,1.763,0.12,2.879,0.456l-0.373,1.379c-1.283-0.3-1.883-0.36-2.506-0.36c-0.84,0-1.235,0.36-1.235,0.852
		c0,0.672,0.876,0.888,1.858,1.127c1.416,0.324,2.459,0.996,2.459,2.422c0,1.739-1.344,2.519-3.082,2.519
		C112.814,23.137,111.771,23.017,110.656,22.693z"/>
	<path fill="#222944" d="M10.145,31.588l-0.468-1.248c0.983-0.396,1.69-0.6,2.734-0.6c1.847,0,2.723,1.091,2.723,2.471
		c0,1.679-1.212,2.974-3.251,4.401v0.024h3.371v1.379H9.677v-1.487c3.166-2.015,3.813-3.118,3.813-3.982
		c0-1.235-0.936-1.379-1.439-1.379C11.512,31.168,10.996,31.24,10.145,31.588z"/>
	<path fill="#222944" d="M19.756,36.277v1.739h-1.559v-1.739H19.756z"/>
	<path fill="#222944" d="M31.67,35.138v-5.277h1.643v5.277c0,2.135-1.271,2.999-3.202,2.999s-3.214-0.864-3.214-2.999v-5.277h1.654
		v5.277c0,0.875,0.264,1.619,1.572,1.619C31.382,36.757,31.67,36.014,31.67,35.138z"/>
	<path fill="#222944" d="M36.232,33.879c0-2.303,0.768-4.138,3.634-4.138c0.972,0,1.799,0.12,2.902,0.456l-0.36,1.379
		c-1.283-0.3-1.774-0.36-2.41-0.36c-1.512,0-2.027,1.043-2.027,2.663c0,1.739,0.516,2.794,2.027,2.794
		c0.42,0,0.768-0.084,1.127-0.228v-1.331h-1.259v-1.475h2.902v3.934c-1.007,0.36-1.823,0.564-2.902,0.564
		C37,38.137,36.232,36.218,36.232,33.879z"/>
	<path fill="#222944" d="M45.832,33.879c0-2.303,0.768-4.138,3.635-4.138c0.971,0,1.799,0.12,2.902,0.456l-0.36,1.379
		c-1.283-0.3-1.774-0.36-2.411-0.36c-1.511,0-2.026,1.043-2.026,2.663c0,1.739,0.516,2.794,2.026,2.794
		c0.42,0,0.768-0.084,1.128-0.228v-1.331h-1.259v-1.475h2.902v3.934c-1.008,0.36-1.823,0.564-2.902,0.564
		C46.6,38.137,45.832,36.218,45.832,33.879z"/>
	<path fill="#222944" d="M13.838,48.783c1.128,0.275,1.655,1.104,1.655,2.015c0,1.512-1.091,2.339-2.974,2.339
		c-1.02,0-1.883-0.132-2.843-0.588l0.468-1.188c0.779,0.349,1.523,0.492,2.278,0.492c1.176,0,1.476-0.684,1.476-1.14
		c0-0.755-0.552-1.127-1.607-1.127h-1.079v-1.296h1.007c1.188,0,1.488-0.647,1.488-1.223c0-0.479-0.336-1.031-1.284-1.031
		c-0.731,0-1.319,0.144-2.099,0.492l-0.468-1.2c0.972-0.443,1.931-0.587,2.843-0.587c1.415,0,2.555,0.731,2.555,2.159
		c0,0.9-0.54,1.536-1.416,1.859V48.783z"/>
	<path fill="#222944" d="M19.996,51.277v1.739h-1.56v-1.739H19.996z"/>
	<path fill="#222944" d="M28.791,50.139v2.878h-1.654v-8.156h3.478c1.716,0,2.698,1.056,2.698,2.639c0,1.62-0.982,2.639-2.698,2.639
		H28.791z M28.791,48.675h1.644c0.696,0,1.188-0.323,1.188-1.175c0-0.828-0.491-1.163-1.188-1.163h-1.644V48.675z"/>
	<path fill="#222944" d="M40.801,53.017l-1.715-2.902h-1.175v2.902h-1.655v-8.156h3.479c1.715,0,2.698,1.032,2.698,2.627
		c0,1.103-0.516,2.027-1.619,2.351l1.907,3.178H40.801z M37.911,48.64h1.619c0.684,0,1.212-0.3,1.212-1.152
		c0-0.828-0.492-1.151-1.188-1.151h-1.644V48.64z"/>
	<path fill="#222944" d="M50.33,50.139v-5.278h1.643v5.278c0,2.135-1.271,2.998-3.202,2.998s-3.214-0.863-3.214-2.998v-5.278h1.654
		v5.278c0,0.875,0.264,1.619,1.572,1.619C50.042,51.758,50.33,51.014,50.33,50.139z M47.967,42.846v1.379h-1.283v-1.379H47.967z
		 M50.846,42.846v1.379h-1.283v-1.379H50.846z"/>
	<path fill="#222944" d="M55.156,53.017v-8.156h1.654l3.263,5.122h0.024v-5.122h1.595v8.156h-1.644l-3.262-4.941h-0.023v4.941
		H55.156z"/>
	<path fill="#222944" d="M70.393,46.336h-3.861v1.739h3.322v1.464h-3.322v2.015h3.922v1.463h-5.577v-8.156h5.517V46.336z"/>
	<path fill="#222944" d="M14.81,59.861v4.978h1.044v1.295H14.81v1.883h-1.56v-1.883H9.557v-1.295
		c1.319-1.439,2.471-3.059,3.322-4.978H14.81z M13.25,64.839v-2.95h-0.023c-0.66,1.199-1.247,1.979-2.074,2.95H13.25z"/>
	<path fill="#222944" d="M20.236,66.277v1.739h-1.56v-1.739H20.236z"/>
	<path fill="#222944" d="M27.256,67.693l0.288-1.38c1.271,0.3,2.171,0.36,2.807,0.36c0.839,0,1.343-0.384,1.343-0.924
		c0-0.756-0.936-0.911-1.883-1.175c-1.415-0.396-2.435-1.176-2.435-2.555c0-1.644,1.355-2.279,2.975-2.279
		c0.923,0,1.763,0.12,2.878,0.456l-0.371,1.379c-1.283-0.3-1.883-0.359-2.507-0.359c-0.84,0-1.235,0.359-1.235,0.852
		c0,0.672,0.875,0.888,1.859,1.127c1.414,0.324,2.458,0.996,2.458,2.423c0,1.739-1.343,2.519-3.082,2.519
		C29.415,68.137,28.371,68.017,27.256,67.693z"/>
	<path fill="#222944" d="M39.807,61.337v6.68h-1.655v-6.68h-2.147v-1.476h5.938v1.476H39.807z"/>
	<path fill="#222944" d="M50.401,61.337h-3.862v1.738h3.322v1.464h-3.322v2.015h3.922v1.463h-5.576v-8.155h5.517V61.337z"/>
	<path fill="#222944" d="M56.858,66.014l1.823-6.152h1.738l-2.602,8.216h-2.016l-2.639-8.216h1.835l1.847,6.152H56.858z"/>
	<path fill="#222944" d="M68.594,61.337h-3.862v1.738h3.322v1.464h-3.322v2.015h3.922v1.463h-5.577v-8.155h5.518V61.337z"/>
	<path fill="#222944" d="M80.006,65.27h0.023l1.92-5.409h2.182v8.155h-1.643v-5.181h-0.023l-1.943,5.181h-1.199l-1.895-5.181h-0.024
		v5.181h-1.607v-8.155h2.194L80.006,65.27z"/>
	<path fill="#222944" d="M91.67,66.17h-2.579l-0.552,1.847h-1.751l2.639-8.215h2.015l2.604,8.215h-1.824L91.67,66.17z
		 M90.375,61.864l-0.948,2.927h1.907l-0.936-2.927H90.375z"/>
	<path fill="#222944" d="M96.7,68.017v-8.155h3.046c2.807,0,3.61,1.715,3.61,4.018c0,2.327-0.804,4.138-3.61,4.138H96.7z
		 M99.746,66.554c1.548,0,1.871-1.056,1.871-2.675c0-1.619-0.323-2.542-1.871-2.542h-1.391v5.217H99.746z"/>
	<path fill="#222944" d="M106.275,68.017v-8.155h3.047c2.807,0,3.609,1.715,3.609,4.018c0,2.327-0.803,4.138-3.609,4.138H106.275z
		 M109.322,66.554c1.547,0,1.871-1.056,1.871-2.675c0-1.619-0.324-2.542-1.871-2.542h-1.391v5.217H109.322z"/>
	<path fill="#222944" d="M121.369,61.337h-3.861v1.738h3.322v1.464h-3.322v2.015h3.922v1.463h-5.578v-8.155h5.518V61.337z"/>
	<path fill="#222944" d="M124.492,68.017v-8.155h1.654l3.263,5.121h0.024v-5.121h1.595v8.155h-1.644l-3.262-4.941H126.1v4.941
		H124.492z"/>
	<path fill="#222944" d="M9.677,82.537l0.468-1.199c0.852,0.396,1.463,0.516,2.17,0.516c1.044,0,1.535-0.624,1.535-1.439
		c0-0.636-0.299-1.403-1.318-1.403c-0.48,0-0.936,0.192-1.295,0.576l-1.116-0.096l0.156-4.63h4.737v1.379h-3.383l-0.107,1.991
		l0.023,0.012c0.385-0.323,0.96-0.563,1.535-0.563c1.439,0,2.411,0.911,2.411,2.639c0,1.859-1.163,2.818-3.082,2.818
		C11.463,83.137,10.66,82.98,9.677,82.537z"/>
	<path fill="#222944" d="M19.996,81.277v1.739h-1.56v-1.739H19.996z"/>
	<path fill="#222944" d="M31.346,80.27h0.024l1.919-5.409h2.183v8.155h-1.644v-5.181h-0.023l-1.943,5.181h-1.199l-1.895-5.181
		h-0.023v5.181h-1.607v-8.155h2.194L31.346,80.27z"/>
	<path fill="#222944" d="M44.174,76.337h-3.862v1.738h3.322v1.464h-3.322v2.015h3.922v1.463h-5.577v-8.155h5.518V76.337z"/>
	<path fill="#222944" d="M48.951,74.861v6.692h3.802v1.463h-5.457v-8.155H48.951z"/>
	<path fill="#222944" d="M55.695,83.017v-8.155h1.656v8.155H55.695z"/>
	<path fill="#222944" d="M60.184,82.693l0.288-1.38c1.271,0.3,2.171,0.36,2.807,0.36c0.839,0,1.343-0.384,1.343-0.924
		c0-0.756-0.936-0.911-1.883-1.175c-1.415-0.396-2.435-1.176-2.435-2.555c0-1.644,1.355-2.279,2.975-2.279
		c0.923,0,1.763,0.12,2.878,0.456l-0.371,1.379c-1.283-0.3-1.883-0.359-2.507-0.359c-0.84,0-1.235,0.359-1.235,0.852
		c0,0.672,0.875,0.888,1.859,1.127c1.414,0.324,2.458,0.996,2.458,2.423c0,1.739-1.343,2.519-3.082,2.519
		C62.343,83.137,61.299,83.017,60.184,82.693z"/>
	<path fill="#222944" d="M68.956,82.693l0.288-1.38c1.271,0.3,2.17,0.36,2.807,0.36c0.839,0,1.343-0.384,1.343-0.924
		c0-0.756-0.936-0.911-1.884-1.175c-1.414-0.396-2.434-1.176-2.434-2.555c0-1.644,1.355-2.279,2.975-2.279
		c0.923,0,1.762,0.12,2.878,0.456l-0.372,1.379c-1.283-0.3-1.883-0.359-2.506-0.359c-0.84,0-1.236,0.359-1.236,0.852
		c0,0.672,0.876,0.888,1.859,1.127c1.415,0.324,2.459,0.996,2.459,2.423c0,1.739-1.344,2.519-3.082,2.519
		C71.115,83.137,70.071,83.017,68.956,82.693z"/>
	<path fill="#222944" d="M82.213,81.17h-2.578l-0.552,1.847h-1.751l2.639-8.215h2.016l2.602,8.215h-1.822L82.213,81.17z
		 M80.918,76.864l-0.947,2.927h1.907l-0.936-2.927H80.918z"/>
	<path fill="#222944" d="M11.26,93.411c0.42-0.516,1.043-0.852,1.738-0.852c1.548,0,2.495,1.02,2.495,2.818
		c0,1.728-1.163,2.759-2.806,2.759c-2.184,0-3.011-1.787-3.011-3.718c0-3.658,1.644-4.678,3.562-4.678
		c0.779,0,1.379,0.12,2.004,0.336l-0.181,1.199c-0.72-0.18-1.212-0.239-1.69-0.239c-1.176,0-2.135,0.959-2.135,2.362L11.26,93.411z
		 M12.604,96.853c0.684,0,1.246-0.504,1.246-1.476c0-0.647-0.239-1.463-1.271-1.463c-0.504,0-0.888,0.276-1.199,0.647
		C11.283,95.678,11.463,96.853,12.604,96.853z"/>
	<path fill="#222944" d="M19.996,96.277v1.739h-1.56v-1.739H19.996z"/>
	<path fill="#222944" d="M27.017,93.879c0-2.303,0.768-4.138,3.634-4.138c0.972,0,1.799,0.12,2.902,0.456l-0.359,1.379
		c-1.283-0.3-1.775-0.359-2.411-0.359c-1.511,0-2.026,1.043-2.026,2.662c0,1.739,0.516,2.795,2.026,2.795
		c0.42,0,0.768-0.084,1.128-0.229v-1.331h-1.26V93.64h2.902v3.934c-1.008,0.359-1.822,0.563-2.902,0.563
		C27.784,98.137,27.017,96.218,27.017,93.879z"/>
	<path fill="#222944" d="M41.51,95.139v-5.277h1.643v5.277c0,2.135-1.271,2.998-3.201,2.998c-1.932,0-3.215-0.863-3.215-2.998
		v-5.277h1.655v5.277c0,0.875,0.264,1.619,1.571,1.619C41.223,96.758,41.51,96.014,41.51,95.139z"/>
	<path fill="#222944" d="M51.854,91.337h-3.862v1.738h3.322v1.464h-3.322v2.015h3.922v1.463h-5.577v-8.155h5.518V91.337z"/>
	<path fill="#222944" d="M54.856,97.693l0.288-1.38c1.271,0.3,2.17,0.36,2.807,0.36c0.839,0,1.343-0.384,1.343-0.924
		c0-0.756-0.936-0.911-1.884-1.175c-1.414-0.396-2.434-1.176-2.434-2.555c0-1.644,1.355-2.279,2.975-2.279
		c0.923,0,1.762,0.12,2.878,0.456l-0.372,1.379c-1.283-0.3-1.883-0.359-2.506-0.359c-0.84,0-1.236,0.359-1.236,0.852
		c0,0.672,0.876,0.888,1.859,1.127c1.415,0.324,2.459,0.996,2.459,2.423c0,1.739-1.344,2.519-3.082,2.519
		C57.016,98.137,55.972,98.017,54.856,97.693z"/>
	<path fill="#222944" d="M63.629,97.693l0.287-1.38c1.271,0.3,2.171,0.36,2.807,0.36c0.84,0,1.344-0.384,1.344-0.924
		c0-0.756-0.936-0.911-1.884-1.175c-1.415-0.396-2.435-1.176-2.435-2.555c0-1.644,1.355-2.279,2.975-2.279
		c0.924,0,1.763,0.12,2.879,0.456l-0.373,1.379c-1.283-0.3-1.883-0.359-2.506-0.359c-0.84,0-1.235,0.359-1.235,0.852
		c0,0.672,0.876,0.888,1.858,1.127c1.416,0.324,2.459,0.996,2.459,2.423c0,1.739-1.344,2.519-3.082,2.519
		C65.787,98.137,64.744,98.017,63.629,97.693z"/>
</g>
<g>
</g>
<g>
</g>
<g>
</g>
<g>
</g>
<g>
</g>
<g>
</g>
<g>
</g>
<g>
</g>
<g>
</g>
<g>
</g>
<g>
</g>
<g>
</g>
<g>
</g>
<g>
</g>
<g>
</g>
</svg>
