<?xml version="1.0" encoding="utf-8"?>
<!-- Generator: Adobe Illustrator 17.0.0, SVG Export Plug-In . SVG Version: 6.00 Build 0)  -->
<!DOCTYPE svg PUBLIC "-//W3C//DTD SVG 1.1//EN" "http://www.w3.org/Graphics/SVG/1.1/DTD/svg11.dtd">
<svg version="1.1" id="Layer_1" xmlns="http://www.w3.org/2000/svg" xmlns:xlink="http://www.w3.org/1999/xlink" x="0px" y="0px"
	 width="169.762px" height="18.754px" viewBox="0 0 169.762 18.754" enable-background="new 0 0 169.762 18.754"
	 xml:space="preserve">
<g>
	<g>
		<g>
			<path fill="#222944" d="M2.943,9.388H1.619V7.831h4.393v1.514H4.646l1.471,5.171L8.45,8.821h1.114l2.354,5.695l1.472-5.171
				h-1.514V7.831h4.372v1.557h-1.323l-2.376,7.859h-1.135l-2.48-5.884l-2.459,5.884H5.339L2.943,9.388z"/>
			<path fill="#222944" d="M17.399,9.388h-1.324V7.831h4.393v1.514h-1.366l1.471,5.171l2.334-5.695h1.114l2.354,5.695l1.471-5.171
				h-1.514V7.831h4.372v1.557H29.38l-2.376,7.859H25.87l-2.481-5.884l-2.459,5.884h-1.135L17.399,9.388z"/>
			<path fill="#222944" d="M31.856,9.388h-1.323V7.831h4.392v1.514h-1.366l1.47,5.171l2.334-5.695h1.114l2.354,5.695l1.472-5.171
				h-1.514V7.831h4.372v1.557h-1.323l-2.376,7.859h-1.134l-2.481-5.884l-2.459,5.884h-1.135L31.856,9.388z"/>
			<path fill="#222944" d="M45.051,15.567c0-0.821,0.652-1.494,1.472-1.494c0.819,0,1.472,0.673,1.472,1.494
				s-0.652,1.493-1.472,1.493C45.704,17.06,45.051,16.388,45.051,15.567z"/>
			<path fill="#222944" d="M49.128,15.378H50.6V3.061h-1.471V1.506h3.279v13.871h1.451v1.514h-4.73V15.378z"/>
			<path fill="#222944" d="M54.78,14.475c0-1.662,1.471-2.734,3.552-2.734c0.946,0,1.996,0.21,2.481,0.358v-1.031
				c0-0.524-0.148-0.946-0.4-1.261c-0.379-0.463-1.009-0.693-1.891-0.693c-0.568,0-0.904,0.126-1.178,0.274
				c0.064,0.146,0.106,0.335,0.106,0.504c0,0.588-0.442,1.03-1.051,1.03c-0.632,0-1.073-0.442-1.073-1.074
				c0-1.072,1.178-2.184,3.49-2.184c1.408,0,2.439,0.42,3.047,1.135c0.463,0.545,0.694,1.261,0.694,2.079v4.498h1.408v1.514h-3.111
				v-1.095c-0.735,0.695-1.891,1.263-3.11,1.263C56.083,17.06,54.78,16.114,54.78,14.475z M60.813,14.621V13.15
				c-0.61-0.169-1.387-0.315-2.207-0.315c-1.282,0-1.997,0.609-1.997,1.491c0,0.821,0.61,1.366,1.661,1.366
				C59.236,15.692,60.119,15.23,60.813,14.621z"/>
			<path fill="#222944" d="M72.222,8.989c0,0.65-0.526,1.217-1.156,1.217c-0.61,0-1.029-0.378-1.198-0.778
				c-0.673,0.21-1.45,0.967-1.891,1.829v4.12h1.66v1.514h-4.855v-1.514h1.408V9.388h-1.408V7.831h3.132v2.061
				c0.715-1.241,1.766-2.228,2.817-2.228C71.718,7.665,72.222,8.274,72.222,8.989z"/>
			<path fill="#222944" d="M72.598,12.33c0-2.437,1.955-4.665,4.541-4.665c2.248,0,3.888,1.47,3.888,2.857
				c0,0.8-0.547,1.345-1.283,1.345c-0.588,0-1.135-0.461-1.135-1.133c0-0.294,0.147-0.588,0.378-0.757
				c-0.21-0.422-0.967-0.821-1.849-0.821c-1.22,0-2.712,1.031-2.712,3.217c0,1.87,1.366,3.131,3.237,3.131
				c1.05,0,1.996-0.315,3.11-0.967l-0.168,1.662c-0.924,0.588-1.997,0.862-3.111,0.862C74.678,17.06,72.598,15.125,72.598,12.33z"/>
			<path fill="#222944" d="M82.201,12.373c0-2.544,1.849-4.708,4.729-4.708c2.88,0,4.729,2.143,4.729,4.708
				c0,2.522-1.871,4.688-4.729,4.688C84.03,17.06,82.201,14.915,82.201,12.373z M89.788,12.373c0-1.851-1.177-3.173-2.858-3.173
				c-1.703,0-2.879,1.322-2.879,3.173c0,1.849,1.176,3.153,2.879,3.153C88.611,15.526,89.788,14.222,89.788,12.373z"/>
			<path fill="#222944" d="M92.852,15.378h1.408V9.388h-1.408V7.831h3.131v1.578c0.757-0.882,1.871-1.744,3.195-1.744
				c1.051,0,1.766,0.399,2.207,1.028c0.125,0.189,0.21,0.401,0.272,0.631c0.925-0.926,2.039-1.66,3.195-1.66
				c1.303,0,2.102,0.483,2.523,1.302c0.23,0.484,0.357,1.072,0.357,1.724v4.687h1.408v1.514h-4.561v-1.514h1.345v-4.289
				c0-0.419-0.063-0.754-0.168-1.028c-0.211-0.506-0.63-0.736-1.283-0.736c-0.925,0-1.786,0.547-2.585,1.325v4.729h1.325v1.514
				h-4.477v-1.514h1.345v-4.289c0-0.419-0.042-0.754-0.147-1.028c-0.232-0.506-0.631-0.736-1.283-0.736
				c-0.966,0-1.829,0.588-2.606,1.345v4.708h1.323v1.514h-4.519V15.378z"/>
			<path fill="#222944" d="M109.873,14.475c0-1.662,1.472-2.734,3.552-2.734c0.946,0,1.996,0.21,2.481,0.358v-1.031
				c0-0.524-0.148-0.946-0.4-1.261c-0.378-0.463-1.009-0.693-1.891-0.693c-0.568,0-0.904,0.126-1.178,0.274
				c0.064,0.146,0.106,0.335,0.106,0.504c0,0.588-0.442,1.03-1.051,1.03c-0.632,0-1.073-0.442-1.073-1.074
				c0-1.072,1.178-2.184,3.489-2.184c1.408,0,2.439,0.42,3.047,1.135c0.463,0.545,0.694,1.261,0.694,2.079v4.498h1.408v1.514h-3.111
				v-1.095c-0.735,0.695-1.891,1.263-3.11,1.263C111.176,17.06,109.873,16.114,109.873,14.475z M115.906,14.621V13.15
				c-0.61-0.169-1.387-0.315-2.207-0.315c-1.282,0-1.997,0.609-1.997,1.491c0,0.821,0.61,1.366,1.661,1.366
				C114.329,15.692,115.212,15.23,115.906,14.621z"/>
			<path fill="#222944" d="M127.293,8.989c0,0.65-0.526,1.217-1.156,1.217c-0.61,0-1.029-0.378-1.198-0.778
				c-0.672,0.21-1.45,0.967-1.891,1.829v4.12h1.66v1.514h-4.855v-1.514h1.409V9.388h-1.409V7.831h3.132v2.061
				c0.715-1.241,1.766-2.228,2.817-2.228C126.79,7.665,127.293,8.274,127.293,8.989z"/>
			<path fill="#222944" d="M127.312,15.567c0-0.821,0.652-1.494,1.472-1.494c0.82,0,1.471,0.673,1.471,1.494
				s-0.651,1.493-1.471,1.493C127.964,17.06,127.312,16.388,127.312,15.567z"/>
			<path fill="#222944" d="M131.577,12.33c0-2.437,1.955-4.665,4.541-4.665c2.248,0,3.887,1.47,3.887,2.857
				c0,0.8-0.546,1.345-1.281,1.345c-0.588,0-1.135-0.461-1.135-1.133c0-0.294,0.147-0.588,0.378-0.757
				c-0.21-0.422-0.967-0.821-1.849-0.821c-1.22,0-2.712,1.031-2.712,3.217c0,1.87,1.367,3.131,3.236,3.131
				c1.051,0,1.997-0.315,3.111-0.967l-0.168,1.662c-0.926,0.588-1.997,0.862-3.111,0.862
				C133.658,17.06,131.577,15.125,131.577,12.33z"/>
			<path fill="#222944" d="M141.2,12.373c0-2.544,1.85-4.708,4.73-4.708c2.88,0,4.729,2.143,4.729,4.708
				c0,2.522-1.871,4.688-4.729,4.688C143.03,17.06,141.2,14.915,141.2,12.373z M148.788,12.373c0-1.851-1.177-3.173-2.858-3.173
				c-1.702,0-2.88,1.322-2.88,3.173c0,1.849,1.178,3.153,2.88,3.153C147.611,15.526,148.788,14.222,148.788,12.373z"/>
			<path fill="#222944" d="M151.853,15.378h1.408V9.388h-1.408V7.831h3.132v1.578c0.757-0.882,1.871-1.744,3.195-1.744
				c1.051,0,1.766,0.399,2.207,1.028c0.126,0.189,0.21,0.401,0.272,0.631c0.926-0.926,2.04-1.66,3.195-1.66
				c1.303,0,2.102,0.483,2.523,1.302c0.23,0.484,0.357,1.072,0.357,1.724v4.687h1.408v1.514h-4.561v-1.514h1.345v-4.289
				c0-0.419-0.063-0.754-0.168-1.028c-0.211-0.506-0.63-0.736-1.282-0.736c-0.924,0-1.786,0.547-2.585,1.325v4.729h1.324v1.514
				h-4.476v-1.514h1.345v-4.289c0-0.419-0.042-0.754-0.147-1.028c-0.231-0.506-0.63-0.736-1.283-0.736
				c-0.966,0-1.828,0.588-2.606,1.345v4.708h1.323v1.514h-4.519V15.378z"/>
		</g>
	</g>
</g>
<g>
</g>
<g>
</g>
<g>
</g>
<g>
</g>
<g>
</g>
<g>
</g>
<g>
</g>
<g>
</g>
<g>
</g>
<g>
</g>
<g>
</g>
<g>
</g>
<g>
</g>
<g>
</g>
<g>
</g>
</svg>
